{"glyphs":{"0":{"ha":729,"x_min":-3,"x_max":733,"o":"m 494 1044 q 615 997 565 1043 q 692 878 664 951 q 726 710 719 804 q 719 519 733 617 q 668 329 704 422 q 574 163 632 236 q 436 46 515 90 q 256 1 357 1 q 269 1 274 1 q 252 0 265 0 q 223 0 239 0 q 200 0 207 0 q 81 45 126 0 q 17 163 36 90 q 1 330 -3 236 q 31 522 6 424 q 99 713 56 619 q 203 881 143 807 q 336 999 263 954 q 494 1044 410 1044 m 576 571 q 592 728 597 669 q 565 817 586 788 q 513 853 544 847 q 451 848 482 858 q 393 817 419 838 q 357 776 367 797 q 303 685 335 744 q 244 557 272 626 q 194 415 215 488 q 170 284 172 343 q 190 188 168 225 q 268 153 211 151 q 380 197 328 154 q 472 301 432 239 q 539 437 513 364 q 576 571 565 510 z "},"1":{"ha":735,"x_min":-1,"x_max":739,"o":"m 418 146 q 526 140 481 146 q 601 123 571 133 q 650 100 632 113 q 676 75 668 88 q 682 6 697 44 q 626 6 664 6 q 539 6 589 6 q 432 6 489 6 q 319 5 375 6 q 211 3 263 4 q 122 0 160 1 q 44 15 69 -3 q 10 56 19 33 q 1 115 -1 81 l 68 126 q 141 136 100 131 q 228 146 182 142 q 240 188 226 150 q 276 283 253 225 q 330 414 299 340 q 394 565 361 488 q 462 717 428 642 q 525 856 496 793 q 449 830 488 840 q 378 817 410 819 q 307 838 333 814 q 265 892 281 861 q 240 972 249 928 q 290 964 256 965 q 370 967 325 963 q 464 981 415 971 q 554 1006 513 990 q 639 1036 601 1031 q 699 1030 671 1042 q 731 968 726 1018 q 724 869 739 933 q 678 728 708 806 q 609 565 649 650 q 532 399 569 479 q 463 253 494 319 q 418 146 432 186 z "},"2":{"ha":647,"x_min":0,"x_max":653,"o":"m 600 264 q 601 174 607 217 q 576 99 596 138 q 508 39 556 61 q 383 3 439 7 q 273 6 328 -1 q 158 26 218 14 q 22 38 99 38 q 13 51 18 36 q 5 97 8 65 q 1 192 1 128 q 48 314 0 251 q 167 456 96 376 q 317 638 238 535 q 463 886 397 742 q 390 903 433 908 q 299 869 354 899 q 169 761 244 839 q 95 778 121 754 q 60 835 69 803 q 47 922 47 872 q 293 1051 176 1015 q 394 1072 343 1067 q 492 1062 444 1076 q 578 1009 539 1047 q 643 901 617 971 q 634 842 653 882 q 580 747 615 801 q 497 631 544 693 q 404 507 450 569 q 318 387 358 444 q 256 284 278 329 q 238 211 235 239 q 279 182 240 183 q 361 179 314 174 q 461 201 401 183 q 600 264 521 219 z "},"3":{"ha":490,"x_min":0,"x_max":489,"o":"m 465 899 q 440 789 464 842 q 368 688 417 736 q 408 665 386 681 q 447 622 429 650 q 477 551 465 593 q 489 449 489 508 q 473 310 489 389 q 421 132 457 232 q 369 51 399 81 q 305 8 339 21 q 235 -5 271 -6 q 165 4 199 -4 q 0 83 86 24 l 24 296 q 160 183 94 199 q 216 188 188 176 q 272 238 244 199 q 323 351 299 278 q 364 543 347 425 q 360 565 365 557 q 344 574 354 572 q 322 572 335 575 q 296 565 310 569 q 224 529 264 553 l 122 576 q 115 624 111 599 q 138 672 118 644 q 206 731 157 700 q 257 774 236 750 q 292 825 278 799 q 318 878 307 851 q 342 932 329 906 q 284 928 314 933 q 227 908 254 924 q 176 866 200 893 q 138 796 153 839 q 101 807 121 788 q 65 853 82 826 q 26 926 46 883 q 96 985 51 960 q 195 1025 133 1007 q 350 1042 257 1043 q 372 1037 353 1042 q 412 1017 390 1032 q 450 974 433 1003 q 465 899 467 946 z "},"4":{"ha":619,"x_min":0,"x_max":619,"o":"m 615 86 l 617 88 q 619 87 619 88 q 617 86 618 86 l 615 86 m 564 965 q 557 865 571 929 q 517 718 543 800 q 460 542 492 636 q 402 356 429 449 q 358 176 375 263 q 343 21 340 89 q 332 -2 353 6 q 282 4 311 -10 q 227 60 253 18 q 201 185 201 101 q 234 294 211 235 q 288 439 257 353 q 226 447 261 443 q 158 454 190 451 q 102 458 125 457 q 76 461 79 460 q 44 470 57 465 q 24 483 32 475 q 10 507 15 492 q 0 549 4 522 q 22 618 4 575 q 61 712 39 661 q 107 815 83 763 q 147 915 131 868 q 171 995 164 961 q 167 1043 178 1029 q 213 1042 190 1047 q 251 1026 232 1038 q 286 990 271 1014 q 280 915 294 963 q 240 808 265 867 q 188 689 215 750 q 144 576 161 628 q 205 572 175 575 q 261 565 235 568 q 306 563 288 563 q 332 569 325 563 q 378 711 354 638 q 418 851 401 785 q 443 967 435 917 q 446 1039 451 1018 q 494 1036 471 1042 q 533 1015 514 1031 q 564 965 553 1000 z "},"5":{"ha":579,"x_min":0,"x_max":579,"o":"m 578 1047 q 571 975 579 1007 q 546 924 564 947 q 493 900 528 901 q 422 894 461 899 q 347 894 383 890 q 340 863 347 890 q 317 798 332 835 q 283 723 303 761 q 242 661 264 685 q 281 656 250 660 q 349 637 313 651 q 420 592 386 622 q 469 510 454 563 q 469 377 483 457 q 397 182 456 297 q 314 90 354 125 q 238 38 274 56 q 171 16 203 19 q 113 18 139 13 q 0 83 50 31 l 35 254 q 135 158 82 168 q 182 167 157 154 q 234 218 207 179 q 290 327 261 257 q 346 508 318 397 q 332 552 347 535 q 294 576 317 569 q 247 575 272 582 q 200 547 221 568 q 171 503 182 522 q 153 471 160 483 q 139 444 144 456 l 74 515 q 75 564 71 539 q 86 612 78 586 q 114 665 94 638 q 174 773 150 714 q 213 883 197 832 q 240 1001 229 943 q 256 1028 243 1017 q 286 1041 267 1036 q 342 1038 306 1046 q 430 1026 396 1025 q 489 1032 464 1026 q 533 1043 514 1038 q 578 1047 553 1049 z "},"6":{"ha":578,"x_min":-6,"x_max":581,"o":"m 571 347 q 569 344 571 347 q 568 339 568 342 l 568 338 l 567 338 q 483 151 529 221 q 388 45 436 82 q 296 -2 340 8 q 218 -11 251 -12 q 175 -4 193 -10 q 160 0 167 -1 l 161 3 q 93 33 129 13 q 32 92 57 54 q 1 186 7 129 q 25 326 -6 243 l 25 332 q 67 433 38 372 q 132 563 96 493 q 205 704 168 632 q 271 840 242 776 q 317 953 300 904 q 326 1026 333 1003 q 382 1033 357 1035 q 424 1022 404 1032 q 451 982 444 1011 q 453 922 463 961 q 419 831 443 883 q 363 719 396 779 q 296 597 331 660 q 392 599 335 606 q 513 568 474 600 q 567 493 553 536 q 578 408 581 450 q 571 347 575 365 m 254 69 q 344 106 306 74 q 410 181 383 139 q 453 263 438 222 q 475 325 468 304 q 471 412 479 379 q 447 461 463 444 q 409 481 431 478 q 365 478 388 483 q 322 464 343 474 q 285 444 300 454 q 232 353 263 404 q 185 251 201 303 q 181 151 169 199 q 254 69 193 103 z "},"7":{"ha":551,"x_min":0,"x_max":557,"o":"m 542 988 q 548 913 557 964 q 515 793 539 861 q 457 646 492 725 q 387 486 422 567 q 320 329 351 406 q 271 190 289 253 q 253 85 253 128 q 281 29 253 42 q 277 10 289 19 q 243 -4 265 0 q 193 -3 221 -8 q 140 19 165 1 q 99 72 115 38 q 82 161 82 106 q 131 297 94 213 q 211 476 167 381 q 299 669 256 572 q 368 847 342 767 q 267 842 321 842 q 168 844 214 842 q 63 853 114 847 l 1 939 q 13 982 0 965 q 49 1006 24 997 q 126 1006 74 1015 q 223 993 178 996 q 303 993 268 990 q 363 1005 339 996 q 394 1029 386 1014 l 394 1031 q 457 1043 428 1042 q 506 1033 482 1043 q 542 988 531 1022 z "},"8":{"ha":629,"x_min":-3,"x_max":632,"o":"m 482 1038 q 582 1009 550 1038 q 623 943 614 981 q 627 869 632 906 q 618 817 622 832 q 617 814 618 815 l 617 807 l 615 807 q 565 694 592 742 q 510 613 538 646 q 456 558 483 579 q 401 526 428 538 q 465 484 446 514 q 489 421 485 454 q 489 357 493 388 q 481 313 485 326 l 481 310 q 479 304 479 307 l 479 303 l 478 303 q 394 136 439 197 q 305 45 349 75 q 222 8 261 15 q 156 4 182 1 l 154 3 q 147 4 151 3 q 140 6 144 6 q 131 8 136 6 q 120 11 124 10 q 114 13 117 13 q 74 32 96 19 q 33 67 51 44 q 6 121 15 89 q 4 199 -3 153 q 38 304 11 244 q 119 442 64 364 q 138 467 124 451 q 138 468 138 468 q 139 469 139 468 l 140 469 q 177 500 154 485 q 233 524 200 515 q 176 564 204 536 q 140 640 147 592 q 157 764 133 689 q 256 946 181 839 q 263 956 258 950 q 275 971 268 963 q 276 972 275 972 q 276 974 276 972 l 278 974 q 351 1022 301 1000 q 482 1038 400 1043 m 399 294 q 392 397 408 367 q 349 431 376 426 q 291 422 322 435 q 239 399 260 410 q 186 328 215 371 q 140 240 157 286 q 127 149 122 193 q 176 72 132 104 q 265 95 226 68 q 331 160 303 122 q 375 236 358 197 q 399 294 392 275 m 536 799 q 538 876 543 847 q 519 918 532 904 q 487 934 506 932 q 448 932 468 936 q 409 919 428 928 q 376 901 390 910 q 324 833 353 875 q 277 744 294 790 q 265 653 260 697 q 314 576 269 608 q 402 599 364 572 q 468 664 440 626 q 513 740 496 701 q 536 799 529 779 z "},"9":{"ha":501,"x_min":-3,"x_max":501,"o":"m 501 911 q 442 672 485 807 q 337 396 406 557 q 154 36 268 235 q 107 0 135 3 q 56 12 79 -3 q 17 52 32 26 q 8 101 3 78 q 44 185 17 133 q 106 297 71 236 q 176 422 140 357 q 239 543 213 486 q 176 519 208 524 q 100 521 144 514 q 76 532 93 521 q 40 565 58 543 q 10 623 22 588 q 1 707 -3 658 q 31 818 6 756 q 115 958 57 881 q 254 1035 185 1015 q 316 1044 283 1043 q 381 1031 349 1044 q 443 990 413 1018 q 501 911 474 961 m 165 604 q 230 630 200 606 q 283 687 260 654 q 320 752 306 719 q 340 804 335 785 q 333 904 349 875 q 294 938 318 933 q 244 927 271 942 q 204 894 218 913 q 161 819 185 868 q 125 723 138 771 q 119 640 113 675 q 165 604 125 604 z "},"\u0000":{"ha":0,"x_min":0,"x_max":0,"o":""},"\r":{"ha":125,"x_min":0,"x_max":0,"o":""}," ":{"ha":125,"x_min":0,"x_max":0,"o":""},"d":{"ha":782,"x_min":0,"x_max":782,"o":"m 782 315 q 676 157 726 226 q 633 99 656 128 q 588 49 610 71 q 546 13 565 26 q 513 0 526 0 q 435 19 463 0 q 395 65 408 39 q 378 119 382 92 q 368 164 374 147 q 322 111 349 139 q 263 59 294 83 q 197 19 231 35 q 128 3 163 3 q 60 26 88 3 q 17 89 32 49 q 1 182 3 129 q 12 294 0 235 q 49 417 24 354 q 113 538 74 479 q 192 630 151 596 q 271 680 232 664 q 344 697 310 696 q 406 690 379 697 q 451 672 433 683 q 474 649 468 660 q 474 626 479 638 q 471 604 469 615 q 519 742 496 675 q 559 867 543 810 q 582 968 575 925 q 582 1033 589 1011 q 649 1042 618 1043 q 699 1028 675 1040 q 735 982 724 1017 q 732 889 742 942 q 703 773 722 836 q 658 640 683 710 q 608 494 632 569 q 564 342 583 419 q 538 186 544 264 q 544 171 536 171 q 564 180 551 171 q 592 206 576 189 q 625 243 608 224 q 715 358 664 289 q 746 373 733 378 q 767 356 758 368 q 782 315 776 340 m 388 356 q 400 403 393 378 q 416 454 407 425 q 438 518 425 483 q 421 522 431 519 q 401 528 411 525 q 379 535 390 532 q 376 562 374 549 q 380 585 378 575 q 382 603 382 596 q 372 611 382 610 q 322 585 349 613 q 267 513 294 557 q 217 413 240 468 q 176 306 193 358 q 151 209 158 253 q 149 143 143 165 q 168 119 154 121 q 200 127 182 117 q 239 159 218 138 q 281 206 260 181 q 388 356 329 265 z "},"e":{"ha":654,"x_min":-4,"x_max":654,"o":"m 654 300 q 549 150 606 217 q 494 95 524 122 q 432 47 465 68 q 362 13 399 26 q 286 0 325 0 q 145 30 203 0 q 53 108 88 60 q 8 219 19 157 q 5 347 -4 282 q 43 475 14 413 q 119 587 72 538 q 230 666 165 636 q 374 697 294 696 q 472 667 433 697 q 525 591 511 638 q 526 491 539 544 q 472 391 514 438 q 354 313 429 344 q 169 281 279 281 q 178 211 163 242 q 224 164 190 185 q 332 143 258 143 q 389 156 363 144 q 438 185 415 167 q 481 224 461 203 q 517 268 500 246 q 582 385 553 321 q 613 393 600 404 q 636 361 626 382 q 654 300 647 336 m 371 611 q 267 579 306 611 q 207 510 228 547 q 174 410 182 465 q 316 442 260 410 q 397 511 372 474 q 415 580 422 549 q 371 611 408 611 z "},"f":{"ha":663,"x_min":-1,"x_max":663,"o":"m 603 364 q 647 338 632 353 q 661 303 660 324 q 635 256 663 283 q 587 216 624 244 q 494 154 550 188 q 503 82 501 121 q 500 -1 506 43 q 462 -126 493 -64 q 383 -236 431 -187 q 276 -315 336 -285 q 150 -346 217 -346 q 79 -331 108 -346 q 32 -290 50 -315 q 6 -230 14 -264 q 1 -160 -1 -196 q 32 15 8 -75 q 86 191 56 104 q 149 358 117 278 q 206 503 181 438 q 242 617 231 569 q 244 688 254 665 q 299 688 274 693 q 340 665 319 682 q 371 607 361 647 q 362 515 378 579 q 314 365 346 450 q 345 357 326 365 q 385 333 364 349 q 428 292 407 317 q 467 233 450 268 q 536 288 501 256 q 603 364 571 319 m 306 306 q 283 252 300 290 q 244 163 267 214 q 301 169 271 164 q 368 186 332 174 q 346 271 361 238 q 306 306 331 304 m 182 -228 q 260 -202 226 -231 q 317 -127 294 -174 q 353 -24 340 -81 q 369 90 367 33 q 283 60 328 72 q 194 42 239 47 q 161 -56 175 -8 q 143 -142 147 -104 q 147 -203 139 -179 q 182 -228 156 -226 z "},"g":{"ha":796,"x_min":0,"x_max":796,"o":"m 796 307 q 699 149 749 221 q 653 87 678 118 q 604 29 629 56 q 554 -17 579 3 q 506 -46 529 -37 q 410 -233 471 -167 q 281 -324 349 -299 q 150 -342 214 -350 q 46 -306 86 -333 q 15 -263 28 -289 q 1 -208 1 -237 q 15 -146 0 -178 q 71 -83 31 -114 q 179 -24 111 -51 q 351 22 247 3 q 358 47 354 29 q 368 82 363 64 q 381 126 374 103 q 338 65 363 92 q 288 24 317 42 q 225 6 260 6 q 160 29 186 6 q 122 94 135 53 q 110 188 110 135 q 124 301 110 242 q 167 423 139 361 q 236 542 194 485 q 347 655 294 621 q 442 695 400 689 q 516 689 485 701 q 561 660 547 676 q 588 681 576 675 q 641 697 617 703 q 683 675 665 690 q 719 626 704 657 q 674 556 696 610 q 628 428 651 503 q 579 263 604 353 q 525 82 554 172 q 623 204 585 153 q 685 288 661 256 q 726 351 711 325 q 758 367 746 371 q 779 349 771 363 q 796 307 789 333 m 211 -211 q 249 -190 231 -210 q 283 -146 268 -169 q 315 -83 300 -118 q 256 -92 286 -83 q 202 -116 226 -101 q 161 -148 178 -131 q 142 -180 144 -165 q 156 -203 140 -194 q 211 -211 172 -212 m 443 363 q 463 432 457 408 q 474 472 469 456 q 484 503 478 488 q 503 553 490 519 q 503 575 501 564 q 508 594 506 586 q 508 608 510 603 q 497 615 507 614 q 437 583 471 618 q 369 492 403 547 q 304 374 335 438 q 256 255 274 310 q 238 163 239 200 q 260 125 236 125 q 289 135 274 125 q 320 161 304 144 q 351 199 336 178 q 379 243 365 221 q 443 363 411 296 z "},"h":{"ha":775,"x_min":0,"x_max":775,"o":"m 775 299 q 661 149 718 215 q 609 94 636 121 q 553 46 582 67 q 497 13 525 25 q 443 0 469 0 q 376 46 390 0 q 376 168 361 92 q 428 342 390 244 q 515 543 465 439 q 486 519 508 543 q 432 458 464 496 q 361 372 400 419 q 283 274 322 324 q 78 7 190 157 q 39 13 56 -3 q 12 63 24 25 q 0 182 0 100 q 22 284 0 215 q 77 439 44 353 q 147 619 110 525 q 213 799 183 714 q 259 949 243 883 q 267 1043 275 1014 q 321 1043 296 1049 q 366 1024 343 1039 q 401 974 389 1008 q 399 906 408 951 q 371 801 390 860 q 326 676 351 742 q 275 547 300 610 q 228 429 250 483 q 197 339 207 375 q 222 367 201 344 q 272 419 242 389 q 337 486 301 450 q 407 558 372 522 q 473 624 442 593 q 525 674 504 654 q 545 690 535 682 q 558 700 556 697 q 584 701 567 707 q 621 686 601 696 q 668 660 643 675 q 672 619 678 654 q 652 535 667 585 q 618 427 638 485 q 581 317 599 369 q 549 226 563 265 q 533 174 536 186 q 538 158 531 158 q 556 168 544 158 q 585 195 568 178 q 618 233 601 213 q 713 350 658 281 q 744 364 732 369 q 763 343 756 358 q 775 299 771 326 z "},"i":{"ha":446,"x_min":-4,"x_max":446,"o":"m 386 356 q 417 369 406 375 q 435 350 428 364 q 446 307 442 335 q 347 153 400 219 q 299 97 325 124 q 245 48 274 69 q 188 14 217 26 q 128 1 158 1 q 35 32 64 3 q 1 108 7 61 q 10 215 -4 156 q 47 338 24 275 q 95 463 69 401 q 140 573 121 524 q 165 655 158 622 q 157 693 172 688 q 218 700 190 703 q 265 683 242 697 q 299 631 288 668 q 292 539 308 594 q 252 419 276 483 q 203 289 228 356 q 174 164 179 222 q 178 147 171 147 q 199 156 185 146 q 233 185 214 167 q 274 226 253 204 q 386 356 322 278 m 293 788 q 253 794 271 789 q 220 809 236 800 q 196 835 204 818 q 188 867 188 851 q 193 896 188 882 q 208 924 199 910 q 229 953 218 938 q 258 963 239 965 q 298 953 278 961 q 333 933 318 944 q 349 918 349 922 q 340 893 349 914 q 321 849 332 872 q 293 788 308 821 z "},"j":{"ha":764,"x_min":-3,"x_max":764,"o":"m 693 346 q 726 360 713 365 q 747 339 739 354 q 764 294 757 322 q 685 147 729 214 q 643 92 665 119 q 594 42 621 64 q 538 5 568 19 q 476 -14 508 -10 q 433 -147 468 -78 q 345 -266 399 -215 q 222 -337 292 -317 q 75 -325 153 -358 q 35 -285 54 -311 q 6 -226 15 -258 q 3 -158 -3 -193 q 42 -88 10 -122 q 139 -25 75 -54 q 307 24 203 4 q 348 161 328 89 q 389 303 368 233 q 430 438 410 374 q 471 552 450 501 q 513 637 492 603 q 556 679 533 671 q 608 696 585 701 q 650 675 632 690 q 688 626 671 657 q 641 558 664 610 q 594 433 618 507 q 546 272 571 360 q 492 94 521 183 q 517 113 503 99 q 549 145 532 126 q 582 186 565 164 q 615 231 599 208 q 693 346 653 283 m 163 -200 q 228 -179 203 -200 q 267 -133 253 -158 q 290 -65 282 -104 q 215 -86 251 -65 q 157 -132 179 -107 q 133 -178 135 -157 q 163 -200 132 -200 m 706 760 q 657 761 679 757 q 619 772 638 764 q 593 797 600 781 q 589 831 586 814 q 599 863 592 847 q 618 894 607 879 q 639 924 629 910 q 666 934 647 938 q 703 919 685 931 q 737 895 722 908 q 751 878 751 882 q 744 854 751 874 q 728 814 736 835 q 706 760 718 789 z "},"k":{"ha":731,"x_min":0,"x_max":731,"o":"m 731 281 q 640 142 689 203 q 595 90 619 115 q 543 46 571 65 q 485 15 515 26 q 425 4 456 4 q 346 38 379 4 q 290 120 313 71 q 254 226 268 169 q 233 329 240 282 q 208 296 222 322 q 181 233 194 269 q 158 157 168 197 q 140 83 147 117 q 133 28 133 50 q 140 6 132 6 q 69 7 100 -6 q 22 53 43 17 q 0 172 0 90 q 25 279 0 211 q 88 430 50 347 q 168 602 125 513 q 247 774 211 692 q 303 924 282 857 q 318 1029 324 992 q 378 1043 350 1042 q 425 1033 401 1044 q 460 988 449 1022 q 469 940 471 971 q 455 869 467 910 q 424 781 443 829 q 383 676 406 732 q 428 692 403 688 q 474 697 454 697 q 540 673 518 699 q 565 609 561 647 q 555 525 568 571 q 515 439 542 479 q 451 372 489 399 q 368 342 413 344 q 386 258 371 296 q 417 194 401 221 q 457 139 435 163 q 494 146 475 138 q 533 169 514 154 q 569 202 551 183 q 604 242 588 221 q 676 351 642 289 q 707 366 696 374 q 724 339 718 358 q 731 281 729 317 m 257 411 q 332 428 297 411 q 394 469 367 444 q 442 524 422 494 q 469 579 461 554 q 471 621 476 604 q 444 638 465 638 q 390 621 411 638 q 342 576 368 604 l 257 411 z "},"l":{"ha":467,"x_min":0,"x_max":467,"o":"m 467 294 q 371 144 422 211 q 323 90 349 117 q 269 42 297 63 q 210 8 240 21 q 147 -4 179 -4 q 93 6 119 -4 q 46 39 67 17 q 13 95 25 61 q 1 176 0 129 q 27 301 4 226 q 82 460 50 375 q 149 634 114 546 q 213 801 185 722 q 255 943 240 881 q 260 1038 269 1006 q 308 1039 283 1044 q 352 1014 329 1033 q 394 950 375 994 q 394 881 403 926 q 367 775 386 835 q 324 647 349 715 q 272 510 299 578 q 223 381 246 443 q 185 270 200 318 q 169 194 171 222 q 183 165 167 165 q 238 164 206 151 q 303 213 264 175 q 393 339 342 250 l 413 361 q 442 373 432 381 q 458 347 453 365 q 467 294 464 326 z "},"m":{"ha":1039,"x_min":1,"x_max":1039,"o":"m 989 351 q 1017 363 1008 371 q 1032 335 1026 354 q 1039 279 1038 313 q 935 138 989 200 q 886 86 911 111 q 834 42 861 61 q 780 10 807 22 q 728 0 753 -1 q 702 12 726 0 q 658 57 678 24 q 643 131 640 88 q 660 224 646 174 q 699 331 675 275 q 747 442 722 386 l 410 4 q 340 32 357 4 q 322 104 322 60 q 330 168 322 131 q 351 250 338 206 q 382 345 365 294 q 418 449 399 396 l 90 1 q 47 11 64 1 q 19 37 29 21 q 5 74 8 53 q 1 117 1 94 q 12 190 1 144 q 38 289 22 235 q 72 401 54 343 q 103 511 89 458 q 124 607 117 564 q 125 675 131 650 q 175 693 150 690 q 219 683 196 696 q 263 629 243 671 q 276 559 278 597 q 265 481 275 521 q 240 401 254 440 q 214 329 225 363 q 229 350 217 333 q 260 392 242 367 q 300 447 278 417 q 344 508 322 476 q 461 672 397 582 q 525 696 496 692 q 571 686 549 699 q 599 629 593 674 q 599 550 603 589 q 585 474 594 511 q 563 403 575 438 q 539 335 550 368 q 565 367 543 340 q 617 433 588 394 q 679 513 646 471 q 740 592 713 556 q 787 651 768 628 q 806 675 806 675 q 826 686 813 679 q 855 692 839 693 q 888 677 871 690 q 917 629 904 664 q 914 542 929 596 q 875 425 899 488 q 826 299 851 363 q 796 182 801 235 q 802 176 794 174 q 824 190 810 179 q 855 216 838 200 q 890 250 872 232 q 989 351 933 292 z "},"n":{"ha":738,"x_min":0,"x_max":739,"o":"m 696 342 q 723 349 714 361 q 735 315 732 338 q 736 250 739 290 q 632 125 686 181 q 583 79 608 101 q 530 39 557 57 q 474 10 503 21 q 419 0 446 0 q 369 21 392 7 q 334 52 350 32 q 319 101 318 72 q 347 238 321 154 q 422 433 374 322 l 93 3 q 49 14 67 3 q 21 42 32 25 q 5 81 10 60 q 0 125 0 103 q 13 199 0 153 q 43 299 25 244 q 81 412 61 353 q 117 524 101 471 q 142 619 133 576 q 143 686 150 663 q 201 696 175 699 q 248 678 225 693 q 282 618 271 663 q 288 550 290 583 q 278 484 286 517 q 257 419 269 451 q 235 354 244 388 q 250 374 238 358 q 281 413 263 390 q 321 464 299 436 q 365 521 343 492 q 483 671 418 588 q 528 690 506 688 q 567 681 547 693 q 600 629 586 669 q 597 538 611 596 q 559 415 582 481 q 513 283 536 350 q 481 164 489 217 q 488 159 479 156 q 512 173 497 163 q 546 200 526 183 q 586 236 565 217 q 696 342 633 281 z "},"o":{"ha":615,"x_min":-3,"x_max":615,"o":"m 565 344 q 580 358 574 356 q 591 358 586 361 q 599 348 596 356 q 606 331 603 340 q 615 272 611 307 q 579 224 603 246 q 526 188 560 204 q 442 168 492 171 q 340 63 392 97 q 246 14 289 28 q 150 1 196 -1 q 95 19 124 1 q 44 70 67 36 q 10 155 22 104 q 1 272 -3 206 q 31 422 6 339 q 111 604 57 506 l 126 604 q 142 603 133 604 q 158 601 150 603 q 289 684 229 668 q 394 681 349 700 q 469 615 439 661 q 510 508 499 568 q 511 382 521 447 q 468 261 501 317 q 501 276 483 264 q 533 304 518 289 q 565 344 550 321 m 374 269 q 400 327 389 290 q 415 403 411 364 q 413 479 418 443 q 391 535 408 515 q 344 553 374 556 q 268 514 314 551 q 217 455 232 482 q 202 405 201 428 q 215 363 203 382 q 247 329 228 344 q 374 269 292 293 m 196 101 q 260 117 235 104 q 300 144 285 129 q 326 185 317 161 q 311 187 329 183 q 265 201 293 190 q 207 231 238 213 q 154 279 176 250 q 144 221 146 251 q 147 164 142 190 q 164 120 151 138 q 196 101 176 103 z "},"p":{"ha":786,"x_min":0,"x_max":786,"o":"m 786 294 q 772 274 786 294 q 732 222 758 253 q 667 153 706 190 q 582 84 629 115 q 478 32 535 53 q 360 11 422 11 q 321 13 338 11 q 290 20 304 15 q 262 32 275 25 q 232 50 249 39 q 231 54 231 51 q 181 -73 203 -12 q 147 -181 158 -133 q 140 -262 136 -229 q 167 -306 143 -294 q 165 -324 175 -315 q 138 -336 156 -333 q 95 -333 119 -339 q 50 -309 71 -328 q 15 -256 29 -290 q 0 -165 0 -221 q 38 -42 11 -117 q 99 119 65 33 q 169 295 133 206 q 233 464 206 385 q 274 603 260 543 q 278 692 288 664 q 340 706 311 704 q 390 696 365 707 q 425 650 414 685 q 432 629 431 639 q 489 670 460 653 q 549 694 518 688 q 599 673 578 701 q 633 594 621 644 q 643 480 644 544 q 626 349 642 415 q 576 220 610 282 q 488 115 542 158 q 560 176 519 136 q 636 257 600 217 q 719 357 678 303 q 751 369 739 376 q 771 344 763 361 q 786 294 779 325 m 293 89 q 340 119 314 88 q 392 198 367 150 q 442 304 418 246 q 484 419 467 363 q 510 520 501 475 q 514 588 518 565 q 500 610 510 608 q 478 601 490 613 q 451 568 465 589 q 421 525 436 547 q 363 360 401 453 q 281 169 324 267 l 289 164 q 291 138 293 151 q 287 115 289 125 q 285 97 285 104 q 293 89 285 90 z "},"q":{"ha":572,"x_min":-3,"x_max":572,"o":"m 572 279 q 511 194 546 238 q 440 117 482 158 q 347 40 399 75 q 313 -40 332 1 q 276 -119 294 -81 q 242 -194 257 -158 q 217 -257 226 -229 q 208 -304 208 -285 q 219 -329 207 -324 q 153 -333 182 -342 q 108 -295 128 -326 q 88 -190 88 -264 q 100 -135 88 -169 q 137 -52 113 -101 q 196 65 161 -3 q 275 221 231 132 q 223 171 244 193 q 184 133 201 149 q 150 108 167 117 q 113 100 133 100 q 33 142 60 99 q 1 253 6 185 q 15 402 -3 321 q 74 558 33 483 q 156 665 113 633 q 235 701 199 696 q 299 694 272 707 q 332 668 325 681 q 351 624 342 649 q 363 579 360 599 q 388 586 372 583 q 420 587 404 589 q 451 574 436 585 q 472 539 465 563 q 487 486 486 515 q 477 417 488 457 q 446 321 467 376 q 394 190 425 265 q 435 222 414 199 q 474 271 456 244 q 506 319 492 297 q 525 350 519 342 q 553 372 543 379 q 567 343 563 364 q 572 279 572 318 m 158 219 q 196 229 176 217 q 233 261 215 242 q 267 303 251 281 q 295 346 283 326 q 313 378 307 365 q 319 388 319 390 q 337 442 331 419 q 347 481 343 464 q 353 512 351 497 q 354 544 354 526 q 338 533 349 539 q 329 531 332 531 q 306 561 313 543 q 296 595 299 579 q 292 623 293 611 q 282 635 290 635 q 245 605 264 635 q 210 529 226 575 q 180 429 193 483 q 159 329 167 375 q 151 252 151 283 q 158 219 150 221 z "},"r":{"ha":735,"x_min":0,"x_max":735,"o":"m 671 517 q 699 527 686 532 q 719 511 711 522 q 735 478 729 497 q 657 376 700 422 q 570 306 621 338 q 457 272 519 274 q 365 282 390 269 q 338 318 339 294 q 354 377 338 342 q 389 457 371 413 l 104 7 q 58 19 78 7 q 26 51 39 32 q 6 93 13 69 q 0 139 0 117 q 24 247 0 181 q 76 391 47 314 q 131 547 106 468 q 160 692 156 626 q 222 689 194 696 q 265 661 246 682 q 285 594 285 640 q 263 514 275 550 q 238 445 250 478 q 213 381 225 413 q 189 318 200 350 q 214 353 193 324 q 264 422 235 382 q 326 507 293 461 q 385 591 358 553 q 430 654 413 629 q 447 679 447 679 q 497 683 472 685 q 539 675 518 682 q 575 650 560 668 q 578 599 589 633 q 547 524 567 565 q 508 442 528 483 q 486 368 489 400 q 492 360 485 358 q 513 370 500 361 q 542 393 525 379 q 576 424 558 407 q 671 517 618 461 z "},"s":{"ha":671,"x_min":0,"x_max":671,"o":"m 467 194 q 518 243 494 217 q 561 293 542 269 q 601 349 583 319 q 633 365 619 368 q 654 350 646 363 q 671 311 664 335 q 632 232 657 274 q 572 153 610 196 q 476 67 535 110 q 389 24 439 42 q 286 1 339 7 q 182 5 233 -4 q 90 40 131 14 q 25 114 50 67 q 0 232 0 161 q 53 422 1 338 q 226 558 106 507 q 240 567 233 561 q 250 572 247 572 q 319 652 278 626 q 401 688 361 678 q 499 694 447 699 q 524 647 515 669 q 530 608 531 628 q 511 576 529 589 q 428 499 454 536 q 396 430 403 463 q 398 367 389 397 q 421 307 407 336 q 449 250 435 278 q 467 194 463 222 m 186 179 q 247 183 219 182 q 285 208 274 185 q 285 286 296 231 q 233 451 275 342 q 228 447 231 449 q 222 444 225 446 q 147 360 169 406 q 124 274 125 314 q 140 208 122 235 q 186 179 157 181 z "},"t":{"ha":713,"x_min":-1,"x_max":715,"o":"m 640 858 q 703 807 690 838 q 710 751 715 776 q 691 713 706 726 q 671 711 676 699 q 655 738 671 728 q 610 754 639 749 q 544 760 582 760 q 461 760 506 761 q 419 635 443 701 q 369 504 394 569 q 322 379 344 439 q 284 272 299 319 q 265 196 269 225 q 271 163 260 167 q 329 164 296 150 q 398 214 357 175 q 490 342 439 253 l 511 364 q 540 376 529 383 q 556 350 550 368 q 564 297 561 329 q 468 147 519 214 q 420 92 446 119 q 366 44 394 65 q 307 11 338 24 q 244 -1 276 -1 q 191 9 217 -1 q 144 42 165 19 q 111 98 124 64 q 99 179 99 132 q 122 292 101 225 q 170 435 142 358 q 231 594 199 513 q 292 753 264 676 q 196 749 242 750 q 113 751 150 749 q 50 760 75 753 q 17 782 25 768 q 0 816 -1 797 q 10 851 1 835 q 38 890 19 871 q 76 873 49 879 q 144 864 104 867 q 231 861 183 861 q 329 861 279 861 q 357 968 349 922 q 357 1040 365 1014 q 406 1042 381 1047 q 450 1017 426 1036 q 493 953 474 997 q 489 864 501 924 q 575 863 536 864 q 640 858 614 863 z "},"u":{"ha":736,"x_min":-3,"x_max":736,"o":"m 676 354 q 707 368 696 374 q 725 349 718 363 q 736 306 732 333 q 638 153 690 219 q 590 97 615 124 q 535 48 564 69 q 478 13 507 26 q 418 0 449 0 q 356 15 378 0 q 325 52 335 29 q 314 103 315 75 q 311 156 313 131 q 269 105 290 132 q 224 55 247 78 q 176 16 200 32 q 126 0 151 0 q 34 31 63 1 q 1 107 6 60 q 13 214 -3 154 q 51 337 28 274 q 102 461 75 400 q 149 572 129 522 q 176 653 168 621 q 168 692 183 686 q 225 699 199 701 q 270 681 249 696 q 303 629 292 667 q 296 541 313 593 q 255 430 279 489 q 206 308 231 371 q 176 186 182 244 q 190 170 171 158 q 239 211 210 182 q 300 276 268 240 q 351 336 332 313 q 406 460 376 399 q 456 572 435 522 q 485 653 476 621 q 478 692 493 686 q 535 699 508 701 q 580 681 558 696 q 613 629 601 667 q 612 572 619 606 q 589 500 604 539 q 553 418 574 461 q 515 331 533 375 q 483 244 497 288 q 464 163 468 201 q 468 145 461 146 q 490 155 475 144 q 524 184 504 165 q 564 225 543 203 q 676 354 613 276 z "},"v":{"ha":567,"x_min":-7,"x_max":567,"o":"m 474 681 q 505 691 489 704 q 535 653 521 678 q 567 578 550 624 q 520 444 557 522 q 431 286 483 365 q 318 138 379 207 q 198 33 257 68 q 88 6 139 -3 q 7 89 38 14 q 5 186 -7 128 q 41 310 17 244 q 94 442 65 375 q 145 563 124 508 q 174 655 167 618 q 163 699 182 692 q 232 696 201 703 q 278 669 258 689 q 296 606 299 650 q 289 562 294 588 q 274 506 283 536 q 253 445 264 476 q 231 383 242 414 q 171 235 204 313 q 163 184 163 210 q 176 148 164 158 q 210 153 188 138 q 270 226 233 168 q 357 392 307 283 q 474 681 407 501 z "},"w":{"ha":1058,"x_min":-3,"x_max":1058,"o":"m 999 351 q 1028 365 1017 371 q 1047 346 1040 360 q 1058 303 1054 331 q 960 149 1013 215 q 912 92 938 119 q 858 44 886 65 q 799 9 829 22 q 739 -3 769 -4 q 683 15 701 -1 q 657 54 664 31 q 651 106 650 78 q 650 158 651 133 q 602 108 629 136 q 546 56 575 81 q 487 15 517 32 q 432 -1 457 -1 q 371 13 392 -1 q 340 51 350 28 q 328 101 331 74 q 326 153 326 128 q 281 102 306 129 q 230 52 257 75 q 175 14 203 29 q 122 -1 147 -1 q 31 29 58 0 q 1 105 4 58 q 14 212 -3 151 q 56 335 31 272 q 110 460 82 399 q 160 570 139 521 q 189 652 181 619 q 182 690 197 685 q 240 696 214 699 q 285 679 264 693 q 317 628 307 665 q 316 570 324 603 q 293 498 308 538 q 258 415 278 458 q 220 328 239 372 q 187 242 201 285 q 168 161 172 200 q 175 143 165 142 q 203 159 185 144 q 244 197 221 174 q 290 246 267 221 q 333 295 313 271 q 367 335 354 319 q 420 459 392 397 q 469 570 449 521 q 499 652 490 619 q 492 690 507 685 q 550 696 524 699 q 595 679 574 693 q 626 628 617 665 q 626 570 633 603 q 603 498 618 538 q 568 415 588 458 q 530 328 549 372 q 497 242 511 285 q 478 161 482 200 q 484 144 475 143 q 510 158 493 144 q 549 193 526 171 q 593 240 571 215 q 636 289 615 265 q 671 329 657 313 q 725 455 696 393 q 776 567 754 517 q 806 650 797 617 q 799 689 814 683 q 857 694 831 697 q 902 678 881 692 q 933 626 924 664 q 923 534 943 590 q 874 414 903 478 q 818 284 846 350 q 785 160 790 218 q 790 142 782 143 q 812 152 797 142 q 846 181 826 163 q 886 222 865 200 q 999 351 935 274 z "},"‹":{"ha":435,"x_min":-1,"x_max":436,"o":"m 10 426 q 55 508 22 476 q 128 562 88 540 q 212 597 168 583 q 291 625 256 611 q 349 656 326 639 q 369 703 371 674 q 392 664 385 689 q 397 610 399 643 q 379 529 396 576 q 343 479 369 500 q 281 442 317 458 q 206 411 246 425 q 132 382 167 397 q 193 333 161 363 q 256 274 225 304 q 316 217 288 244 q 366 173 344 190 q 401 153 388 156 q 418 169 415 150 q 433 108 431 138 q 429 57 436 83 q 399 13 422 31 q 349 21 382 0 q 274 78 315 42 q 189 157 233 114 q 108 231 144 200 q 45 274 71 263 q 15 257 19 285 q 11 272 14 264 q 7 289 8 279 q 6 310 6 299 q 0 356 1 328 q 10 426 -1 385 z "},"x":{"ha":872,"x_min":-3,"x_max":872,"o":"m 813 350 q 835 356 824 365 q 854 329 846 346 q 872 279 864 310 q 717 96 792 167 q 651 40 685 65 q 583 4 617 15 q 520 -1 550 -7 q 467 38 490 6 q 424 112 446 69 q 376 214 403 154 q 260 92 314 153 q 166 -19 206 32 q 106 -106 126 -69 q 92 -157 86 -143 q 53 -132 68 -149 q 33 -92 39 -117 q 39 -25 26 -67 q 139 140 63 44 q 322 340 215 236 q 289 422 303 388 q 263 483 275 457 q 238 528 250 508 q 208 567 225 549 q 151 432 181 489 q 99 336 122 375 q 44 258 71 290 q 14 275 25 264 q 1 301 4 285 q 11 342 -3 317 q 35 388 21 358 q 68 458 50 418 q 108 544 86 497 q 156 643 131 592 q 188 665 164 656 q 263 654 213 675 q 354 566 315 631 q 429 419 393 501 q 521 512 479 467 q 592 594 563 557 q 635 657 621 631 q 644 693 650 683 q 700 669 679 686 q 725 626 718 654 q 710 550 732 597 q 677 504 699 528 q 625 452 656 481 q 558 390 594 424 q 479 315 521 357 q 509 235 492 271 q 543 172 526 199 q 572 129 560 144 q 586 113 583 114 q 623 125 601 110 q 668 165 644 140 q 716 219 692 189 q 760 276 740 249 q 794 324 779 303 q 813 350 808 344 z "},"y":{"ha":792,"x_min":-3,"x_max":792,"o":"m 717 354 q 749 368 736 374 q 772 349 763 363 q 792 306 783 333 q 693 146 746 217 q 644 85 671 115 q 590 31 618 56 q 530 -9 561 7 q 467 -29 499 -25 q 424 -159 458 -93 q 337 -273 390 -225 q 215 -339 283 -321 q 68 -324 146 -357 q 29 -281 47 -308 q 4 -218 11 -253 q 7 -145 -3 -183 q 51 -70 17 -107 q 151 -3 86 -33 q 321 47 217 28 q 351 132 336 92 q 378 221 365 172 q 339 162 360 192 q 294 108 318 132 q 246 67 271 83 q 194 51 221 51 q 116 78 140 51 q 88 147 92 104 q 97 246 85 190 q 130 360 110 301 q 173 475 150 418 q 212 578 196 532 q 233 654 228 624 q 222 690 238 685 q 278 696 251 699 q 323 678 300 693 q 358 628 346 664 q 352 558 367 603 q 315 458 338 513 q 269 344 292 403 q 238 231 246 285 q 240 197 232 201 q 265 205 249 193 q 303 240 282 217 q 347 290 325 263 q 388 342 368 317 q 418 382 407 367 q 448 484 432 433 q 480 576 464 535 q 513 645 496 617 q 547 681 531 674 q 600 697 576 703 q 642 676 624 692 q 679 628 663 658 q 632 556 656 611 q 583 424 608 501 q 533 254 558 346 q 478 74 507 163 q 520 101 499 83 q 563 140 542 118 q 603 185 583 161 q 640 233 624 210 q 717 354 681 289 m 154 -197 q 229 -176 201 -197 q 271 -131 257 -156 q 292 -64 286 -101 q 215 -85 253 -64 q 154 -131 178 -106 q 128 -176 131 -156 q 154 -197 125 -197 z "},"z":{"ha":789,"x_min":-17,"x_max":789,"o":"m 728 304 q 759 317 747 322 q 778 299 771 313 q 789 257 785 283 q 724 164 758 207 q 658 92 694 128 q 581 40 621 56 q 533 -106 568 -37 q 448 -224 497 -174 q 340 -306 399 -275 q 224 -343 282 -337 q 114 -326 167 -349 q 24 -244 61 -303 q 13 -122 -17 -185 q 53 -66 25 -96 q 134 -6 82 -36 q 265 56 186 25 q 460 114 344 86 q 449 215 461 171 q 434 251 443 233 q 410 283 425 269 q 376 304 396 297 q 329 310 356 311 q 285 294 304 303 q 251 275 265 285 q 222 251 236 264 l 147 257 q 151 286 144 268 q 176 325 158 301 q 235 382 194 349 q 332 482 288 426 q 404 586 376 538 q 320 597 368 610 q 225 513 272 585 q 215 510 225 513 q 192 509 206 507 q 165 520 179 511 q 140 554 150 529 q 157 590 138 561 q 215 648 176 619 q 313 692 254 676 q 447 690 371 708 q 525 650 494 674 q 562 601 550 631 q 544 536 574 572 q 483 458 517 499 q 403 376 449 418 q 456 360 424 372 q 520 324 489 349 q 572 257 551 299 q 589 151 593 215 q 639 197 614 171 q 683 247 664 224 q 728 304 707 275 m 146 -174 q 221 -208 178 -212 q 261 -197 239 -207 q 310 -162 283 -186 q 367 -96 336 -137 q 432 8 397 -54 q 256 -36 328 -10 q 198 -62 225 -47 q 153 -94 171 -76 q 133 -131 136 -111 q 146 -174 129 -151 z "},"{":{"ha":314,"x_min":-6,"x_max":317,"o":"m 60 647 q 5 804 15 736 q 11 920 -6 872 q 69 997 28 968 q 167 1036 110 1025 q 251 1031 224 1046 q 289 994 278 1017 q 297 933 301 969 q 263 934 296 935 q 191 924 229 933 q 126 890 153 914 q 110 818 99 865 q 147 715 135 756 q 163 644 160 674 q 163 594 167 615 q 149 553 158 574 q 117 524 138 532 q 78 513 97 515 q 152 471 133 504 q 169 392 171 438 q 151 298 167 347 q 122 210 136 249 q 126 156 115 176 q 158 122 138 135 q 203 106 178 110 q 252 100 229 101 q 292 100 275 99 q 311 101 308 101 q 308 42 317 69 q 275 1 299 15 q 211 -12 251 -14 q 114 13 171 -11 q 35 83 57 36 q 12 180 13 129 q 25 277 11 231 q 54 349 39 324 q 67 402 69 374 q 56 456 64 431 q 29 513 46 483 q 33 514 31 514 q 42 531 35 517 q 55 565 49 546 q 63 606 61 585 q 60 647 65 628 z "},"|":{"ha":265,"x_min":0,"x_max":265,"o":"m 107 1014 q 161 1036 136 1031 q 207 1035 183 1040 q 246 997 231 1029 q 265 926 264 976 q 256 806 265 875 q 228 656 246 738 q 193 492 211 575 q 160 331 175 410 q 138 190 144 253 q 140 87 132 128 q 174 38 147 46 q 176 19 182 29 q 153 4 169 10 q 115 0 138 -1 q 69 17 92 1 q 28 63 47 32 q 0 147 10 94 q 14 272 1 196 q 43 436 26 349 q 76 616 60 524 q 105 788 93 708 q 119 928 117 868 q 107 1014 121 989 z "},"}":{"ha":314,"x_min":-3,"x_max":319,"o":"m 254 647 q 250 606 247 628 q 259 565 253 585 q 272 531 265 546 q 281 514 278 517 q 285 513 283 514 q 257 456 267 483 q 247 402 249 431 q 260 349 244 374 q 288 277 274 324 q 302 180 303 231 q 279 83 301 129 q 200 13 257 36 q 103 -12 143 -11 q 39 1 63 -14 q 6 42 15 15 q 3 101 -3 69 q 40 99 7 101 q 110 106 74 97 q 174 137 147 114 q 192 210 200 160 q 163 298 178 249 q 145 392 147 347 q 162 471 143 438 q 236 513 181 504 q 197 524 217 515 q 165 553 176 532 q 151 594 156 574 q 151 644 147 615 q 167 715 154 674 q 203 818 179 756 q 201 871 211 850 q 169 904 190 892 q 123 924 149 917 q 74 933 97 931 q 33 934 50 935 q 17 933 17 933 q 25 994 13 969 q 63 1031 35 1017 q 147 1036 90 1046 q 245 997 204 1025 q 303 920 286 968 q 309 804 319 872 q 254 647 299 736 z "},"~":{"ha":1081,"x_min":-4,"x_max":1082,"o":"m 57 247 q 7 300 21 272 q 6 353 -4 324 q 76 413 17 383 q 289 477 179 464 q 504 483 399 490 q 705 453 610 475 q 875 415 800 432 q 999 394 950 399 q 1058 415 1047 390 q 1079 378 1076 397 q 1069 341 1082 361 q 1011 303 1056 321 q 892 306 958 292 q 748 340 825 319 q 587 380 671 361 q 415 396 503 399 q 236 360 326 393 q 57 247 146 328 z "},"‚":{"ha":221,"x_min":-1,"x_max":221,"o":"m 93 125 q 169 50 142 83 q 209 -8 197 17 q 220 -52 221 -33 q 211 -83 219 -71 q 135 -125 192 -114 q 65 -106 96 -115 q 19 -87 39 -97 q 1 -65 -1 -76 q 61 -52 40 -62 q 90 -28 82 -42 q 94 3 97 -14 q 82 39 92 21 q 7 131 60 81 l 93 125 l 93 125 z "},"ƒ":{"ha":663,"x_min":-1,"x_max":663,"o":"m 603 364 q 647 338 632 353 q 661 303 660 324 q 635 256 663 283 q 587 216 624 244 q 494 154 550 188 q 503 82 501 121 q 500 -1 506 43 q 462 -126 493 -64 q 383 -236 431 -187 q 276 -315 336 -285 q 150 -346 217 -346 q 79 -331 108 -346 q 32 -290 50 -315 q 6 -230 14 -264 q 1 -160 -1 -196 q 32 15 8 -75 q 86 191 56 104 q 149 358 117 278 q 206 503 181 438 q 242 617 231 569 q 244 688 254 665 q 299 688 274 693 q 340 665 319 682 q 371 607 361 647 q 362 515 378 579 q 314 365 346 450 q 345 357 326 365 q 385 333 364 349 q 428 292 407 317 q 467 233 450 268 q 536 288 501 256 q 603 364 571 319 m 306 306 q 283 252 300 290 q 244 163 267 214 q 301 169 271 164 q 368 186 332 174 q 346 271 361 238 q 306 306 331 304 m 182 -228 q 260 -202 226 -231 q 317 -127 294 -174 q 353 -24 340 -81 q 369 90 367 33 q 283 60 328 72 q 194 42 239 47 q 161 -56 175 -8 q 143 -142 147 -104 q 147 -203 139 -179 q 182 -228 156 -226 z "},"„":{"ha":464,"x_min":-1,"x_max":464,"o":"m 93 125 q 169 50 142 83 q 209 -8 197 17 q 220 -52 221 -33 q 211 -83 219 -71 q 135 -125 192 -114 q 65 -106 96 -115 q 19 -87 39 -97 q 1 -65 -1 -76 q 61 -52 40 -62 q 90 -28 82 -42 q 94 3 97 -14 q 82 39 92 21 q 7 131 60 81 l 93 125 m 338 125 q 413 50 386 83 q 452 -8 440 17 q 463 -52 464 -33 q 454 -83 463 -71 q 378 -125 435 -114 q 308 -106 339 -115 q 262 -87 282 -97 q 244 -65 242 -76 q 305 -52 283 -62 q 334 -28 326 -42 q 339 3 342 -14 q 326 39 336 21 q 251 131 304 81 l 338 125 z "},"…":{"ha":579,"x_min":-3,"x_max":579,"o":"m 111 10 q 60 25 83 14 q 22 50 40 35 q 1 90 4 65 q 5 137 -3 115 q 25 178 13 158 q 53 215 38 197 q 83 249 69 232 q 117 255 97 265 q 153 224 136 244 q 181 183 169 204 q 192 157 193 163 q 178 128 190 151 q 151 78 167 104 q 111 10 135 47 m 304 10 q 253 25 276 14 q 215 50 233 35 q 194 90 197 65 q 198 137 190 115 q 218 178 206 158 q 247 215 231 197 q 276 249 263 232 q 310 255 290 265 q 346 224 329 244 q 374 183 363 204 q 385 157 386 163 q 372 128 383 151 q 344 78 360 104 q 304 10 328 47 m 497 10 q 446 25 469 14 q 408 50 426 35 q 388 90 390 65 q 391 137 383 115 q 411 178 399 158 q 440 215 424 197 q 469 249 456 232 q 503 255 483 265 q 539 224 522 244 q 567 183 556 204 q 578 157 579 163 q 565 128 576 151 q 538 78 553 104 q 497 10 521 47 z "},"†":{"ha":719,"x_min":0,"x_max":722,"o":"m 690 804 q 717 764 711 786 q 713 720 722 744 q 664 667 704 696 q 626 650 650 656 q 570 642 601 644 q 502 640 539 640 q 426 643 465 640 q 397 504 413 575 q 369 367 382 433 q 347 240 356 300 q 337 133 338 179 q 344 56 336 86 q 375 19 353 26 q 377 1 383 11 q 355 -15 371 -10 q 316 -19 339 -21 q 271 -1 293 -17 q 230 46 249 14 q 201 133 211 78 q 211 233 203 174 q 232 360 219 292 q 258 505 244 429 q 285 654 272 581 q 188 660 235 658 q 106 660 142 663 q 47 650 69 658 q 19 625 24 642 q 3 657 7 639 q 6 694 0 672 q 38 744 11 717 q 151 792 78 783 q 307 797 224 801 q 320 942 318 881 q 308 1029 322 1003 q 363 1053 338 1047 q 408 1050 385 1057 q 447 1011 432 1043 q 467 928 468 988 q 453 785 465 868 q 542 777 500 781 q 616 774 583 774 q 668 782 649 775 q 690 804 688 789 z "},"‡":{"ha":710,"x_min":0,"x_max":713,"o":"m 665 481 q 694 443 688 464 q 694 400 701 425 q 651 344 688 375 q 608 325 636 332 q 545 315 581 318 q 467 311 510 311 q 381 313 425 311 q 363 203 369 254 q 358 114 357 153 q 367 50 358 75 q 396 19 376 25 q 399 1 406 11 q 376 -15 392 -10 q 337 -19 360 -21 q 292 -1 314 -17 q 251 46 269 14 q 222 133 232 78 q 230 214 224 167 q 246 317 236 261 q 162 317 201 318 q 92 313 122 317 q 44 299 63 308 q 24 275 25 290 q 4 307 10 289 q 3 344 0 322 q 31 394 7 367 q 127 443 63 431 q 269 457 192 456 q 279 508 275 482 q 289 561 283 533 q 194 563 239 563 q 114 558 149 563 q 58 545 79 554 q 33 519 36 536 q 14 550 19 532 q 13 588 10 565 q 40 638 17 610 q 151 690 76 678 q 313 701 226 703 q 329 810 322 758 q 339 906 336 863 q 340 981 342 949 q 329 1029 338 1013 q 383 1053 358 1047 q 429 1050 406 1057 q 468 1011 453 1043 q 485 966 481 996 q 487 894 489 936 q 476 802 485 853 q 458 696 468 751 q 542 692 503 693 q 610 693 581 690 q 657 703 639 696 q 676 725 675 710 q 706 688 699 708 q 706 644 713 669 q 663 589 699 619 q 572 560 635 565 q 429 556 508 554 q 419 505 424 531 q 407 453 414 479 q 504 448 458 450 q 585 448 550 446 q 642 457 621 450 q 665 481 664 464 z "},"ˆ":{"ha":729,"x_min":-8,"x_max":729,"o":"m 351 1029 q 449 988 407 1015 q 522 925 490 960 q 579 853 554 890 q 627 786 604 817 q 674 736 650 756 q 729 717 699 717 q 692 700 717 706 q 636 698 671 696 q 547 717 601 700 q 485 750 514 726 q 431 803 457 774 q 381 867 406 833 q 333 931 357 900 q 297 882 319 907 q 251 833 275 857 q 205 786 226 808 q 170 747 183 764 q 158 718 157 729 q 179 704 158 707 q 118 694 149 696 q 62 700 92 693 q 8 728 32 707 q 6 769 -8 742 q 49 828 21 796 q 110 895 76 861 q 169 958 144 929 q 198 1008 193 988 q 174 1033 203 1029 q 189 1036 181 1035 q 206 1038 196 1038 q 226 1039 215 1039 q 274 1041 244 1042 q 351 1029 304 1040 z "},"‰":{"ha":751,"x_min":-4,"x_max":754,"o":"m 701 675 q 749 694 743 701 q 738 661 754 688 q 691 596 722 635 q 626 519 660 557 q 563 450 592 481 q 522 410 533 419 q 487 384 514 403 q 422 339 460 365 q 338 281 383 313 q 246 218 292 250 q 6 53 138 143 q 7 107 -4 74 q 48 179 17 135 q 151 290 79 224 q 294 408 222 354 q 436 508 367 461 q 573 595 506 554 q 701 675 640 636 m 496 176 q 462 82 481 117 q 424 29 443 47 q 389 7 406 11 q 360 4 372 3 l 360 3 q 357 4 358 4 q 349 6 351 4 q 342 8 340 8 q 314 27 329 14 q 292 68 299 40 q 293 140 285 96 q 335 251 301 185 q 337 257 336 254 q 340 263 338 260 q 342 265 342 264 l 343 265 q 374 297 351 285 q 432 306 397 308 q 477 285 463 301 q 497 249 492 268 q 500 210 501 229 q 497 182 499 192 q 496 181 497 182 l 496 176 m 461 171 q 457 228 465 211 q 435 249 449 246 q 408 244 422 251 q 388 226 394 236 q 366 184 378 208 q 348 134 354 160 q 344 84 342 108 q 368 43 347 60 q 406 56 390 40 q 434 94 422 72 q 452 138 446 115 q 461 171 458 160 m 636 303 q 682 282 667 299 q 702 246 697 265 q 705 208 707 226 q 701 181 703 189 l 701 179 q 700 176 701 178 l 700 175 q 667 80 685 115 q 630 27 649 44 q 594 5 611 10 q 565 1 576 0 l 564 1 l 561 1 q 554 4 560 1 l 549 4 q 547 6 547 4 q 519 24 535 11 q 497 65 503 38 q 498 138 490 93 q 540 250 506 183 q 542 256 542 253 q 546 261 543 258 q 547 264 546 261 q 580 294 557 283 q 636 303 603 306 m 665 168 q 661 227 669 210 q 640 247 653 244 q 614 242 628 250 q 593 225 600 235 q 570 182 582 207 q 552 131 558 157 q 549 81 546 106 q 572 40 553 57 q 610 54 594 39 q 638 92 626 69 q 656 135 650 114 q 665 168 663 157 m 117 343 q 89 362 104 349 q 67 403 74 375 q 68 475 60 431 q 110 588 76 519 q 113 592 111 590 q 115 597 114 594 q 117 599 117 599 q 118 601 117 600 q 149 632 126 621 q 207 640 172 643 q 253 619 238 636 q 273 583 268 603 q 276 545 278 564 q 272 517 274 526 q 271 514 271 515 l 271 513 q 237 417 256 451 q 199 364 218 382 q 164 342 181 346 q 135 339 147 338 l 132 339 q 124 340 126 339 q 117 343 115 343 m 164 563 q 141 519 153 543 q 123 469 129 494 q 119 419 117 443 q 143 378 122 394 q 181 392 165 376 q 209 429 197 407 q 227 473 221 451 q 236 506 233 494 q 232 565 240 547 q 210 585 224 582 q 183 580 197 588 q 164 563 169 572 z "},"‘":{"ha":221,"x_min":0,"x_max":222,"o":"m 128 964 l 214 969 q 139 876 161 918 q 126 841 129 858 q 131 808 124 824 q 160 783 139 793 q 219 769 181 772 q 202 749 222 758 q 156 729 182 739 q 86 708 125 718 q 10 750 29 719 q 1 781 1 763 q 12 826 0 800 q 51 887 24 853 q 128 964 79 921 z "},"’":{"ha":221,"x_min":-1,"x_max":221,"o":"m 135 708 q 65 729 96 718 q 19 749 39 739 q 1 769 -1 758 q 62 783 40 772 q 91 808 83 793 q 96 841 99 824 q 83 876 93 858 q 8 969 61 918 l 94 964 q 170 887 143 921 q 209 826 197 853 q 220 781 221 800 q 211 750 219 763 q 135 708 192 719 z "},"“":{"ha":446,"x_min":-1,"x_max":446,"o":"m 233 969 l 319 964 q 394 887 367 921 q 434 826 422 853 q 445 781 446 800 q 436 750 444 763 q 360 708 417 719 q 290 729 321 718 q 244 749 264 739 q 226 769 224 758 q 287 783 265 772 q 316 808 308 793 q 321 841 324 824 q 308 876 318 858 q 233 969 286 918 m 1 771 q 62 784 40 774 q 91 810 83 794 q 96 842 99 825 q 83 878 93 860 q 8 971 61 919 l 94 965 q 170 888 143 922 q 209 828 197 854 q 220 783 221 801 q 211 751 219 764 q 135 710 192 721 q 65 731 96 719 q 19 750 39 740 q 1 771 -1 760 z "},"•":{"ha":181,"x_min":0,"x_max":181,"o":"m 90 514 q 154 488 128 514 q 181 426 181 463 q 154 365 181 390 q 90 339 128 339 q 26 365 53 339 q 0 426 0 390 q 26 488 0 463 q 90 514 53 514 z "},"”":{"ha":446,"x_min":-1,"x_max":446,"o":"m 233 969 l 319 964 q 394 887 367 921 q 434 826 422 853 q 445 781 446 800 q 436 750 444 763 q 360 708 417 719 q 290 729 321 718 q 244 749 264 739 q 226 769 224 758 q 287 783 265 772 q 316 808 308 793 q 321 841 324 824 q 308 876 318 858 q 233 969 286 918 m 1 771 q 62 784 40 774 q 91 810 83 794 q 96 842 99 825 q 83 878 93 860 q 8 971 61 919 l 94 965 q 170 888 143 922 q 209 828 197 854 q 220 783 221 801 q 211 751 219 764 q 135 710 192 721 q 65 731 96 719 q 19 750 39 740 q 1 771 -1 760 z "},"–":{"ha":553,"x_min":-1,"x_max":556,"o":"m 531 483 q 551 458 546 472 q 548 431 556 447 q 510 396 540 415 q 446 381 489 383 q 349 380 403 378 q 238 387 296 382 q 133 392 181 392 q 52 389 85 393 q 15 369 19 385 q 1 390 4 378 q 3 414 -1 400 q 29 446 8 428 q 101 474 54 467 q 202 480 147 481 q 313 474 257 479 q 417 467 369 469 q 495 466 464 464 q 531 483 526 468 z "},"—":{"ha":719,"x_min":0,"x_max":722,"o":"m 690 468 q 717 443 711 457 q 713 416 722 432 q 664 381 704 400 q 581 365 638 368 q 455 365 525 363 q 310 372 385 367 q 173 377 236 376 q 67 374 110 378 q 19 354 25 369 q 3 375 7 363 q 6 399 0 385 q 38 431 11 413 q 131 458 71 451 q 263 465 192 465 q 408 459 333 464 q 543 451 482 454 q 645 451 604 449 q 690 468 686 453 z "},"˜":{"ha":518,"x_min":-3,"x_max":517,"o":"m 25 739 q 3 779 8 758 q 3 819 -3 797 q 39 863 10 842 q 142 907 89 899 q 245 907 194 915 q 340 881 296 899 q 420 850 385 864 q 478 832 456 836 q 508 846 501 828 q 517 817 515 832 q 510 790 517 804 q 482 763 504 775 q 424 767 456 756 q 358 796 393 779 q 283 828 322 813 q 201 843 243 843 q 114 820 158 843 q 25 739 69 797 z "},"›":{"ha":435,"x_min":-1,"x_max":435,"o":"m 428 310 q 426 289 428 299 q 424 272 425 279 q 419 257 421 264 q 390 273 415 283 q 326 231 364 263 q 245 157 289 200 q 160 78 201 114 q 85 21 118 42 q 35 13 51 0 q 5 57 11 31 q 1 108 -1 83 q 15 169 4 138 q 32 153 18 150 q 68 173 46 156 q 119 217 90 190 q 178 274 147 244 q 242 333 210 304 q 303 382 274 363 q 228 411 267 397 q 153 442 189 425 q 91 479 118 458 q 54 529 64 500 q 36 610 36 576 q 43 664 36 643 q 65 703 50 689 q 86 656 64 674 q 144 625 108 639 q 223 597 179 611 q 307 562 267 583 q 380 508 347 540 q 425 426 413 476 q 434 356 435 385 q 428 310 433 328 z "},"œ":{"ha":1111,"x_min":-3,"x_max":1111,"o":"m 565 308 q 580 322 574 319 q 591 322 586 325 q 599 312 596 319 q 606 294 603 304 q 615 236 611 271 q 579 188 603 210 q 526 151 560 168 q 442 132 492 135 q 340 26 392 61 q 246 -22 289 -8 q 150 -35 196 -37 q 95 -17 124 -35 q 44 34 67 0 q 10 119 22 68 q 1 236 -3 169 q 31 386 6 303 q 111 568 57 469 l 126 568 q 142 567 133 568 q 158 565 150 567 q 289 648 229 632 q 394 644 349 664 q 469 578 439 625 q 510 472 499 532 q 511 346 521 411 q 468 225 501 281 q 501 240 483 228 q 533 268 518 253 q 565 308 550 285 m 374 233 q 400 291 389 254 q 415 367 411 328 q 413 443 418 407 q 391 499 408 479 q 344 517 374 519 q 268 478 314 515 q 217 419 232 446 q 202 369 201 392 q 215 327 203 346 q 247 293 228 308 q 374 233 292 257 m 196 65 q 260 81 235 68 q 300 108 285 93 q 326 149 317 125 q 311 151 329 147 q 265 165 293 154 q 207 195 238 176 q 154 243 176 214 q 144 185 146 215 q 147 128 142 154 q 164 84 151 101 q 196 65 176 67 m 1111 300 q 1006 150 1063 217 q 951 95 981 122 q 889 47 922 68 q 819 13 856 26 q 743 0 782 0 q 602 30 660 0 q 510 108 544 60 q 465 219 476 157 q 462 347 453 282 q 500 475 471 413 q 576 587 529 538 q 687 666 622 636 q 831 697 751 696 q 929 667 890 697 q 982 591 968 638 q 983 491 996 544 q 928 391 971 438 q 811 313 886 344 q 626 281 736 281 q 635 211 619 242 q 681 164 647 185 q 789 143 715 143 q 846 156 819 144 q 895 185 872 167 q 938 224 918 203 q 974 268 957 246 q 1039 385 1010 321 q 1070 393 1057 404 q 1093 361 1083 382 q 1111 300 1104 336 m 828 611 q 724 579 763 611 q 664 510 685 547 q 631 410 639 465 q 773 442 717 410 q 854 511 829 474 q 872 580 879 549 q 828 611 865 611 z "},"¡":{"ha":393,"x_min":-1,"x_max":394,"o":"m 40 4 q 1 256 -1 119 q 12 382 1 314 q 47 526 22 450 q 114 684 72 601 q 221 854 156 767 l 313 794 q 193 549 236 675 q 160 435 174 494 q 145 313 147 375 q 154 188 143 250 q 196 65 165 125 q 165 13 189 26 q 113 -4 140 -1 q 40 4 79 -7 m 344 867 q 318 857 336 853 q 282 872 300 861 q 250 897 264 883 q 236 914 236 910 q 242 937 235 918 q 257 976 249 956 q 278 1031 267 1001 q 325 1028 303 1032 q 362 1017 344 1025 q 386 993 379 1010 q 392 960 394 976 q 382 927 389 943 q 364 896 375 911 q 344 867 353 881 z "},"¢":{"ha":629,"x_min":-6,"x_max":629,"o":"m 629 310 q 546 179 592 239 q 503 128 526 154 q 453 78 479 101 q 397 38 426 56 q 336 10 368 19 q 326 -115 325 -65 q 349 -174 328 -164 q 311 -196 331 -192 q 274 -187 294 -199 q 229 -135 253 -176 q 210 -72 215 -108 q 204 8 204 -36 q 81 77 128 26 q 14 196 33 128 q 3 340 -6 264 q 50 485 13 417 q 153 608 88 554 q 313 682 218 661 q 324 798 324 753 q 306 850 325 843 q 351 886 328 879 q 372 888 361 889 q 395 876 383 886 q 419 848 407 867 q 442 799 431 829 q 450 689 454 761 q 493 671 471 683 q 531 639 515 658 q 550 592 546 619 q 539 532 554 565 q 524 520 536 526 q 497 510 513 514 q 463 508 481 507 q 429 522 444 510 q 397 344 415 436 q 363 164 378 251 q 442 212 406 181 q 507 275 479 243 q 564 353 539 311 q 596 367 583 372 q 615 350 608 363 q 629 310 624 335 m 283 529 q 221 442 246 492 q 186 343 196 393 q 184 249 176 293 q 217 178 192 204 q 247 356 229 265 q 283 529 265 446 z "},"¤":{"ha":794,"x_min":0,"x_max":794,"o":"m 775 75 q 792 35 790 50 q 790 14 794 21 q 772 1 785 6 q 706 67 736 36 q 654 116 679 92 q 621 150 629 140 q 589 128 604 136 q 564 117 574 119 l 564 115 l 561 115 l 556 113 l 556 114 q 436 92 489 94 q 342 99 383 90 q 268 126 300 108 q 214 165 236 144 q 148 91 182 129 q 72 25 114 53 q 34 7 49 8 q 13 10 19 6 q 0 28 4 15 q 69 101 38 68 q 120 153 97 129 q 150 183 143 178 q 163 190 153 186 q 183 200 172 194 q 153 250 164 225 l 151 251 q 147 258 149 253 q 144 267 144 261 q 140 279 143 272 q 135 299 135 292 q 125 345 129 319 q 123 399 121 371 q 135 456 125 428 q 168 507 144 483 q 137 537 153 521 q 107 566 121 553 q 83 590 93 579 q 71 603 74 600 q 58 628 67 608 q 44 667 49 649 q 42 694 39 686 q 65 686 46 703 q 143 619 101 654 q 217 540 185 583 q 308 568 253 560 q 443 569 364 576 q 453 569 447 569 q 465 568 458 569 l 472 568 l 472 567 q 547 529 506 567 q 581 565 563 546 q 617 600 600 583 q 645 629 633 617 q 661 644 657 642 q 687 658 667 649 q 726 672 707 667 q 753 674 744 678 q 744 651 761 671 q 671 566 710 611 q 585 488 632 521 q 613 447 599 469 q 639 399 626 425 q 672 278 671 328 q 657 197 672 229 q 720 141 689 171 q 775 75 751 111 m 501 189 q 572 260 560 222 q 571 331 585 297 q 529 388 557 364 q 481 418 501 413 q 395 426 443 424 q 306 416 347 428 q 237 372 264 404 q 214 274 210 339 q 282 198 240 219 q 366 172 324 176 q 446 176 408 168 q 501 189 483 183 z "},"¦":{"ha":199,"x_min":0,"x_max":200,"o":"m 188 976 q 197 920 200 963 q 183 824 194 878 q 158 709 172 769 q 135 597 144 649 q 127 510 126 546 q 147 468 128 474 q 144 454 154 461 q 115 449 133 447 q 79 468 97 451 q 54 526 61 485 q 62 593 56 553 q 76 680 68 633 q 94 775 85 726 q 110 866 104 824 q 117 940 117 908 q 111 986 118 972 q 140 997 125 994 q 165 997 153 1000 q 188 976 178 993 m 133 356 q 144 299 147 342 q 129 203 140 257 q 104 88 118 149 q 82 -24 90 28 q 74 -112 74 -76 q 94 -153 75 -147 q 91 -167 101 -160 q 63 -173 81 -175 q 26 -153 44 -171 q 0 -94 8 -136 q 8 -28 1 -69 q 23 58 14 13 q 42 153 32 104 q 58 244 51 201 q 65 319 64 288 q 58 364 65 350 q 88 376 72 372 q 112 376 99 379 q 133 356 125 372 z "},"©":{"ha":569,"x_min":-3,"x_max":572,"o":"m 357 376 q 361 394 354 386 q 363 403 368 401 q 311 389 336 407 q 272 346 286 371 q 256 297 257 321 q 275 265 254 274 q 310 264 292 258 q 343 279 328 269 q 378 306 360 290 q 393 300 390 313 q 392 286 394 294 q 346 244 369 261 q 302 219 326 229 q 256 217 278 210 q 213 250 226 226 q 201 301 200 274 q 215 358 201 329 q 252 408 229 388 q 306 437 275 428 q 374 433 338 446 q 386 426 379 432 q 397 411 393 419 q 401 392 401 403 q 390 368 400 381 q 376 365 388 365 q 357 376 364 365 m 386 696 q 480 664 442 694 q 540 584 518 633 q 567 472 561 535 q 560 345 572 410 q 521 219 549 281 q 447 108 493 157 q 340 30 401 60 q 199 0 278 0 q 210 -1 213 0 q 197 -1 207 -1 q 174 -1 186 -1 q 156 -1 161 -1 q 63 28 99 -1 q 13 108 28 58 q 1 219 -3 157 q 24 347 4 282 q 77 475 43 413 q 158 586 111 538 q 262 665 204 635 q 386 696 319 696 m 208 100 q 296 130 256 101 q 367 200 336 158 q 420 290 399 242 q 450 379 442 338 q 461 485 465 444 q 441 544 457 525 q 401 567 425 564 q 351 565 376 571 q 306 544 326 558 q 278 517 286 531 q 236 456 260 494 q 190 370 213 417 q 151 275 167 324 q 133 188 135 226 q 147 124 131 149 q 208 100 164 99 z "},"ª":{"ha":715,"x_min":0,"x_max":715,"o":"m 474 150 q 479 139 472 138 q 499 152 486 140 q 527 183 511 164 q 560 222 543 201 q 650 344 599 272 q 682 359 669 364 q 701 342 694 354 q 715 301 710 326 q 624 150 671 217 q 580 94 603 121 q 532 46 557 67 q 481 12 507 25 q 429 -1 454 -1 q 381 14 399 -1 q 353 51 363 29 q 340 95 344 72 q 333 133 336 118 q 292 87 313 110 q 245 44 271 64 q 187 13 219 25 q 111 -1 154 0 q 49 21 74 -3 q 12 85 24 44 q 1 178 0 125 q 17 292 1 232 q 60 415 32 353 q 132 536 89 478 q 253 658 196 624 q 355 694 310 692 q 429 680 400 697 q 467 646 458 663 l 476 621 q 464 672 486 664 q 514 692 489 689 q 557 682 535 694 q 596 628 579 669 q 600 569 604 604 q 583 492 596 533 q 553 403 571 450 q 519 311 536 357 q 490 224 503 265 q 474 150 476 182 m 147 128 q 164 110 151 110 q 194 124 176 111 q 231 158 211 136 q 272 206 251 181 q 378 353 319 265 q 395 403 388 385 q 410 438 403 422 q 426 469 418 453 q 446 515 435 486 q 432 519 439 517 q 418 525 425 522 q 403 532 411 529 q 400 559 397 546 q 406 583 403 572 q 408 601 410 594 q 393 611 407 608 q 334 581 365 610 q 274 506 303 551 q 219 403 244 460 q 175 294 193 347 q 149 196 157 240 q 147 128 142 151 z "},"«":{"ha":847,"x_min":-1,"x_max":849,"o":"m 132 371 q 193 322 161 351 q 256 263 225 293 q 316 206 288 233 q 366 162 344 179 q 401 142 388 144 q 418 158 415 139 q 433 97 431 126 q 429 46 436 72 q 399 1 422 19 q 349 10 382 -11 q 274 67 315 31 q 189 146 233 103 q 108 220 144 189 q 45 262 71 251 q 15 246 19 272 q 11 261 14 253 q 7 278 8 268 q 6 299 6 288 q 0 345 1 317 q 10 415 -1 374 q 55 497 22 465 q 128 551 88 529 q 212 586 168 572 q 291 614 256 600 q 349 645 326 628 q 369 692 371 663 q 392 653 385 678 q 397 599 399 632 q 379 518 396 565 q 343 468 369 489 q 281 431 317 447 q 206 400 246 414 q 132 371 167 386 m 831 160 q 846 99 843 128 q 842 47 849 74 q 811 3 835 21 q 761 11 794 -10 q 687 68 728 32 q 601 147 646 104 q 520 222 557 190 q 458 263 483 253 q 428 247 432 274 q 424 263 426 254 q 419 279 421 269 q 418 300 418 289 q 413 347 414 318 q 422 417 411 375 q 467 499 435 467 q 540 552 500 531 q 624 588 581 574 q 703 615 668 601 q 761 647 739 629 q 782 693 783 664 q 804 654 797 679 q 810 600 811 633 q 792 519 808 567 q 756 469 782 490 q 694 432 729 449 q 619 401 658 415 q 544 372 579 388 q 606 324 574 353 q 669 265 638 294 q 728 208 700 235 q 778 163 757 181 q 814 143 800 146 q 831 160 828 140 z "},"¬":{"ha":710,"x_min":0,"x_max":710,"o":"m 690 468 q 704 470 699 475 q 710 442 710 465 q 708 301 708 376 q 689 157 707 225 q 668 113 679 124 q 646 103 657 103 q 621 114 633 103 q 628 239 624 183 q 631 286 629 263 q 633 330 632 310 q 636 364 635 350 q 639 382 638 378 q 640 388 639 385 q 643 397 642 392 q 594 378 624 386 q 521 367 564 371 q 263 375 383 356 q 36 414 142 394 q 1 429 1 419 q 20 450 0 439 q 75 472 40 461 q 145 492 110 483 q 210 508 181 501 q 251 514 240 514 q 292 511 261 514 q 366 504 324 508 q 458 494 408 500 q 553 484 507 489 q 635 474 599 479 q 690 468 672 469 z "},"−":{"ha":1157,"x_min":0,"x_max":704,"o":"m 704 451 q 681 407 700 426 q 626 374 663 389 q 521 351 590 358 q 263 360 383 340 q 36 399 142 379 q 1 414 1 404 q 20 435 0 424 q 75 457 40 446 q 145 477 110 468 q 210 492 181 486 q 251 499 240 499 q 283 497 260 499 q 340 491 307 494 q 414 483 374 488 q 494 475 454 479 q 704 451 590 464 z "},"°":{"ha":231,"x_min":-1,"x_max":229,"o":"m 229 872 q 228 871 229 871 l 228 867 q 200 778 217 811 q 164 726 183 744 q 126 702 144 708 q 93 696 107 696 l 92 694 l 89 694 q 79 696 83 694 q 72 697 72 696 q 38 710 57 700 q 9 743 19 719 q 2 807 -1 767 q 38 911 6 847 q 43 921 40 917 q 44 924 43 922 q 78 956 53 943 q 142 971 103 968 q 196 958 178 971 q 222 929 214 946 q 229 896 229 913 q 229 871 229 879 l 229 872 m 97 731 q 139 748 122 732 q 166 785 156 764 q 182 826 176 806 q 189 857 188 846 q 178 908 189 893 q 152 922 167 922 q 122 914 138 922 q 101 896 107 906 q 81 855 92 878 q 65 808 69 832 q 67 764 61 785 q 97 731 72 743 z "},"±":{"ha":785,"x_min":0,"x_max":785,"o":"m 769 374 q 783 343 785 358 q 772 314 782 328 q 743 282 761 299 q 709 297 733 290 q 650 307 685 303 q 573 313 615 311 q 485 317 531 315 q 475 188 481 247 q 460 92 469 128 q 422 44 443 60 q 381 25 401 29 q 342 25 360 21 q 313 36 324 29 q 298 51 301 43 q 303 63 294 58 q 337 83 324 63 q 357 138 350 103 q 367 221 364 174 q 374 319 371 268 q 246 324 304 321 q 151 332 188 326 q 93 378 104 351 q 88 425 82 404 q 110 456 94 446 q 129 457 125 467 q 146 431 126 440 q 200 416 165 421 q 281 409 235 411 q 376 407 326 407 q 381 505 378 457 q 389 591 383 553 q 404 656 394 629 q 431 690 414 682 q 469 705 449 706 q 506 696 489 704 q 543 668 525 686 q 524 633 532 658 q 509 574 515 608 q 499 497 503 539 q 490 408 494 454 q 588 408 540 408 q 673 403 635 407 q 737 393 711 400 q 769 374 763 386 m 36 -85 q 1 -73 1 -81 q 20 -57 0 -65 q 75 -40 40 -49 q 145 -25 110 -32 q 210 -13 181 -18 q 251 -8 240 -8 q 283 -10 260 -8 q 340 -14 307 -11 q 414 -20 374 -17 q 494 -26 454 -24 q 704 -44 590 -35 q 681 -78 700 -62 q 626 -104 663 -92 q 521 -121 590 -117 q 262 -115 382 -129 q 36 -85 142 -100 z "},"²":{"ha":250,"x_min":-1,"x_max":256,"o":"m 217 488 q 231 476 225 482 q 225 447 242 464 q 199 438 218 440 q 157 436 181 436 q 108 437 133 436 q 60 437 82 438 q 26 433 39 436 q 14 424 13 431 q 4 433 8 428 q 0 444 1 438 q 6 460 -1 451 q 17 469 7 465 q 15 478 15 474 q 17 489 14 483 q 49 524 26 503 q 96 567 71 544 q 144 613 121 590 q 181 653 168 636 q 151 658 167 657 q 122 656 136 660 q 95 643 107 653 q 76 615 83 633 q 63 619 69 613 q 51 636 56 626 q 42 661 46 647 q 76 693 53 682 q 128 701 96 701 q 213 675 161 700 q 234 672 224 675 q 247 658 244 668 q 235 626 256 649 q 185 578 215 604 q 123 526 154 553 q 78 479 92 499 q 127 478 101 479 q 173 478 153 478 q 206 479 193 478 q 217 488 218 481 z "},"³":{"ha":328,"x_min":0,"x_max":331,"o":"m 319 658 q 266 631 301 646 q 197 603 231 615 q 245 593 215 600 q 291 571 275 586 q 299 531 307 556 q 233 471 290 507 q 126 434 171 440 q 54 432 82 428 q 0 451 21 438 l 29 497 q 85 472 53 475 q 149 488 113 469 q 232 567 186 507 q 223 577 233 574 q 198 582 213 581 q 167 583 183 583 q 139 581 150 582 q 133 579 136 579 l 132 579 l 69 581 q 60 589 60 583 q 69 600 60 593 q 110 617 79 607 q 176 643 146 628 q 222 672 206 658 q 145 667 185 674 q 86 638 106 660 q 67 638 75 635 q 53 647 60 642 q 40 663 46 653 q 82 685 56 676 q 144 697 106 692 q 242 696 183 701 q 263 694 251 696 q 303 688 281 693 l 308 686 q 326 676 321 682 q 319 658 331 669 z "},"´":{"ha":196,"x_min":0,"x_max":197,"o":"m 21 696 q 4 710 10 700 q 1 733 0 718 q 18 776 3 749 q 93 873 50 829 q 172 954 136 917 q 194 964 190 974 q 192 934 197 954 q 179 891 188 914 q 167 863 171 868 q 139 828 163 856 q 89 772 115 801 q 21 696 58 736 z "},"µ":{"ha":363,"x_min":0,"x_max":363,"o":"m 299 126 q 301 67 296 90 q 321 39 306 43 q 320 23 328 32 q 298 12 313 14 q 266 18 283 10 q 236 54 249 26 q 183 26 213 39 q 115 10 154 14 q 96 10 104 10 q 79 13 88 11 q 99 -25 83 -18 q 95 -45 107 -35 q 65 -53 83 -56 q 26 -27 46 -50 q 0 54 7 -4 q 9 146 1 90 q 27 266 17 201 q 48 397 38 331 q 66 523 58 464 q 75 626 74 582 q 69 688 76 669 q 101 704 86 700 q 127 703 114 707 q 150 675 140 699 q 160 597 164 654 q 143 464 156 539 q 114 306 131 389 q 88 153 97 224 q 87 117 86 138 q 94 81 88 97 q 117 53 101 64 q 160 49 132 43 q 206 72 193 58 q 221 99 218 86 q 219 104 221 103 q 221 122 221 110 q 219 125 219 124 l 219 126 l 221 128 q 229 216 222 164 q 244 325 236 268 q 260 440 251 382 q 272 547 268 497 q 276 635 276 597 q 269 688 276 672 q 300 704 285 699 q 326 704 313 708 q 350 681 340 700 q 362 633 361 667 q 358 553 363 600 q 344 451 353 507 q 325 340 335 396 q 308 231 315 283 q 299 136 300 178 q 299 126 299 136 z "},"¶":{"ha":506,"x_min":0,"x_max":507,"o":"m 493 672 q 505 603 507 654 q 492 483 503 551 q 468 340 482 415 q 446 199 454 264 q 440 91 438 135 q 463 42 442 47 q 458 23 469 33 q 428 14 447 13 q 390 35 410 15 q 361 106 369 54 q 371 217 361 147 q 392 365 381 288 q 413 514 404 442 q 421 632 422 586 q 348 629 392 628 q 260 633 304 631 q 256 543 263 599 q 238 423 249 488 q 216 292 228 358 q 198 170 204 225 q 195 79 192 115 q 217 38 199 43 q 213 19 225 29 q 183 11 201 10 q 145 32 165 13 q 117 103 125 51 q 120 158 117 125 q 128 231 124 192 q 140 314 133 271 q 153 400 146 357 q 107 386 133 386 q 65 397 85 386 q 31 427 46 408 q 8 472 17 446 q 0 528 0 499 q 22 613 0 576 q 75 664 43 650 q 86 674 82 671 q 153 694 108 690 q 248 695 197 697 q 347 689 299 693 q 426 686 394 685 q 443 694 433 690 q 463 696 453 699 q 464 699 464 697 q 465 697 464 697 q 468 696 465 697 q 493 672 483 692 m 175 636 q 174 638 175 638 l 175 638 l 175 636 z "},"·":{"ha":193,"x_min":-3,"x_max":193,"o":"m 111 303 q 60 318 83 307 q 22 343 40 328 q 1 383 4 358 q 5 430 -3 408 q 25 471 13 451 q 53 508 38 490 q 83 542 69 525 q 117 548 97 558 q 153 517 136 538 q 181 476 169 497 q 192 450 193 456 q 178 421 190 444 q 151 371 167 397 q 111 303 135 340 z "},"¸":{"ha":257,"x_min":-1,"x_max":264,"o":"m 254 103 q 240 51 264 71 q 183 20 217 31 q 117 8 150 10 q 74 10 83 6 q 50 25 54 17 q 50 40 46 33 q 67 58 54 49 q 136 50 104 51 q 188 54 164 49 q 218 79 211 60 q 204 103 218 93 q 169 122 190 114 q 124 133 149 129 q 76 140 99 138 q 67 135 71 138 q 61 131 64 133 q 54 126 57 128 q 14 131 28 124 q 1 156 3 138 q 26 218 -1 175 l 63 232 q 50 204 54 218 q 47 182 47 193 q 57 165 46 171 l 88 178 q 156 169 122 178 q 211 147 183 163 q 254 103 239 131 z "},"¹":{"ha":233,"x_min":0,"x_max":239,"o":"m 149 738 q 184 728 171 735 q 204 714 197 721 q 215 694 213 706 q 190 700 207 697 q 151 705 172 703 q 107 706 129 707 q 68 703 85 706 q 38 699 50 699 q 17 703 25 700 q 1 711 7 706 l 0 729 q 21 732 10 731 q 43 735 31 733 q 71 738 56 736 q 68 756 68 743 q 85 789 72 768 q 112 833 97 810 q 141 879 126 856 q 164 922 156 903 q 118 913 138 913 q 97 917 104 911 q 85 929 89 922 q 79 947 79 936 q 94 944 83 944 q 119 947 106 944 q 147 952 132 949 q 174 961 161 956 q 192 969 185 968 q 206 968 200 969 q 215 963 211 967 q 229 951 226 957 q 224 914 239 942 q 187 853 210 886 q 143 789 164 821 q 119 739 122 757 q 135 739 128 739 q 149 738 142 739 z "},"º":{"ha":231,"x_min":-1,"x_max":229,"o":"m 229 872 q 228 871 229 871 l 228 867 q 200 778 217 811 q 164 726 183 744 q 126 702 144 708 q 93 696 107 696 l 92 694 l 89 694 q 79 696 83 694 q 72 697 72 696 q 38 710 57 700 q 9 743 19 719 q 2 807 -1 767 q 38 911 6 847 q 43 921 40 917 q 44 924 43 922 q 78 956 53 943 q 142 971 103 968 q 196 958 178 971 q 222 929 214 946 q 229 896 229 913 q 229 871 229 879 l 229 872 m 97 731 q 139 748 122 732 q 166 785 156 764 q 182 826 176 806 q 189 857 188 846 q 178 908 189 893 q 152 922 167 922 q 122 914 138 922 q 101 896 107 906 q 81 855 92 878 q 65 808 69 832 q 67 764 61 785 q 97 731 72 743 z "},"»":{"ha":847,"x_min":-1,"x_max":849,"o":"m 715 372 q 640 401 679 388 q 566 432 601 415 q 504 469 531 449 q 468 519 478 490 q 449 600 450 567 q 456 654 449 633 q 478 693 463 679 q 499 647 476 664 q 556 615 521 629 q 635 588 592 601 q 719 552 679 574 q 792 499 760 531 q 838 417 825 467 q 847 347 849 375 q 842 300 846 318 q 836 263 839 274 q 832 247 833 254 q 802 264 828 275 q 740 222 776 253 q 658 147 703 190 q 573 68 614 104 q 498 11 532 32 q 449 3 464 -10 q 417 47 424 21 q 414 99 411 74 q 429 160 417 128 q 446 143 432 140 q 481 163 460 146 q 531 208 503 181 q 591 265 560 235 q 654 324 622 294 q 715 372 686 353 m 36 4 q 5 49 11 22 q 1 100 -1 75 q 17 161 4 129 q 33 144 19 142 q 69 165 47 147 q 119 209 90 182 q 178 266 147 236 q 242 325 210 296 q 303 374 274 354 q 228 403 267 389 q 153 433 189 417 q 92 471 118 450 q 56 521 65 492 q 37 601 38 568 q 43 656 36 635 q 65 694 50 681 q 86 648 64 665 q 144 617 108 631 q 223 589 179 603 q 307 553 267 575 q 380 500 347 532 q 425 418 413 468 q 435 348 436 376 q 429 301 433 319 q 424 264 426 275 q 419 249 421 256 q 390 265 415 276 q 326 223 364 254 q 245 149 289 192 q 160 69 201 106 q 85 13 119 33 q 36 4 51 -8 z "},"¼":{"ha":636,"x_min":0,"x_max":640,"o":"m 233 685 q 206 692 225 689 q 163 698 186 696 q 116 699 140 700 q 72 694 92 699 q 40 692 53 690 q 18 696 26 693 q 1 706 8 700 l 0 732 q 22 736 10 733 q 47 739 33 738 q 76 742 61 740 q 72 767 72 751 q 91 811 78 783 q 120 869 104 839 q 151 932 136 900 q 176 989 167 964 q 151 980 164 983 q 128 975 139 976 q 104 981 113 974 q 92 997 96 988 q 86 1022 86 1008 q 103 1019 92 1019 q 130 1020 115 1018 q 160 1027 144 1022 q 188 1040 175 1032 l 188 1042 q 222 1050 210 1054 q 232 1042 228 1047 q 247 1028 243 1038 q 249 999 254 1019 q 231 953 243 979 q 201 898 218 928 q 169 840 185 868 q 142 786 154 811 q 129 744 131 761 q 146 744 138 744 q 161 743 154 744 q 199 731 185 740 q 221 711 214 722 q 233 685 229 699 m 631 335 q 630 297 640 324 q 601 237 619 271 q 558 166 582 203 q 518 97 535 129 q 496 42 501 65 q 508 13 490 18 q 502 4 514 8 q 474 3 490 0 q 444 19 458 7 q 429 60 429 32 q 453 103 435 76 q 489 160 472 131 q 436 163 460 163 q 410 165 413 164 q 368 170 389 168 q 342 190 347 172 q 363 227 346 203 q 398 276 381 251 q 426 322 415 301 q 428 349 438 342 q 457 354 443 353 q 480 354 468 356 q 499 347 492 353 q 503 325 511 342 q 479 287 496 308 q 444 242 463 265 q 417 203 425 219 q 479 199 449 201 q 518 200 510 196 q 556 290 543 246 q 561 349 568 333 q 590 353 576 353 q 613 349 601 353 q 631 335 624 346 m 467 1007 q 504 1053 493 1057 q 516 1015 515 1050 q 509 924 517 981 q 491 811 501 868 q 470 707 481 754 q 454 644 460 660 q 434 598 450 632 q 395 515 418 564 q 345 409 372 467 q 290 293 318 351 q 144 -11 224 156 q 110 42 121 3 q 103 136 100 74 q 139 304 107 199 q 213 503 172 408 q 296 685 253 599 q 383 852 339 772 q 467 1007 426 932 z "},"½":{"ha":613,"x_min":0,"x_max":618,"o":"m 579 72 q 568 61 581 64 q 535 58 556 58 q 489 60 514 58 q 440 61 464 61 q 485 120 454 86 q 547 188 517 154 q 598 249 578 221 q 610 289 618 276 q 596 305 607 300 q 574 310 585 310 q 490 343 522 342 q 438 333 457 344 q 404 293 415 319 q 414 261 408 275 q 424 241 418 250 q 438 235 431 232 q 456 270 444 258 q 483 286 468 282 q 513 288 497 290 q 543 281 529 285 q 507 231 531 260 q 458 174 483 203 q 411 117 433 144 q 379 74 389 90 q 377 60 376 67 q 379 47 378 54 q 367 36 371 43 q 362 17 361 25 q 365 3 363 10 q 375 -10 369 -4 q 388 3 374 0 q 423 8 401 7 q 470 8 444 8 q 519 7 496 7 q 562 9 543 7 q 588 19 581 11 q 597 41 597 31 q 593 58 597 51 q 579 72 588 67 m 161 743 q 146 744 154 744 q 129 744 138 744 q 142 786 131 761 q 169 840 154 811 q 201 898 185 868 q 231 953 218 928 q 249 999 243 979 q 247 1028 254 1019 q 232 1042 243 1038 q 222 1050 228 1047 q 188 1042 210 1054 l 188 1040 q 160 1027 175 1032 q 130 1020 144 1022 q 103 1019 115 1018 q 86 1022 92 1019 q 92 997 86 1008 q 104 981 96 988 q 128 975 113 974 q 151 980 139 976 q 176 989 164 983 q 151 932 167 964 q 120 869 136 900 q 91 811 104 839 q 72 767 78 783 q 76 742 72 751 q 47 739 61 740 q 22 736 33 738 q 0 732 10 733 l 1 706 q 18 696 8 700 q 40 692 26 693 q 72 694 53 690 q 116 699 92 699 q 163 698 140 700 q 206 692 186 696 q 233 685 225 689 q 221 711 229 699 q 199 731 214 722 q 161 743 185 740 m 143 -11 q 108 42 119 3 q 102 136 99 74 q 138 304 106 199 q 211 503 171 408 q 294 685 251 599 q 381 852 338 772 q 465 1007 425 932 q 503 1053 492 1057 q 515 1015 514 1050 q 508 924 515 981 q 490 811 500 868 q 469 707 479 754 q 453 644 458 660 q 433 598 449 632 q 394 515 417 564 q 344 409 371 467 q 289 293 317 351 q 143 -11 222 156 z "},"¾":{"ha":650,"x_min":0,"x_max":654,"o":"m 179 918 q 222 906 196 915 q 263 877 249 896 q 270 827 278 858 q 211 750 263 796 q 114 703 154 711 q 49 700 74 694 q 0 725 18 706 l 26 783 q 76 751 49 754 q 103 755 89 750 q 135 773 118 760 q 170 810 151 786 q 210 872 189 835 q 202 887 211 882 q 179 893 193 892 q 151 894 165 894 q 126 892 136 893 q 121 890 124 890 q 119 889 119 890 l 63 890 q 54 901 54 896 q 63 915 54 907 q 100 936 72 924 q 160 972 133 951 q 201 1008 186 992 q 133 1001 168 1010 q 78 963 97 992 q 60 965 67 960 q 47 978 53 971 q 36 997 42 986 q 75 1025 50 1014 q 131 1040 96 1035 q 219 1039 167 1046 l 218 1039 q 238 1038 228 1039 q 256 1033 246 1036 q 275 1028 265 1031 l 279 1026 q 295 1013 290 1021 q 289 992 300 1004 q 241 955 274 975 q 179 918 208 935 m 644 332 q 644 294 654 321 q 615 234 633 268 q 572 163 596 200 q 532 94 549 126 q 510 38 515 61 q 522 10 504 15 q 516 1 528 6 q 488 1 504 -3 q 458 17 472 4 q 443 57 443 29 q 467 101 449 74 q 503 156 486 128 q 450 160 474 158 q 424 163 426 161 q 382 167 403 165 q 357 188 361 169 q 378 224 361 200 q 412 274 394 249 q 440 319 429 299 q 442 346 451 339 q 471 351 457 350 q 494 351 482 353 q 513 344 506 350 q 517 322 525 339 q 493 284 510 306 q 458 240 476 263 q 431 199 439 217 q 493 195 463 197 q 532 197 524 193 q 554 243 544 219 q 569 287 564 267 q 577 323 575 307 q 575 346 579 339 q 604 350 590 350 q 627 347 615 350 q 644 332 639 343 m 474 1007 q 511 1053 500 1057 q 523 1015 522 1050 q 516 924 524 981 q 498 811 508 868 q 477 707 488 754 q 461 644 467 660 q 441 598 457 632 q 402 515 425 564 q 352 409 379 467 q 297 293 325 351 q 151 -11 231 156 q 117 42 128 3 q 110 136 107 74 q 146 304 114 199 q 219 503 179 408 q 303 685 260 599 q 390 852 346 772 q 474 1007 433 932 z "},"¿":{"ha":535,"x_min":-4,"x_max":536,"o":"m 139 7 q 44 58 75 22 q 4 137 13 93 q 4 228 -4 181 q 27 316 13 275 q 58 385 42 357 q 81 421 74 414 q 111 460 86 429 q 170 533 136 492 q 242 622 204 575 q 313 713 281 669 q 365 789 344 756 q 385 835 385 822 q 392 845 383 846 q 413 835 400 844 q 439 812 425 826 q 463 780 453 797 q 476 746 474 763 q 471 717 479 729 q 422 663 463 704 q 328 564 381 622 q 223 436 276 506 q 135 297 169 367 q 96 164 100 228 q 138 54 92 100 q 246 58 197 26 q 287 99 267 71 q 324 174 307 126 q 354 292 342 221 q 371 464 367 364 q 425 456 400 464 q 465 431 446 449 q 486 379 483 413 q 481 316 488 357 q 456 228 474 275 q 411 135 439 181 q 344 55 383 89 q 254 6 306 21 q 139 7 203 -10 m 486 879 q 460 869 478 865 q 423 883 442 872 q 390 908 404 894 q 376 925 376 921 q 383 948 375 929 q 399 988 390 967 l 421 1043 q 468 1040 446 1044 q 505 1029 488 1038 q 529 1004 522 1021 q 534 971 536 988 q 524 939 532 954 q 506 908 517 924 q 486 879 494 893 z "},"ÿ":{"ha":792,"x_min":-3,"x_max":792,"o":"m 717 354 q 749 368 736 374 q 772 349 763 363 q 792 306 783 333 q 693 146 746 217 q 644 85 671 115 q 590 31 618 56 q 530 -9 561 7 q 467 -29 499 -25 q 424 -159 458 -93 q 337 -273 390 -225 q 215 -339 283 -321 q 68 -324 146 -357 q 29 -281 47 -308 q 4 -218 11 -253 q 7 -145 -3 -183 q 51 -70 17 -107 q 151 -3 86 -33 q 321 47 217 28 q 351 132 336 92 q 378 221 365 172 q 339 162 360 192 q 294 108 318 132 q 246 67 271 83 q 194 51 221 51 q 116 78 140 51 q 88 147 92 104 q 97 246 85 190 q 130 360 110 301 q 173 475 150 418 q 212 578 196 532 q 233 654 228 624 q 222 690 238 685 q 278 696 251 699 q 323 678 300 693 q 358 628 346 664 q 352 558 367 603 q 315 458 338 513 q 269 344 292 403 q 238 231 246 285 q 240 197 232 201 q 265 205 249 193 q 303 240 282 217 q 347 290 325 263 q 388 342 368 317 q 418 382 407 367 q 448 484 432 433 q 480 576 464 535 q 513 645 496 617 q 547 681 531 674 q 600 697 576 703 q 642 676 624 692 q 679 628 663 658 q 632 556 656 611 q 583 424 608 501 q 533 254 558 346 q 478 74 507 163 q 520 101 499 83 q 563 140 542 118 q 603 185 583 161 q 640 233 624 210 q 717 354 681 289 m 154 -197 q 229 -176 201 -197 q 271 -131 257 -156 q 292 -64 286 -101 q 215 -85 253 -64 q 154 -131 178 -106 q 128 -176 131 -156 q 154 -197 125 -197 m 338 924 q 356 933 346 940 q 376 908 367 925 q 391 874 385 892 q 396 851 397 856 q 388 824 396 846 q 371 776 381 801 q 347 711 360 747 q 318 721 332 714 q 297 739 307 728 q 286 772 288 750 q 302 854 283 817 q 338 924 321 892 m 490 924 q 509 933 499 940 q 529 908 519 925 q 544 874 539 892 q 550 851 550 856 q 542 824 549 846 q 525 776 535 801 q 500 711 514 747 q 471 721 485 714 q 450 739 460 728 q 439 772 440 750 q 456 854 436 817 q 490 924 475 892 z "},"×":{"ha":1157,"x_min":1,"x_max":617,"o":"m 608 596 q 585 549 604 576 q 538 490 567 522 q 471 420 508 457 q 392 344 433 383 q 449 235 421 288 q 502 144 478 182 q 546 86 526 106 q 578 76 565 67 q 569 35 578 51 q 547 9 563 19 q 500 6 531 -1 q 451 34 476 11 q 401 92 426 57 q 351 169 376 126 q 300 260 325 213 q 208 172 251 214 q 135 97 165 131 q 92 38 106 63 q 90 4 78 14 q 47 0 67 -4 q 17 16 31 3 q 1 63 3 29 q 22 126 1 90 q 75 203 42 163 q 152 288 108 244 q 242 374 196 331 q 190 476 214 428 q 144 558 165 524 q 108 608 124 592 q 81 617 92 625 q 88 672 79 650 q 114 701 94 692 q 174 692 133 710 q 207 664 189 685 q 246 612 225 643 q 288 541 267 581 q 333 458 310 501 q 412 532 375 497 q 474 594 449 567 q 509 641 499 622 q 510 668 519 660 q 567 678 542 681 q 602 658 588 675 q 608 596 617 642 z "},"÷":{"ha":719,"x_min":0,"x_max":722,"o":"m 690 435 q 717 410 711 424 q 713 383 722 399 q 664 347 704 367 q 581 332 638 335 q 455 331 525 329 q 310 338 385 333 q 173 344 236 343 q 67 340 110 344 q 19 321 25 336 q 3 342 7 329 q 6 365 0 351 q 38 397 11 379 q 131 425 71 418 q 263 431 192 432 q 408 426 333 431 q 543 418 482 421 q 645 417 604 415 q 690 435 686 419 m 393 517 q 349 519 369 515 q 315 531 331 522 q 292 556 299 539 q 287 589 285 572 q 297 622 289 606 q 314 653 304 638 q 332 682 324 668 q 357 692 340 696 q 390 676 374 688 q 420 652 407 665 q 433 635 433 639 q 427 611 433 631 q 414 571 421 592 q 393 517 406 546 m 317 196 q 342 206 325 210 q 375 190 358 201 q 405 167 392 179 q 418 150 418 154 q 412 126 418 146 q 399 86 406 107 q 378 32 390 61 q 333 35 354 31 q 299 46 315 38 q 276 71 283 54 q 272 104 269 88 q 281 137 274 121 q 299 167 289 153 q 317 196 308 182 z "},"˘":{"ha":549,"x_min":-1,"x_max":549,"o":"m 1 894 l 111 993 q 131 858 111 917 q 152 810 139 833 q 185 768 165 786 q 233 740 206 750 q 297 733 260 731 q 347 751 326 739 q 378 780 367 764 q 395 815 390 796 q 401 851 400 833 q 386 944 404 894 q 446 971 417 964 q 497 974 471 978 q 543 946 524 971 q 546 914 549 938 q 529 860 543 890 q 490 799 515 831 q 426 741 464 767 q 335 699 388 715 q 215 685 282 683 q 82 731 126 697 q 19 801 38 765 q 1 894 -1 844 z "},"˙":{"ha":193,"x_min":-3,"x_max":193,"o":"m 111 718 q 60 733 83 722 q 22 758 40 743 q 1 799 4 774 q 5 845 -3 824 q 25 886 13 867 q 53 923 38 906 q 83 957 69 940 q 117 963 97 974 q 153 933 136 953 q 181 892 169 913 q 192 865 193 871 q 178 836 190 860 q 151 786 167 813 q 111 718 135 756 z "},"˚":{"ha":231,"x_min":-1,"x_max":229,"o":"m 229 872 q 228 871 229 871 l 228 867 q 200 778 217 811 q 164 726 183 744 q 126 702 144 708 q 93 696 107 696 l 92 694 l 89 694 q 79 696 83 694 q 72 697 72 696 q 38 710 57 700 q 9 743 19 719 q 2 807 -1 767 q 38 911 6 847 q 43 921 40 917 q 44 924 43 922 q 78 956 53 943 q 142 971 103 968 q 196 958 178 971 q 222 929 214 946 q 229 896 229 913 q 229 871 229 879 l 229 872 m 97 731 q 139 748 122 732 q 166 785 156 764 q 182 826 176 806 q 189 857 188 846 q 178 908 189 893 q 152 922 167 922 q 122 914 138 922 q 101 896 107 906 q 81 855 92 878 q 65 808 69 832 q 67 764 61 785 q 97 731 72 743 z "},"˝":{"ha":446,"x_min":-1,"x_max":446,"o":"m 233 711 q 308 804 286 763 q 321 840 318 822 q 316 872 324 857 q 287 897 308 886 q 226 911 265 907 q 244 931 224 921 q 290 951 264 942 q 360 972 321 963 q 436 931 417 961 q 445 899 444 918 q 434 853 446 879 q 394 794 422 828 q 319 717 367 760 l 233 711 m 135 971 q 211 929 192 960 q 220 897 219 917 q 209 852 221 878 q 170 792 197 826 q 94 715 143 758 l 8 710 q 83 803 61 761 q 96 838 93 821 q 91 870 99 856 q 62 895 83 885 q 1 910 40 906 q 19 930 -1 919 q 65 950 39 940 q 135 971 96 961 z "},"˛":{"ha":221,"x_min":0,"x_max":222,"o":"m 128 267 l 214 272 q 139 179 161 221 q 126 144 129 161 q 131 111 124 126 q 160 85 139 96 q 219 72 181 75 q 202 51 222 61 q 156 32 182 42 q 86 11 125 21 q 10 53 29 22 q 1 84 1 65 q 12 129 0 103 q 51 190 24 156 q 128 267 79 224 z "},"ˇ":{"ha":421,"x_min":0,"x_max":425,"o":"m 218 704 q 162 737 186 714 q 119 788 138 760 q 87 844 101 815 q 59 898 72 874 q 31 938 46 922 q 0 954 17 954 q 21 968 7 964 q 52 969 32 971 q 104 954 72 968 q 140 927 124 946 q 172 884 157 908 q 200 833 186 860 q 228 783 214 807 q 263 842 240 811 q 303 899 285 872 q 328 943 321 925 q 317 965 335 961 q 351 972 335 971 q 383 967 367 972 q 415 946 400 963 q 417 913 425 935 q 392 865 408 892 q 357 811 376 839 q 324 760 338 783 q 307 721 310 738 q 321 700 304 704 q 311 697 317 699 q 290 696 306 696 q 263 694 279 693 q 218 704 246 696 z "},"ı":{"ha":446,"x_min":-4,"x_max":446,"o":"m 386 356 q 417 369 406 375 q 435 350 428 364 q 446 307 442 335 q 347 153 400 219 q 299 97 325 124 q 245 48 274 69 q 188 14 217 26 q 128 1 158 1 q 35 32 64 3 q 1 108 7 61 q 10 215 -4 156 q 47 338 24 275 q 95 463 69 401 q 140 573 121 524 q 165 655 158 622 q 157 693 172 688 q 218 700 190 703 q 265 683 242 697 q 299 631 288 668 q 292 539 308 594 q 252 419 276 483 q 203 289 228 356 q 174 164 179 222 q 178 147 171 147 q 199 156 185 146 q 233 185 214 167 q 274 226 253 204 q 386 356 322 278 m 293 788 q 253 794 271 789 q 220 809 236 800 q 196 835 204 818 q 188 867 188 851 q 193 896 188 882 q 208 924 199 910 q 229 953 218 938 q 258 963 239 965 q 298 953 278 961 q 333 933 318 944 q 349 918 349 922 q 340 893 349 914 q 321 849 332 872 q 293 788 308 821 z "},"ﬁ":{"ha":978,"x_min":-1,"x_max":978,"o":"m 603 364 q 647 338 632 353 q 661 303 660 324 q 635 256 663 283 q 587 216 624 244 q 494 154 550 188 q 503 82 501 121 q 500 -1 506 43 q 462 -126 493 -64 q 383 -236 431 -187 q 276 -315 336 -285 q 150 -346 217 -346 q 79 -331 108 -346 q 32 -290 50 -315 q 6 -230 14 -264 q 1 -160 -1 -196 q 32 15 8 -75 q 86 191 56 104 q 149 358 117 278 q 206 503 181 438 q 242 617 231 569 q 244 688 254 665 q 299 688 274 693 q 340 665 319 682 q 371 607 361 647 q 362 515 378 579 q 314 365 346 450 q 345 357 326 365 q 385 333 364 349 q 428 292 407 317 q 467 233 450 268 q 536 288 501 256 q 603 364 571 319 m 306 306 q 283 252 300 290 q 244 163 267 214 q 301 169 271 164 q 368 186 332 174 q 346 271 361 238 q 306 306 331 304 m 182 -228 q 260 -202 226 -231 q 317 -127 294 -174 q 353 -24 340 -81 q 369 90 367 33 q 283 60 328 72 q 194 42 239 47 q 161 -56 175 -8 q 143 -142 147 -104 q 147 -203 139 -179 q 182 -228 156 -226 m 918 356 q 949 369 938 375 q 967 350 960 364 q 978 307 974 335 q 879 153 932 219 q 831 97 857 124 q 777 48 806 69 q 719 14 749 26 q 660 1 690 1 q 567 32 596 3 q 533 108 539 61 q 542 215 528 156 q 578 338 556 275 q 627 463 601 401 q 672 573 653 524 q 697 655 690 622 q 689 693 704 688 q 750 700 722 703 q 797 683 774 697 q 831 631 819 668 q 824 539 840 594 q 784 419 808 483 q 735 289 760 356 q 706 164 711 222 q 710 147 703 147 q 731 156 717 146 q 765 185 746 167 q 806 226 785 204 q 918 356 854 278 m 825 788 q 785 794 803 789 q 752 809 768 800 q 728 835 736 818 q 719 867 719 851 q 725 896 719 882 q 740 924 731 910 q 761 953 750 938 q 790 963 771 965 q 830 953 810 961 q 865 933 850 944 q 881 918 881 922 q 872 893 881 914 q 853 849 864 872 q 825 788 840 821 z "},"ﬂ":{"ha":1004,"x_min":-1,"x_max":1004,"o":"m 603 364 q 647 338 632 353 q 661 303 660 324 q 635 256 663 283 q 587 216 624 244 q 494 154 550 188 q 503 82 501 121 q 500 -1 506 43 q 462 -126 493 -64 q 383 -236 431 -187 q 276 -315 336 -285 q 150 -346 217 -346 q 79 -331 108 -346 q 32 -290 50 -315 q 6 -230 14 -264 q 1 -160 -1 -196 q 32 15 8 -75 q 86 191 56 104 q 149 358 117 278 q 206 503 181 438 q 242 617 231 569 q 244 688 254 665 q 299 688 274 693 q 340 665 319 682 q 371 607 361 647 q 362 515 378 579 q 314 365 346 450 q 345 357 326 365 q 385 333 364 349 q 428 292 407 317 q 467 233 450 268 q 536 288 501 256 q 603 364 571 319 m 306 306 q 283 252 300 290 q 244 163 267 214 q 301 169 271 164 q 368 186 332 174 q 346 271 361 238 q 306 306 331 304 m 182 -228 q 260 -202 226 -231 q 317 -127 294 -174 q 353 -24 340 -81 q 369 90 367 33 q 283 60 328 72 q 194 42 239 47 q 161 -56 175 -8 q 143 -142 147 -104 q 147 -203 139 -179 q 182 -228 156 -226 m 1004 294 q 908 144 960 211 q 860 90 886 117 q 806 42 835 63 q 747 8 778 21 q 685 -4 717 -4 q 631 6 657 -4 q 583 39 604 17 q 550 95 563 61 q 539 176 538 129 q 565 301 542 226 q 619 460 588 375 q 687 634 651 546 q 750 801 722 722 q 792 943 778 881 q 797 1038 807 1006 q 846 1039 821 1044 q 890 1014 867 1033 q 932 950 913 994 q 932 881 940 926 q 905 775 924 835 q 861 647 886 715 q 810 510 836 578 q 760 381 783 443 q 723 270 738 318 q 706 194 708 222 q 721 165 704 165 q 775 164 743 151 q 840 213 801 175 q 931 339 879 250 l 950 361 q 980 373 969 381 q 996 347 990 365 q 1004 294 1001 326 z "},"Ł":{"ha":1157,"x_min":0,"x_max":0,"o":""},"!":{"ha":397,"x_min":-1,"x_max":400,"o":"m 360 1029 q 397 778 400 914 q 385 652 396 719 q 349 509 375 585 q 281 351 324 433 q 172 182 238 268 l 82 242 q 203 486 158 361 q 235 599 221 539 q 252 721 249 658 q 244 847 256 783 q 204 969 233 910 q 235 1022 210 1008 q 288 1038 260 1035 q 360 1029 321 1039 m 49 169 q 75 179 57 183 q 111 164 93 175 q 143 140 129 153 q 157 122 157 126 q 151 99 157 118 q 136 60 144 81 q 114 6 126 35 q 67 7 89 3 q 30 18 47 10 q 6 43 13 26 q 1 76 -1 60 q 10 109 3 93 q 29 140 18 125 q 49 169 40 156 z "},"\"":{"ha":338,"x_min":-1,"x_max":338,"o":"m 67 1031 q 90 1045 76 1057 q 116 1006 104 1033 q 135 948 128 978 q 142 910 143 918 q 131 863 140 901 q 110 783 121 825 q 79 674 96 733 q 42 689 57 676 q 15 721 26 700 q 1 778 4 742 q 22 915 -1 853 q 67 1031 46 976 m 261 1031 q 285 1045 271 1057 q 310 1006 299 1033 q 330 948 322 978 q 336 910 338 918 q 325 863 335 901 q 304 783 315 825 q 274 674 290 733 q 236 689 251 676 q 210 721 221 700 q 196 778 199 742 q 217 915 193 853 q 261 1031 240 976 z "},"#":{"ha":899,"x_min":1,"x_max":901,"o":"m 850 467 q 897 452 894 464 q 874 424 899 440 q 808 390 850 408 q 722 355 765 371 q 640 327 678 339 q 586 314 601 315 q 546 174 567 242 q 506 44 525 107 q 485 -1 494 6 q 471 10 476 -7 q 461 61 465 26 q 455 138 457 96 q 452 226 453 181 q 453 310 451 271 q 399 309 426 310 q 343 308 372 308 q 303 174 324 238 q 265 47 283 110 q 245 3 254 10 q 231 13 236 -3 q 221 63 225 29 q 215 138 217 96 q 212 225 213 181 q 211 308 211 269 l 1 308 q 26 365 3 338 q 92 414 46 389 q 225 457 138 439 l 228 457 q 250 553 236 497 q 279 674 264 610 l 1 674 q 26 731 3 703 q 92 780 46 754 q 225 822 138 806 q 272 831 249 828 q 319 838 296 835 q 340 922 331 882 q 357 990 350 961 q 374 1054 365 1025 q 406 1019 392 1044 q 426 957 417 997 q 436 847 436 917 q 500 849 468 849 q 564 849 532 849 q 583 927 575 890 q 599 992 592 964 q 614 1050 606 1024 q 646 1015 632 1040 q 667 953 657 993 q 676 843 676 913 q 765 838 722 840 q 850 832 808 835 q 893 823 885 831 q 892 804 901 815 q 857 780 882 793 q 800 753 832 767 q 733 725 768 739 q 667 701 697 711 q 650 588 660 643 q 628 481 640 533 q 742 474 686 478 q 850 467 797 469 m 422 675 q 406 574 415 624 q 386 478 397 525 q 475 482 432 482 q 497 572 485 522 q 522 676 508 622 q 476 676 501 676 q 422 675 450 675 z "},"$":{"ha":626,"x_min":0,"x_max":631,"o":"m 553 960 q 604 885 585 921 q 625 821 619 853 q 604 768 631 789 q 563 745 588 754 q 512 722 538 736 q 465 685 486 708 q 436 617 444 661 q 435 506 428 574 q 475 336 443 438 q 449 199 485 246 q 357 139 414 153 q 345 111 351 126 q 334 80 339 96 q 326 49 329 64 q 326 25 324 35 q 316 -2 333 -3 q 274 10 299 -1 q 204 50 244 24 l 214 139 l 215 139 q 134 162 174 147 q 65 193 94 176 q 17 227 35 210 q 1 260 0 244 q 13 287 4 282 q 33 289 22 292 q 61 274 46 285 q 214 290 153 257 q 262 331 240 304 q 294 400 283 357 q 302 506 304 443 q 278 657 300 569 q 293 746 281 707 q 324 815 306 785 q 364 868 342 846 q 410 907 386 890 l 431 1043 q 481 1033 458 1040 q 515 1016 500 1026 q 529 990 529 1006 q 528 975 529 983 q 526 956 528 967 q 538 958 532 957 q 546 960 543 960 l 553 960 l 553 960 z "},"%":{"ha":594,"x_min":-1,"x_max":594,"o":"m 92 574 q 81 576 83 574 q 53 590 68 581 q 25 619 38 600 q 6 667 13 638 q 1 742 -1 697 q 20 847 4 786 q 71 989 36 908 q 75 990 72 989 q 81 992 78 992 q 88 993 83 992 q 106 1019 94 1006 q 135 1047 117 1033 q 209 1069 179 1069 q 258 1055 239 1069 q 285 1016 276 1040 q 296 966 293 992 q 297 917 299 940 q 294 883 296 894 l 294 881 q 293 876 293 878 l 293 875 q 249 716 274 775 q 199 625 225 657 q 148 583 172 593 q 107 572 124 572 l 107 571 l 103 571 q 92 574 100 571 m 243 858 q 234 950 246 925 q 205 976 222 975 q 169 963 188 978 q 138 935 150 947 q 115 867 131 908 q 91 783 100 826 q 85 699 82 739 q 117 636 88 660 q 170 665 147 638 q 208 730 193 693 q 232 803 224 767 q 243 858 240 840 m 453 1014 q 480 1056 471 1050 q 490 1046 489 1061 q 487 997 492 1031 q 474 924 482 964 q 456 838 467 883 q 435 753 446 793 q 416 684 425 714 q 403 642 407 654 q 383 596 399 629 q 345 515 367 563 q 297 412 324 468 q 244 299 271 356 q 106 3 182 165 q 85 61 89 19 q 91 160 82 96 q 136 328 100 224 q 211 525 171 432 q 292 703 251 618 q 374 865 333 788 q 453 1014 415 942 m 590 325 l 590 318 l 589 318 q 546 160 571 219 q 495 68 521 100 q 445 26 469 36 q 404 15 421 15 l 403 15 l 399 15 q 388 17 392 15 q 383 17 385 17 q 381 18 382 18 q 378 19 379 18 q 335 45 358 25 q 302 111 313 65 q 303 234 292 157 q 367 433 315 311 q 372 435 369 433 q 378 435 375 435 q 385 436 381 436 q 431 490 399 467 q 505 514 475 514 q 553 499 535 514 q 581 460 572 485 q 592 410 589 436 q 593 360 594 383 q 590 326 592 338 l 590 325 m 413 81 q 467 108 444 81 q 506 173 490 136 q 529 247 521 210 q 540 301 538 283 q 530 393 542 368 q 501 419 518 418 q 465 406 483 421 q 433 379 446 392 q 412 312 426 353 q 388 227 397 271 q 381 144 378 183 q 413 81 383 104 z "},"&":{"ha":718,"x_min":-1,"x_max":717,"o":"m 717 536 q 701 496 717 514 q 662 463 685 478 q 614 439 639 449 q 571 424 589 429 q 519 325 553 383 q 443 208 486 267 q 349 98 400 149 q 244 22 299 47 q 135 6 190 -3 q 26 75 79 14 q 4 150 10 106 q 6 245 -1 194 q 35 350 14 296 q 94 454 57 404 q 150 519 122 493 q 206 561 178 544 q 165 631 176 586 q 160 731 153 676 q 194 842 167 785 q 272 947 222 899 q 390 1029 333 1008 q 492 1048 446 1050 q 568 1029 538 1046 q 607 999 599 1013 q 624 944 626 971 q 613 904 621 918 q 598 899 608 897 q 576 904 588 900 q 549 918 563 910 q 543 939 542 929 q 546 957 544 949 q 547 971 547 965 q 535 979 546 976 q 482 965 510 983 q 428 916 454 947 q 378 845 401 885 q 338 765 356 806 q 312 689 321 725 q 306 631 303 653 q 323 608 313 615 q 344 599 333 601 q 372 594 357 594 q 369 565 372 579 q 364 544 367 554 q 354 531 361 533 l 353 531 l 350 531 q 313 518 329 526 q 267 470 289 501 q 224 400 244 439 q 188 317 204 361 q 163 235 172 274 q 151 163 154 196 q 156 114 149 131 q 228 81 182 68 q 272 104 247 86 q 330 160 297 122 q 402 258 363 197 q 489 410 442 319 q 428 396 461 406 q 367 369 396 386 q 318 326 338 351 q 297 263 299 300 q 285 258 290 251 q 274 278 279 264 q 265 309 269 292 q 258 339 261 326 q 255 370 256 350 q 270 412 254 390 q 325 453 286 433 q 439 485 364 474 q 561 505 514 497 q 635 521 608 513 q 669 539 661 529 q 675 565 678 549 q 694 579 686 576 q 708 572 701 581 q 717 536 715 564 z "},"'":{"ha":143,"x_min":-1,"x_max":143,"o":"m 79 688 q 42 703 57 690 q 15 735 26 714 q 1 792 4 756 q 22 928 -1 867 q 67 1044 46 990 q 90 1059 76 1071 q 116 1019 104 1047 q 135 962 128 992 q 142 924 143 932 q 131 877 140 915 q 110 797 121 839 q 79 688 96 747 z "},"(":{"ha":388,"x_min":-6,"x_max":396,"o":"m 381 867 q 337 812 371 850 q 266 717 303 774 q 201 588 229 660 q 177 435 174 517 q 226 263 181 353 q 381 81 271 172 q 380 51 386 64 q 360 31 374 39 q 328 19 347 24 q 289 13 310 14 q 176 11 242 7 q 54 206 94 110 q 4 393 14 303 q 9 567 -6 483 q 51 721 24 650 q 253 1035 117 889 q 332 974 299 1004 q 378 919 360 947 q 381 867 396 890 z "},")":{"ha":382,"x_min":-1,"x_max":386,"o":"m 200 6 q 90 4 136 -1 q 53 10 71 6 q 22 23 35 15 q 4 42 10 31 q 4 72 -1 54 q 158 261 113 168 q 209 438 204 354 q 189 594 214 522 q 130 724 164 667 q 63 820 96 782 q 21 875 31 858 q 26 928 7 899 q 72 986 44 958 q 150 1050 104 1018 q 338 732 279 901 q 374 576 363 660 q 375 399 386 492 q 322 206 364 306 q 200 6 281 107 z "},"*":{"ha":529,"x_min":0,"x_max":536,"o":"m 503 824 q 526 813 536 821 q 487 797 517 806 q 418 780 457 788 q 354 768 379 772 q 399 714 378 740 q 442 664 421 688 q 454 640 457 646 q 438 638 451 635 q 403 651 425 642 q 360 673 382 661 q 319 696 339 685 q 290 714 300 707 q 281 660 286 686 q 271 610 276 635 q 260 588 267 582 q 245 616 253 593 q 231 669 238 639 q 222 724 225 700 q 168 694 201 711 q 108 666 135 676 q 69 657 81 656 q 81 682 57 658 q 122 726 100 703 q 167 772 143 749 l 0 781 q 21 806 4 794 q 65 824 36 815 q 147 839 94 833 q 158 840 153 839 q 168 840 163 840 q 130 882 149 861 q 96 918 111 903 q 64 953 79 936 q 94 963 75 963 q 136 952 110 963 q 201 913 163 942 q 236 886 221 900 q 242 941 239 914 q 249 990 246 968 q 256 1038 253 1015 q 279 1022 268 1036 q 297 988 289 1011 q 307 919 304 964 q 308 908 307 913 q 308 896 308 903 q 339 918 322 907 q 408 956 381 946 q 451 965 435 965 q 481 957 469 965 q 440 919 461 939 q 400 881 422 903 q 354 839 378 860 q 431 831 394 836 q 503 824 468 826 z "},"+":{"ha":700,"x_min":-3,"x_max":700,"o":"m 685 354 q 699 324 700 339 q 688 294 697 308 q 658 263 676 279 q 624 277 649 271 q 565 288 600 283 q 488 294 531 292 q 400 297 446 296 q 394 168 396 228 q 382 72 392 108 q 322 13 356 25 q 261 5 289 0 q 219 24 233 10 q 218 43 206 38 q 252 63 239 43 q 272 119 265 83 q 283 201 279 154 q 289 300 286 249 q 161 304 219 301 q 67 313 103 307 q 8 358 19 332 q 3 406 -3 385 q 25 437 10 426 q 44 438 40 447 q 61 414 42 421 q 115 405 81 407 q 196 403 150 403 q 292 403 242 403 q 297 498 293 453 q 306 578 300 543 q 323 636 313 613 q 350 668 333 660 q 388 683 368 683 q 422 675 407 682 q 458 649 440 667 q 440 616 447 639 q 427 560 432 593 q 419 485 422 526 q 411 399 415 444 q 508 397 461 399 q 591 389 554 394 q 653 375 628 383 q 685 354 678 367 z "},",":{"ha":221,"x_min":-1,"x_max":221,"o":"m 93 125 q 169 50 142 83 q 209 -8 197 17 q 220 -52 221 -33 q 211 -83 219 -71 q 135 -125 192 -114 q 65 -106 96 -115 q 19 -87 39 -97 q 1 -65 -1 -76 q 61 -52 40 -62 q 90 -28 82 -42 q 94 3 97 -14 q 82 39 92 21 q 7 131 60 81 l 93 125 l 93 125 z "},"-":{"ha":704,"x_min":0,"x_max":704,"o":"m 704 451 q 681 407 700 426 q 626 374 663 389 q 521 351 590 358 q 263 360 383 340 q 36 399 142 379 q 1 414 1 404 q 20 435 0 424 q 75 457 40 446 q 145 477 110 468 q 210 492 181 486 q 251 499 240 499 q 283 497 260 499 q 340 491 307 494 q 414 483 374 488 q 494 475 454 479 q 704 451 590 464 z "},".":{"ha":193,"x_min":-3,"x_max":193,"o":"m 111 10 q 60 25 83 14 q 22 50 40 35 q 1 90 4 65 q 5 137 -3 115 q 25 178 13 158 q 53 215 38 197 q 83 249 69 232 q 117 255 97 265 q 153 224 136 244 q 181 183 169 204 q 192 157 193 163 q 178 128 190 151 q 151 78 167 104 q 111 10 135 47 z "},"/":{"ha":415,"x_min":-1,"x_max":415,"o":"m 43 -15 q 8 38 19 -1 q 2 132 -1 69 q 38 300 6 194 q 111 499 71 404 q 194 681 151 594 q 281 848 238 768 q 365 1003 325 928 q 403 1049 392 1053 q 415 1011 414 1046 q 408 920 415 976 q 390 807 400 864 q 369 703 379 750 q 353 640 358 657 q 333 594 349 628 q 294 511 317 560 q 244 405 271 463 q 189 289 217 347 q 43 -15 122 151 z "},":":{"ha":161,"x_min":-1,"x_max":160,"o":"m 63 282 q 86 293 72 303 q 112 261 100 283 q 132 215 124 239 q 140 183 140 190 q 130 147 139 176 q 110 83 121 117 q 81 -3 96 44 q 43 10 60 0 q 16 35 28 18 q 1 81 4 51 q 5 137 -1 110 q 20 189 11 164 q 41 238 29 214 q 63 282 53 261 m 82 674 q 106 685 92 694 q 131 653 119 675 q 151 606 143 631 q 160 575 160 582 q 149 538 158 568 q 129 475 140 508 q 100 389 115 436 q 63 401 79 392 q 35 426 47 410 q 21 472 24 443 q 24 528 18 501 q 40 581 31 556 q 60 629 49 606 q 82 674 72 653 z "},";":{"ha":251,"x_min":-4,"x_max":250,"o":"m 194 247 q 204 151 204 190 q 197 84 204 111 q 178 41 190 57 q 151 17 165 25 q 67 11 117 -3 q 28 57 43 36 q 5 92 14 75 q 4 117 -4 110 q 58 105 36 104 q 96 115 81 106 q 120 140 111 124 q 133 176 129 157 q 135 288 143 222 l 194 247 m 172 674 q 196 685 182 694 q 222 653 210 675 q 242 606 233 631 q 250 575 250 582 q 240 538 249 568 q 221 475 232 508 q 192 389 208 436 q 154 401 171 392 q 127 426 139 410 q 113 472 115 443 q 115 528 110 501 q 130 581 121 556 q 151 629 139 606 q 172 674 163 653 z "},"<":{"ha":435,"x_min":-1,"x_max":436,"o":"m 10 426 q 55 508 22 476 q 128 562 88 540 q 212 597 168 583 q 291 625 256 611 q 349 656 326 639 q 369 703 371 674 q 392 664 385 689 q 397 610 399 643 q 379 529 396 576 q 343 479 369 500 q 281 442 317 458 q 206 411 246 425 q 132 382 167 397 q 193 333 161 363 q 256 274 225 304 q 316 217 288 244 q 366 173 344 190 q 401 153 388 156 q 418 169 415 150 q 433 108 431 138 q 429 57 436 83 q 399 13 422 31 q 349 21 382 0 q 274 78 315 42 q 189 157 233 114 q 108 231 144 200 q 45 274 71 263 q 15 257 19 285 q 11 272 14 264 q 7 289 8 279 q 6 310 6 299 q 0 356 1 328 q 10 426 -1 385 z "},"=":{"ha":710,"x_min":0,"x_max":713,"o":"m 33 403 q 14 451 19 424 q 13 510 10 475 q 40 589 17 544 q 101 650 63 629 q 189 680 140 671 q 292 688 238 689 q 399 684 346 688 q 502 676 453 681 q 590 674 551 672 q 651 688 628 676 q 676 726 675 700 q 706 667 699 700 q 706 599 713 639 q 663 511 699 560 q 583 469 639 479 q 459 460 528 460 q 317 466 390 461 q 181 469 243 471 q 78 454 119 468 q 33 403 36 440 m 665 342 q 694 282 688 315 q 694 215 701 254 q 651 128 688 176 q 572 86 628 96 q 448 76 517 76 q 306 82 379 76 q 170 86 232 88 q 67 71 108 85 q 24 19 26 57 q 4 68 10 40 q 3 126 0 92 q 31 206 7 161 q 118 279 60 258 q 246 303 176 300 q 389 300 315 307 q 523 290 463 293 q 623 297 583 288 q 665 342 663 306 z "},">":{"ha":435,"x_min":-1,"x_max":435,"o":"m 428 310 q 426 289 428 299 q 424 272 425 279 q 419 257 421 264 q 390 273 415 283 q 326 231 364 263 q 245 157 289 200 q 160 78 201 114 q 85 21 118 42 q 35 13 51 0 q 5 57 11 31 q 1 108 -1 83 q 15 169 4 138 q 32 153 18 150 q 68 173 46 156 q 119 217 90 190 q 178 274 147 244 q 242 333 210 304 q 303 382 274 363 q 228 411 267 397 q 153 442 189 425 q 91 479 118 458 q 54 529 64 500 q 36 610 36 576 q 43 664 36 643 q 65 703 50 689 q 86 656 64 674 q 144 625 108 639 q 223 597 179 611 q 307 562 267 583 q 380 508 347 540 q 425 426 413 476 q 434 356 435 385 q 428 310 433 328 z "},"?":{"ha":535,"x_min":-1,"x_max":539,"o":"m 396 1040 q 491 990 460 1025 q 531 910 522 954 q 531 819 539 867 q 508 731 522 772 q 477 662 493 690 q 454 626 461 633 q 424 586 449 617 q 365 514 399 556 q 292 425 331 472 q 222 335 254 378 q 169 258 190 292 q 150 213 149 225 q 133 205 151 196 q 95 235 115 214 q 63 284 75 257 q 64 331 51 311 q 96 366 71 340 q 156 428 121 392 q 233 511 192 465 q 312 608 274 557 q 381 711 350 658 q 427 813 413 764 q 437 908 442 863 q 397 988 432 953 q 289 986 338 1015 q 247 947 268 974 q 210 872 226 919 q 181 754 193 825 q 164 583 168 683 q 110 592 135 583 q 70 616 89 599 q 49 668 51 633 q 54 731 47 690 q 78 819 61 772 q 124 913 96 867 q 190 992 151 958 q 281 1042 229 1026 q 396 1040 332 1057 m 49 168 q 75 178 57 182 q 112 164 93 175 q 144 140 131 153 q 158 122 158 126 q 151 99 158 118 q 136 58 144 79 q 114 4 126 33 q 67 7 89 3 q 30 17 47 10 q 6 43 13 25 q 1 76 -1 60 q 10 108 3 93 q 29 139 18 124 q 49 168 40 154 z "},"@":{"ha":964,"x_min":-3,"x_max":968,"o":"m 963 793 q 940 633 968 725 q 858 444 911 540 q 734 257 806 347 q 581 103 663 167 q 410 12 499 39 q 239 14 322 -15 q 106 102 157 43 q 29 237 54 161 q 1 398 4 313 q 10 565 -3 483 q 47 715 22 646 q 103 831 72 785 q 258 992 181 944 q 403 1038 335 1040 q 530 990 472 1035 q 626 874 588 946 q 680 712 664 803 q 682 526 696 621 q 650 392 671 446 q 605 306 629 339 q 553 259 581 274 q 502 241 526 244 q 458 241 478 238 q 428 249 439 244 q 415 253 421 249 q 385 283 397 263 q 371 331 374 301 q 298 266 339 296 q 213 228 257 236 q 145 263 168 221 q 122 375 122 306 q 145 528 122 444 q 218 689 168 613 q 311 796 267 765 q 391 830 356 826 q 451 819 426 833 q 482 790 475 804 q 486 778 485 783 q 489 768 488 774 q 479 814 496 808 q 515 831 497 828 q 547 823 531 833 q 578 778 564 813 q 581 725 585 758 q 565 650 576 692 q 537 562 553 608 q 505 469 521 515 q 476 383 489 424 q 460 313 464 342 q 540 303 503 281 q 574 333 557 311 q 606 394 590 354 q 635 494 621 433 q 657 640 649 554 q 636 767 657 703 q 613 822 628 793 q 578 881 599 851 q 528 938 557 910 q 463 990 500 967 q 353 972 414 1006 q 235 873 292 939 q 132 717 178 807 q 65 527 86 626 q 58 328 44 428 q 133 143 71 228 q 231 90 182 106 q 326 73 279 74 q 416 83 372 72 q 497 111 460 94 q 667 226 586 151 q 799 418 740 318 q 848 510 824 461 q 891 612 872 558 q 922 720 910 665 q 935 831 933 775 q 949 825 943 829 q 958 814 954 821 q 963 793 963 807 m 239 322 q 264 303 247 293 q 301 340 281 313 q 342 399 321 367 q 381 449 364 432 l 388 454 q 424 569 403 511 q 463 678 446 628 q 443 685 453 679 q 433 690 438 688 q 429 714 428 703 q 432 735 431 725 q 433 751 433 744 q 424 758 432 757 q 380 733 403 760 q 335 665 357 707 q 293 572 313 624 q 260 472 274 521 q 240 382 246 422 q 239 322 233 342 z "},"C":{"ha":681,"x_min":-1,"x_max":681,"o":"m 681 322 q 563 160 629 231 q 499 101 533 129 q 424 49 464 72 q 338 13 383 26 q 240 -1 292 -1 q 109 44 161 -1 q 30 163 57 89 q 1 330 3 236 q 19 522 -1 424 q 80 713 39 619 q 181 880 121 807 q 321 997 242 953 q 494 1042 400 1042 q 594 1016 554 1042 q 656 949 635 990 q 676 854 676 907 q 656 749 676 801 q 640 739 653 743 q 608 734 626 735 q 569 738 589 733 q 533 756 549 743 q 528 791 524 768 q 538 837 532 814 q 547 876 544 860 q 536 893 550 893 q 410 840 469 893 q 306 707 351 788 q 233 533 261 626 q 201 358 206 439 q 220 222 197 276 q 299 164 243 167 q 356 172 328 163 q 409 198 383 182 q 458 235 435 214 q 503 279 482 257 q 592 400 550 332 q 637 421 619 429 q 664 390 654 413 q 681 322 675 365 z "},"D":{"ha":853,"x_min":-7,"x_max":860,"o":"m 92 836 q 249 963 163 914 q 424 1031 336 1013 q 592 1035 511 1049 q 734 972 674 1021 q 827 839 794 924 q 850 631 860 754 q 778 376 839 492 q 633 178 718 261 q 447 47 547 94 q 257 -6 347 -1 q 97 30 167 -11 q 4 165 28 71 q 7 279 -7 217 q 47 406 21 342 q 102 533 72 471 q 153 646 132 596 q 183 730 175 696 q 171 771 190 764 q 174 772 172 771 q 181 776 175 774 q 149 787 165 778 q 121 807 133 796 q 92 836 106 819 m 686 667 q 693 838 713 778 q 628 921 674 899 q 518 935 582 943 q 393 904 454 928 q 282 849 332 881 q 213 793 232 818 q 210 789 210 790 q 253 781 229 792 q 294 725 276 771 q 297 659 304 701 q 274 565 290 617 q 235 456 257 514 q 194 344 214 399 q 159 240 174 289 q 142 157 144 190 q 174 90 142 104 q 258 94 207 75 q 373 162 310 113 q 497 285 436 211 q 608 456 557 360 q 686 667 658 553 z "},"H":{"ha":1043,"x_min":-3,"x_max":1044,"o":"m 954 533 q 964 489 964 508 q 956 456 964 471 q 919 436 947 440 q 869 289 893 360 q 831 160 846 218 q 811 63 815 103 q 822 11 807 24 q 790 0 808 -1 q 752 15 775 1 q 701 72 729 29 q 678 140 683 101 q 676 226 672 179 q 692 324 681 272 q 718 431 703 376 q 622 430 668 431 q 532 428 575 429 q 488 293 510 358 q 452 172 467 228 q 433 74 438 117 q 440 10 428 32 q 379 -7 421 -8 q 281 16 343 -6 q 118 100 218 38 q 4 239 19 168 q 8 301 -3 268 q 57 369 18 335 q 169 436 96 403 q 360 500 242 469 q 408 628 383 563 q 451 761 432 693 q 483 899 471 829 q 497 1040 496 969 q 576 1039 540 1049 q 632 1001 607 1031 q 660 908 657 972 q 653 841 661 882 q 632 749 646 800 q 599 640 618 699 q 561 521 581 582 q 651 526 604 524 q 750 531 697 528 q 809 701 779 618 q 858 850 839 783 q 881 960 878 917 q 857 1013 883 1004 q 919 1043 888 1038 q 948 1042 933 1044 q 977 1028 963 1039 q 1006 999 992 1018 q 1033 950 1021 981 q 1042 880 1044 924 q 1026 781 1039 836 q 995 663 1014 726 q 954 533 976 600 m 281 153 q 283 211 278 179 q 297 278 288 243 q 317 349 306 314 q 339 418 328 385 q 285 396 314 410 q 231 363 256 382 q 192 319 207 343 q 178 269 176 296 q 204 213 181 242 q 281 153 228 183 z "},"M":{"ha":1308,"x_min":-3,"x_max":1313,"o":"m 1301 946 q 1306 878 1313 922 q 1282 774 1299 833 q 1240 644 1265 714 q 1190 502 1215 575 q 1143 356 1165 429 q 1108 218 1121 283 q 1097 99 1096 153 q 1117 8 1097 44 q 1067 -4 1093 -6 q 1015 11 1043 -3 q 958 68 986 25 q 933 157 936 104 q 940 272 929 210 q 971 403 950 335 q 1016 542 992 472 q 1065 677 1040 611 q 1108 801 1089 743 q 1047 691 1090 764 q 949 531 1004 618 q 835 354 894 444 q 727 190 776 264 q 647 68 678 115 q 615 21 615 21 q 589 6 604 7 q 554 16 575 4 q 506 68 533 28 q 495 130 494 88 q 505 228 496 172 q 529 350 514 285 q 561 481 544 415 q 661 817 601 633 q 620 740 649 789 q 555 628 592 690 q 476 497 518 567 q 390 358 433 426 q 169 8 290 197 l 169 4 q 122 3 147 -3 q 76 26 101 8 q 24 86 50 44 q 1 198 -3 135 q 24 335 4 261 q 75 492 44 408 q 135 664 106 575 q 187 847 165 753 q 210 1036 208 940 q 292 1036 256 1046 q 322 1024 307 1032 q 349 1000 338 1015 q 369 962 361 985 q 379 906 378 939 q 364 810 381 868 q 320 676 347 753 q 259 503 293 599 q 194 296 225 407 q 227 347 203 308 q 285 440 251 386 q 357 559 318 494 q 436 689 396 624 q 642 1028 529 842 q 685 1044 653 1043 q 752 1035 718 1046 q 815 1001 786 1024 q 846 946 843 979 q 835 864 847 924 q 801 724 822 804 q 756 553 781 644 q 707 374 731 461 q 751 442 725 400 q 808 535 778 483 q 872 642 839 586 q 938 753 906 699 q 1096 1028 1013 881 q 1133 1044 1106 1042 q 1193 1035 1161 1046 q 1256 1001 1225 1024 q 1301 946 1286 979 z "},"W":{"ha":1172,"x_min":0,"x_max":1176,"o":"m 746 831 q 860 976 803 926 q 967 1036 917 1025 q 1060 1023 1018 1047 q 1128 947 1101 999 q 1166 821 1156 896 q 1165 656 1176 746 q 1099 431 1150 538 q 975 240 1047 325 q 818 96 903 156 q 651 10 733 36 q 497 -3 569 -15 q 379 67 425 8 q 356 139 358 101 q 363 219 354 176 q 391 310 372 263 q 432 413 410 358 q 364 294 400 354 q 290 181 328 233 q 216 88 253 128 q 147 31 179 47 q 112 22 136 22 q 63 36 88 21 q 19 88 38 51 q 0 190 0 125 q 35 313 10 239 q 91 471 60 386 q 155 644 122 556 q 213 810 188 732 q 250 947 238 888 q 254 1035 263 1007 q 311 1047 285 1046 q 356 1038 335 1049 q 389 993 378 1026 q 399 884 410 950 q 359 740 388 818 q 292 576 331 661 q 218 413 253 492 q 160 265 183 333 q 142 151 138 197 q 176 201 147 158 q 247 305 206 244 q 336 433 289 365 q 424 559 383 501 q 491 655 464 617 q 519 693 518 693 q 542 701 529 697 q 568 700 554 704 q 595 683 582 696 q 619 642 608 669 q 622 582 628 619 q 603 499 617 544 q 572 401 590 453 q 535 299 553 350 q 503 203 518 249 q 485 125 489 158 q 510 87 481 92 q 587 103 539 82 q 694 171 635 125 q 813 285 754 217 q 919 444 871 354 q 994 646 968 535 q 1017 815 1021 758 q 992 891 1014 872 q 937 899 971 910 q 869 866 903 889 q 806 817 835 843 q 765 781 776 792 q 755 792 758 783 q 749 808 751 800 q 746 831 746 818 z "},"Y":{"ha":932,"x_min":-6,"x_max":932,"o":"m 699 421 q 760 388 744 404 q 767 372 767 381 q 759 356 768 364 q 728 340 750 347 q 669 325 707 332 q 651 269 658 293 q 638 224 644 244 q 622 182 631 203 q 603 135 614 161 q 528 47 576 79 q 420 3 481 15 q 290 -6 360 -10 q 151 13 221 -3 q 3 100 21 47 q 10 151 -6 122 q 80 214 26 179 q 233 290 133 249 q 490 378 332 331 q 503 413 494 390 q 522 458 511 435 q 540 504 532 482 q 553 539 549 526 q 508 485 535 514 q 449 430 481 456 q 385 387 418 404 q 319 369 351 369 q 231 397 257 369 q 203 468 204 424 q 222 570 203 513 q 268 688 240 628 q 326 808 296 749 q 378 915 356 867 q 408 994 400 963 q 397 1031 415 1025 q 464 1036 433 1039 q 516 1019 490 1033 q 553 968 542 1006 q 551 910 560 943 q 524 838 542 878 q 484 756 507 799 q 440 669 461 713 q 401 583 418 625 q 381 501 385 540 q 391 491 375 479 q 433 533 407 503 q 490 604 458 563 q 549 684 521 646 q 595 749 576 722 q 614 776 614 775 q 684 940 647 872 q 761 1021 721 1007 q 829 1040 799 1044 q 883 1021 860 1036 q 932 975 910 1004 q 871 903 900 957 q 813 774 842 850 q 756 607 785 699 q 699 421 728 515 m 299 113 q 390 157 347 113 q 460 281 432 201 q 297 225 358 249 q 206 183 236 201 q 171 153 176 165 q 176 133 165 142 q 299 113 201 115 z "},"[":{"ha":474,"x_min":-1,"x_max":472,"o":"m 168 133 q 233 128 185 132 q 333 117 281 124 q 465 100 393 110 q 451 60 464 78 q 416 27 440 43 q 347 4 392 11 q 210 2 275 -7 q 85 24 144 11 q 47 22 64 17 q 19 38 29 28 q 2 47 6 42 q 2 59 -1 53 q 15 72 6 65 q 39 86 25 79 q 63 177 56 114 q 70 322 69 240 q 67 496 71 403 q 63 676 64 589 q 64 837 61 763 q 78 956 67 911 q 90 988 65 967 q 100 1000 96 996 q 130 1026 114 1022 q 161 1026 146 1031 q 214 1044 199 1042 q 264 1039 222 1044 q 351 1026 306 1033 q 472 1010 406 1019 q 461 969 472 988 q 431 938 451 954 q 371 915 410 922 q 279 911 324 907 q 194 924 235 915 q 184 815 188 879 q 180 676 181 750 q 179 524 179 603 q 179 374 179 446 q 177 240 179 301 q 171 139 175 179 q 169 136 169 138 q 168 133 169 135 z "},"\\":{"ha":415,"x_min":0,"x_max":417,"o":"m 63 660 q 47 722 57 675 q 26 826 36 769 q 8 940 15 883 q 1 1031 0 996 q 13 1069 1 1065 q 50 1022 24 1072 q 133 867 89 947 q 221 701 178 788 q 304 519 264 614 q 378 319 344 424 q 413 151 410 214 q 407 57 417 89 q 372 4 396 18 q 226 308 292 171 q 171 424 199 367 q 121 531 143 482 q 83 613 99 579 q 63 660 67 647 z "},"]":{"ha":474,"x_min":1,"x_max":481,"o":"m 306 133 q 304 136 304 135 q 303 139 304 138 q 296 240 297 179 q 294 374 294 301 q 294 524 293 446 q 294 676 294 603 q 290 815 293 750 q 279 924 286 879 q 194 911 238 915 q 103 915 150 907 q 42 938 63 922 q 13 969 22 954 q 1 1010 1 988 q 121 1026 67 1019 q 208 1039 167 1033 q 260 1044 250 1044 q 280 1038 265 1043 q 313 1026 294 1033 q 344 1026 328 1031 q 374 1000 360 1022 q 378 994 376 997 q 383 988 381 990 q 394 956 408 967 q 408 837 406 911 q 410 676 411 763 q 406 496 408 589 q 403 322 403 403 q 410 177 404 240 q 435 86 417 114 q 471 58 461 72 q 454 38 481 44 q 427 22 444 28 q 389 24 410 17 q 264 2 329 11 q 126 4 199 -7 q 56 27 81 11 q 21 60 32 43 q 7 100 7 78 q 139 117 78 110 q 191 122 165 119 q 240 127 217 125 q 280 131 263 129 q 306 133 297 133 z "},"^":{"ha":729,"x_min":-8,"x_max":729,"o":"m 351 1029 q 449 988 407 1015 q 522 925 490 960 q 579 853 554 890 q 627 786 604 817 q 674 736 650 756 q 729 717 699 717 q 692 700 717 706 q 636 698 671 696 q 547 717 601 700 q 485 750 514 726 q 431 803 457 774 q 381 867 406 833 q 333 931 357 900 q 297 882 319 907 q 251 833 275 857 q 205 786 226 808 q 170 747 183 764 q 158 718 157 729 q 179 704 158 707 q 118 694 149 696 q 62 700 92 693 q 8 728 32 707 q 6 769 -8 742 q 49 828 21 796 q 110 895 76 861 q 169 958 144 929 q 198 1008 193 988 q 174 1033 203 1029 q 189 1036 181 1035 q 206 1038 196 1038 q 226 1039 215 1039 q 274 1041 244 1042 q 351 1029 304 1040 z "},"_":{"ha":719,"x_min":0,"x_max":722,"o":"m 690 118 q 717 93 711 107 q 713 66 722 82 q 664 31 704 50 q 581 15 638 18 q 455 15 525 13 q 310 22 385 17 q 173 27 236 26 q 67 24 110 28 q 19 4 25 19 q 3 25 7 13 q 6 49 0 35 q 38 81 11 63 q 131 108 71 101 q 263 115 192 115 q 408 109 333 114 q 543 101 482 104 q 645 101 604 99 q 690 118 686 103 z "},"`":{"ha":196,"x_min":-1,"x_max":196,"o":"m 29 861 q 17 890 25 867 q 3 933 8 913 q 1 963 -1 953 q 24 953 4 972 q 103 872 60 915 q 178 775 146 828 q 194 732 193 747 q 192 708 196 717 q 175 694 186 699 q 106 771 136 735 q 56 827 79 800 q 29 861 33 854 z "},"⁄":{"ha":415,"x_min":-1,"x_max":415,"o":"m 43 263 q 8 315 19 276 q 2 410 -1 347 q 38 578 6 472 q 111 777 71 682 q 194 959 151 872 q 281 1126 238 1046 q 365 1281 325 1206 q 403 1327 392 1331 q 415 1289 414 1324 q 408 1198 415 1254 q 390 1085 400 1142 q 369 981 379 1028 q 353 918 358 933 q 333 872 349 906 q 294 789 317 838 q 244 683 271 740 q 189 567 217 625 q 43 263 122 429 z "},"G":{"ha":758,"x_min":0,"x_max":760,"o":"m 710 447 q 731 395 728 433 q 722 308 735 357 q 681 205 710 258 q 606 106 651 151 q 495 32 560 61 q 349 1 431 3 q 274 15 307 1 q 215 51 240 28 q 169 104 189 74 q 133 168 149 135 q 66 169 92 157 q 25 200 40 182 q 0 251 8 221 q 28 279 13 264 q 58 308 40 292 q 97 343 76 324 q 110 502 96 419 q 151 664 124 585 q 222 814 179 743 q 319 938 264 885 q 442 1022 375 990 q 588 1053 508 1053 q 686 1012 647 1053 q 742 910 725 971 q 758 782 760 850 q 733 661 756 714 q 709 642 726 644 q 670 648 692 640 q 626 669 649 656 q 589 694 604 682 q 585 745 579 707 q 601 824 592 783 q 615 898 611 865 q 606 931 619 931 q 476 888 535 929 q 375 781 417 847 q 313 633 333 715 q 296 467 292 550 q 474 498 397 497 q 604 488 551 499 q 710 447 665 474 m 385 168 q 473 183 432 168 q 547 220 514 197 q 604 270 581 243 q 640 319 628 297 q 650 356 651 342 q 632 371 649 371 q 486 374 554 378 q 427 368 457 372 q 370 357 397 364 q 320 340 343 350 q 283 314 297 329 q 312 210 288 251 q 385 168 336 169 z "},"O":{"ha":782,"x_min":-1,"x_max":785,"o":"m 510 1043 q 657 999 599 1043 q 746 882 715 954 q 781 717 776 810 q 765 528 785 625 q 701 338 744 431 q 593 172 657 246 q 446 53 529 99 q 261 4 363 7 q 117 44 174 1 q 31 159 60 88 q 1 323 3 231 q 20 513 -1 415 q 85 705 42 611 q 191 873 128 799 q 335 994 254 947 q 510 1043 415 1040 m 296 157 q 449 188 385 154 q 556 277 513 222 q 624 400 599 332 q 663 534 650 468 q 681 656 676 600 q 686 742 685 711 q 651 592 689 663 q 540 458 614 521 q 488 424 521 442 q 423 408 456 406 q 365 446 390 411 q 335 569 340 481 q 449 580 400 558 q 528 641 497 601 q 574 729 560 681 q 586 821 588 778 q 567 893 585 864 q 517 922 549 922 q 371 866 435 922 q 264 725 307 810 q 200 542 221 640 q 182 358 179 443 q 213 215 185 272 q 296 157 240 158 z "},"N":{"ha":865,"x_min":-4,"x_max":868,"o":"m 856 958 q 865 875 868 928 q 847 756 861 822 q 811 615 832 690 q 767 463 790 539 q 724 315 744 388 q 690 183 703 243 q 675 77 678 122 q 688 13 672 32 q 646 4 668 1 q 601 23 626 7 q 547 82 575 39 q 531 151 533 107 q 535 247 529 194 q 552 360 540 300 q 579 478 564 419 q 667 771 614 615 q 648 738 667 771 q 599 651 629 704 q 527 528 568 597 q 442 388 486 460 q 353 249 397 317 q 269 127 308 181 q 200 41 231 74 q 153 8 169 8 q 110 3 133 -1 q 65 23 90 6 q 15 82 40 40 q 3 192 -4 129 q 31 330 10 256 q 84 489 53 404 q 144 665 115 574 q 195 850 174 756 q 218 1040 217 944 q 297 1040 261 1050 q 353 1003 328 1032 q 381 908 378 974 q 367 803 382 871 q 329 651 353 735 q 278 476 306 568 q 225 300 250 385 q 258 351 233 313 q 315 442 282 389 q 386 558 347 494 q 464 685 425 621 q 665 1017 556 835 q 699 1040 675 1032 q 753 1044 724 1049 q 810 1020 782 1040 q 856 958 839 1000 z "},"S":{"ha":675,"x_min":0,"x_max":676,"o":"m 536 1042 q 601 1026 575 1042 q 643 985 628 1011 q 665 927 658 960 q 674 860 672 894 q 653 678 676 779 q 575 669 607 668 q 549 673 561 669 q 531 683 538 676 q 522 700 524 689 q 528 728 521 711 q 564 785 556 753 q 568 848 572 818 q 551 899 564 878 q 525 919 539 919 q 422 876 451 915 q 397 758 392 836 q 440 560 403 679 q 538 278 476 440 q 567 114 578 175 q 514 25 557 53 q 404 -1 471 -3 q 265 25 338 1 q 125 90 193 49 q 13 182 57 131 q 0 206 0 194 q 8 228 0 218 q 28 247 15 239 q 58 261 42 254 q 151 286 96 276 q 351 124 281 158 q 402 113 382 108 q 422 154 422 118 q 398 265 422 190 q 314 467 374 340 q 265 663 269 578 q 282 813 261 749 q 341 920 303 876 q 419 991 379 964 q 492 1030 458 1018 q 536 1042 525 1042 z "},"J":{"ha":733,"x_min":-1,"x_max":733,"o":"m 728 594 q 660 311 704 426 q 562 123 617 196 q 446 13 507 50 q 327 -34 385 -24 q 219 -35 269 -44 q 139 -6 169 -25 q 78 99 90 33 q 110 248 67 164 q 263 429 154 332 q 561 631 371 526 q 570 685 565 653 q 575 752 575 717 q 569 824 575 788 q 547 889 564 860 q 501 938 531 918 q 425 961 472 957 q 283 922 338 957 q 202 842 229 886 q 171 758 175 799 q 176 700 167 717 q 107 708 139 703 q 56 716 79 711 q 25 726 32 721 q 1 761 3 735 q 16 824 -1 788 q 69 899 33 860 q 155 973 104 939 q 272 1031 206 1007 q 417 1058 338 1054 q 571 1039 503 1072 q 628 998 600 1024 q 679 929 657 972 q 716 824 701 886 q 733 675 731 761 l 728 594 m 243 125 q 341 159 290 125 q 435 249 392 193 q 511 378 479 306 q 553 529 543 451 q 450 470 500 508 q 357 387 400 432 q 282 295 314 342 q 233 210 250 249 q 217 149 217 172 q 243 125 218 125 z "},"V":{"ha":818,"x_min":-3,"x_max":818,"o":"m 818 922 q 673 753 744 849 q 536 556 601 657 q 413 358 471 456 q 310 182 356 260 q 231 56 264 104 q 183 4 199 7 q 185 3 185 4 q 132 -6 158 -8 q 81 13 108 -3 q 28 71 53 28 q 0 189 -3 124 q 24 330 3 254 q 80 490 46 406 q 146 663 114 574 q 201 847 178 753 q 226 1036 225 940 q 306 1035 269 1044 q 361 997 336 1026 q 389 904 386 968 q 372 798 390 867 q 325 644 353 729 q 266 467 297 560 q 210 290 235 375 q 388 601 308 472 q 531 815 468 729 q 639 949 593 900 q 715 1019 685 997 q 759 1042 744 1042 q 774 1035 774 1043 q 799 1017 790 1035 q 813 978 808 999 q 818 922 818 953 z "},"U":{"ha":767,"x_min":0,"x_max":768,"o":"m 765 931 q 745 791 768 876 q 690 608 722 706 q 622 409 657 510 q 565 224 588 308 q 542 82 543 140 q 575 11 540 24 q 503 -3 539 -3 q 440 10 472 -3 q 385 60 408 22 q 379 78 381 65 q 377 104 378 90 q 376 131 376 118 q 374 151 375 144 q 265 53 314 85 q 178 12 217 21 q 113 11 140 3 q 67 33 85 19 q 40 60 49 47 q 31 74 31 74 q 2 175 4 114 q 14 308 0 236 q 53 460 28 381 q 106 619 78 540 q 159 769 133 697 q 199 897 185 840 q 213 990 214 954 q 188 1035 213 1026 q 274 1043 235 1049 q 306 1033 290 1040 q 335 1010 322 1025 q 356 972 347 996 q 367 915 365 949 q 350 805 368 874 q 305 656 332 736 q 249 494 278 576 q 199 343 219 411 q 174 230 179 275 q 190 179 168 185 q 297 207 242 167 q 348 254 321 224 q 403 333 375 285 q 463 449 432 381 q 522 611 493 517 q 550 693 535 649 q 579 782 565 738 q 604 868 593 826 q 619 944 615 910 q 616 1003 622 979 q 590 1035 610 1026 q 675 1051 638 1054 q 707 1044 692 1050 q 735 1024 722 1038 q 756 987 747 1010 q 765 931 764 964 z "},"I":{"ha":786,"x_min":-1,"x_max":788,"o":"m 763 1064 q 783 1017 778 1040 q 780 973 788 997 q 740 929 772 949 q 710 922 729 922 q 665 923 690 921 q 611 928 640 925 q 553 932 582 931 q 537 840 550 896 q 504 715 524 783 q 462 570 485 646 q 417 420 439 494 q 378 277 396 346 q 351 154 360 208 q 423 147 393 150 q 474 143 453 143 q 513 149 496 143 q 546 172 529 156 q 572 132 565 154 q 575 87 579 113 q 543 31 571 61 q 487 4 525 10 q 401 1 449 -1 q 299 8 353 3 q 195 13 244 13 q 104 7 146 14 q 40 -22 63 0 q 11 19 21 -4 q 0 65 1 39 q 15 118 -1 90 q 44 143 26 135 q 86 154 63 151 q 138 156 110 157 q 199 156 167 156 q 225 318 203 228 q 277 510 247 408 q 338 720 307 611 q 389 938 368 829 q 313 938 346 940 q 256 928 281 936 q 210 908 231 921 q 171 879 189 896 q 149 913 156 894 q 142 951 142 928 q 160 1001 143 974 q 201 1036 174 1024 q 265 1054 229 1049 q 342 1059 300 1060 q 428 1056 385 1058 q 449 1055 438 1056 q 471 1051 460 1054 q 572 1042 519 1047 q 667 1035 624 1036 q 737 1040 710 1035 q 763 1064 764 1046 z "},"B":{"ha":731,"x_min":1,"x_max":735,"o":"m 442 564 q 503 549 469 565 q 565 506 536 533 q 614 442 594 479 q 636 365 633 406 q 612 217 642 285 q 526 100 582 149 q 392 25 469 51 q 222 1 314 -1 q 176 10 213 1 q 101 38 140 18 q 32 88 63 57 q 1 165 1 119 q 24 290 1 215 q 81 451 47 365 q 151 626 114 536 q 218 793 189 715 q 260 929 247 871 q 260 1013 274 988 q 325 1033 293 1028 q 381 1034 353 1039 q 428 1004 408 1029 q 513 1019 467 1022 q 610 1004 560 1015 q 688 958 658 994 q 726 873 717 922 q 722 769 735 824 q 675 670 710 715 q 582 594 640 625 q 442 564 524 564 m 574 933 q 504 941 546 947 q 428 907 463 935 q 395 774 418 850 q 332 608 372 699 q 459 637 407 613 q 542 695 511 661 q 588 768 574 729 q 605 841 603 807 q 598 901 607 875 q 574 933 589 926 m 325 118 q 376 163 350 131 q 422 235 401 194 q 454 319 442 275 q 467 402 467 364 q 451 468 467 440 q 401 504 436 496 q 380 503 386 507 q 368 491 374 499 q 354 475 363 483 q 328 460 346 467 l 307 460 q 287 460 297 460 q 267 463 276 460 q 224 359 243 410 q 192 263 204 308 q 191 197 185 231 q 214 140 197 164 q 258 107 231 115 q 325 118 286 99 z "},"E":{"ha":818,"x_min":-1,"x_max":822,"o":"m 807 1011 q 816 965 822 1000 q 795 892 810 931 q 765 821 781 853 q 743 782 749 789 q 715 776 738 775 q 667 779 692 776 q 600 790 636 783 q 595 810 592 796 q 606 843 599 825 q 622 880 614 861 q 633 913 631 899 q 629 937 636 928 q 600 943 622 946 q 517 924 560 943 q 436 876 474 906 q 369 809 399 846 q 328 736 340 772 q 322 667 315 700 q 363 615 328 635 q 403 601 383 606 q 439 593 424 596 q 474 590 457 590 q 472 561 475 575 q 465 540 469 550 q 450 526 461 529 q 269 335 335 421 q 223 263 242 299 q 202 197 204 226 q 220 147 200 167 q 290 122 240 126 q 378 151 326 121 q 487 238 422 178 q 638 418 551 299 q 668 419 656 432 q 689 383 681 406 q 706 321 699 358 q 674 258 708 300 q 581 171 639 217 q 449 82 522 125 q 299 16 375 39 q 151 -3 222 -7 q 29 49 81 1 q 1 156 -1 100 q 25 265 3 211 q 83 367 47 318 q 156 456 119 417 q 225 519 193 494 q 271 551 257 544 q 189 609 221 571 q 152 697 157 647 q 176 801 147 746 q 279 911 206 857 q 458 1006 371 978 q 618 1040 546 1035 q 741 1033 690 1044 q 807 1011 792 1022 z "},"P":{"ha":753,"x_min":-4,"x_max":760,"o":"m 543 1026 q 687 953 636 1008 q 749 828 738 899 q 734 685 760 758 q 649 555 708 611 q 501 471 590 499 q 296 465 411 443 q 251 489 275 469 q 201 333 225 410 q 163 190 176 256 q 149 74 149 124 q 172 3 150 25 q 119 -6 146 -8 q 68 13 96 -3 q 15 71 40 28 q 3 171 -4 110 q 31 308 10 232 q 83 472 53 383 q 142 653 114 560 q 192 844 171 747 q 214 1036 213 942 q 263 1040 239 1043 q 304 1028 282 1038 q 342 993 326 1018 q 432 1027 382 1015 q 543 1026 482 1039 m 321 572 q 422 589 375 568 q 505 644 469 610 q 562 719 540 678 q 586 800 583 761 q 571 869 589 839 q 510 910 553 900 q 435 912 472 918 q 365 892 399 906 q 347 787 364 850 q 304 647 329 724 q 321 635 314 643 q 326 613 328 624 q 319 592 324 601 q 314 578 315 583 q 321 572 313 572 z "},"T":{"ha":846,"x_min":-3,"x_max":846,"o":"m 825 997 q 845 957 846 978 q 835 918 844 936 q 804 878 824 897 q 764 897 792 889 q 697 910 736 904 q 608 918 657 915 q 507 924 560 921 q 472 788 499 871 q 413 611 446 706 q 345 419 379 517 q 289 237 311 321 q 260 91 267 153 q 278 7 254 29 q 190 7 228 -4 q 158 22 174 11 q 131 49 143 32 q 113 93 119 67 q 108 157 107 119 q 134 290 110 213 q 194 463 158 367 q 272 676 231 560 q 350 928 314 792 q 205 931 272 929 q 94 935 138 932 q 31 951 51 936 q 3 987 10 965 q 2 1031 -3 1008 q 17 1072 7 1054 q 37 1099 26 1090 q 51 1099 47 1107 q 80 1062 51 1075 q 157 1042 108 1049 q 269 1035 206 1036 q 400 1036 332 1035 q 431 1037 415 1036 q 463 1038 447 1038 q 587 1039 526 1039 q 697 1035 647 1039 q 780 1023 746 1032 q 825 997 814 1014 z "},"F":{"ha":842,"x_min":0,"x_max":842,"o":"m 821 1000 q 841 960 842 981 q 831 921 840 939 q 800 881 819 900 q 760 899 788 892 q 692 913 732 907 q 604 921 653 918 q 504 926 556 924 q 478 822 497 883 q 435 686 460 760 q 510 693 474 690 q 580 696 547 696 q 638 690 613 696 q 676 672 663 685 q 697 633 697 653 q 686 594 696 613 q 656 553 675 574 q 610 579 636 571 q 552 589 585 588 q 480 586 519 590 q 396 575 440 582 q 333 392 364 483 q 281 222 301 300 q 256 85 261 143 q 274 7 251 28 q 192 8 228 -3 q 137 51 161 18 q 115 158 113 83 q 153 324 117 225 q 236 550 190 424 q 175 553 199 547 q 139 572 151 560 q 124 600 126 583 q 124 633 121 617 q 163 728 129 674 q 195 685 163 696 q 279 674 228 674 q 316 799 299 735 q 347 931 333 863 q 201 933 268 932 q 90 938 133 935 q 39 945 58 938 q 10 965 19 953 q 1 991 1 976 q 4 1021 0 1006 q 47 1101 14 1057 q 78 1063 47 1076 q 160 1044 108 1050 q 277 1039 211 1039 q 413 1040 343 1039 l 444 1040 q 573 1042 510 1042 q 687 1038 636 1042 q 774 1026 738 1035 q 821 1000 810 1017 z "},"K":{"ha":819,"x_min":0,"x_max":819,"o":"m 410 492 q 426 341 410 404 q 476 231 442 278 q 563 150 510 185 q 689 85 615 115 q 665 47 688 64 q 606 19 646 32 q 492 0 567 6 q 404 78 446 31 q 331 181 368 118 q 269 333 293 244 q 199 203 228 264 q 152 98 171 143 q 121 28 133 53 q 99 6 108 3 q 53 26 74 11 q 19 65 35 40 q 0 132 3 90 q 29 303 0 213 q 97 504 58 394 q 174 747 136 614 q 226 1044 211 879 q 306 1040 269 1051 q 361 1001 336 1031 q 389 906 386 971 q 385 840 390 868 q 367 774 379 811 q 335 685 354 738 q 290 549 315 633 q 422 719 364 646 q 524 847 479 793 q 600 936 568 900 q 654 994 632 972 q 724 1047 706 1047 q 766 1028 747 1050 q 796 981 785 1007 q 819 910 810 950 q 684 801 756 865 q 551 674 613 738 q 450 559 490 610 q 410 492 410 508 z "},"R":{"ha":639,"x_min":-4,"x_max":642,"o":"m 368 474 q 372 456 371 476 q 381 401 374 436 q 403 320 388 365 q 446 229 418 275 q 518 140 474 183 q 629 67 563 97 q 619 32 632 47 q 583 9 608 19 q 504 -1 557 -1 q 419 33 456 0 q 352 124 383 67 q 293 262 321 182 q 235 439 265 342 q 190 297 211 367 q 159 169 169 228 q 151 68 149 111 q 174 4 153 25 q 121 -4 147 -7 q 69 14 97 -1 q 15 72 42 29 q 3 172 -4 111 q 31 309 10 233 q 83 473 53 385 q 143 655 114 561 q 193 846 172 749 q 215 1038 214 943 q 263 1042 239 1044 q 304 1029 282 1039 q 343 994 326 1019 q 397 1029 367 1019 q 456 1040 426 1039 q 508 1035 485 1040 q 543 1028 532 1031 q 604 975 581 1019 q 635 869 628 931 q 631 738 642 807 q 588 610 619 669 q 501 513 556 551 q 368 474 447 474 m 367 893 q 347 788 364 851 q 306 649 331 725 q 322 636 314 644 q 327 614 329 625 q 321 594 325 603 q 315 579 317 585 q 322 574 314 574 q 446 601 399 568 q 514 682 493 633 q 533 784 535 731 q 510 875 531 838 q 453 922 490 913 q 367 893 415 932 z "},"L":{"ha":646,"x_min":-7,"x_max":646,"o":"m 615 200 q 636 201 629 206 q 644 185 643 196 q 643 160 646 175 q 635 128 640 144 q 597 36 622 89 q 275 -19 413 -14 q 162 -14 217 -22 q 68 19 107 -6 q 11 86 29 43 q 7 197 -7 129 q 21 233 7 199 q 56 324 35 268 q 103 451 78 379 q 153 597 129 522 q 198 745 178 672 q 227 878 218 818 q 233 976 236 938 q 206 1024 229 1015 q 268 1054 236 1050 q 297 1053 282 1056 q 326 1040 311 1050 q 355 1010 340 1029 q 382 960 369 990 q 390 872 396 926 q 366 752 383 818 q 324 611 349 686 q 274 463 299 536 q 227 320 249 389 q 197 196 206 251 q 217 126 193 151 q 294 98 242 100 q 427 120 347 96 q 615 200 507 144 z "},"ð":{"ha":557,"x_min":-4,"x_max":558,"o":"m 472 644 q 532 585 514 621 q 554 515 550 550 q 554 448 558 479 q 547 400 550 417 l 547 397 q 546 390 546 394 q 544 389 546 389 q 456 177 506 256 q 358 59 407 99 q 265 10 310 19 q 189 3 219 0 q 186 1 188 1 q 178 3 182 1 q 169 4 174 4 q 158 7 165 4 q 147 11 151 10 q 140 13 142 13 q 92 35 118 19 q 44 78 65 51 q 9 146 22 106 q 1 244 -4 186 q 35 378 7 301 q 124 556 64 456 q 129 566 126 560 q 138 579 132 572 q 140 583 139 582 q 142 586 140 583 l 143 586 q 227 654 167 629 q 376 674 288 679 q 337 719 354 699 q 315 744 319 739 q 303 772 311 750 q 290 815 294 794 q 288 844 285 835 q 310 836 290 854 q 390 755 347 799 q 464 658 433 711 q 472 644 467 653 m 453 375 q 452 472 460 435 q 427 527 444 508 q 386 549 410 546 q 339 547 363 553 q 294 527 315 540 q 263 500 274 514 q 203 403 235 458 q 156 292 172 349 q 147 181 139 235 q 208 90 156 128 q 309 121 267 86 q 381 203 351 156 q 428 301 411 251 q 453 375 446 350 z "},"Q":{"ha":647,"x_min":-4,"x_max":651,"o":"m 425 1042 q 600 949 543 1036 q 638 851 625 911 q 644 703 651 792 q 603 492 636 614 q 501 210 569 371 q 549 205 524 203 q 601 221 574 207 q 615 190 617 211 q 606 147 613 169 q 582 90 597 122 q 536 82 561 82 q 488 88 515 81 q 432 117 461 94 q 369 66 403 92 q 299 23 335 40 q 224 1 263 6 q 149 17 186 -3 q 46 114 81 51 q 3 255 11 176 q 11 422 -4 333 q 58 599 26 511 q 133 767 89 686 q 226 908 176 847 q 326 1006 275 969 q 425 1042 378 1042 m 522 603 q 517 816 535 743 q 465 906 499 889 q 389 893 431 924 q 315 796 347 863 q 258 684 286 750 q 206 545 229 618 q 170 400 183 472 q 158 270 157 328 q 178 176 160 213 q 240 140 197 140 q 303 158 272 138 q 358 199 335 179 q 319 275 339 231 q 283 378 300 319 l 338 428 q 358 374 346 401 q 384 322 369 350 q 419 269 399 293 q 463 359 446 311 q 492 453 481 407 q 511 540 504 500 q 522 603 518 579 z "},"Z":{"ha":711,"x_min":-1,"x_max":711,"o":"m 261 174 q 483 186 396 194 q 621 160 569 178 q 711 104 681 138 q 700 40 708 67 q 679 -1 693 17 q 643 -14 665 -19 q 502 24 575 19 q 361 24 429 29 q 235 11 293 18 q 137 15 176 4 q 81 60 97 25 q 83 176 65 96 q 151 310 104 229 q 256 482 199 392 q 193 491 221 488 q 144 490 165 494 q 104 471 122 486 q 69 426 86 456 q 42 426 56 418 q 19 451 29 435 q 3 486 8 467 q 1 521 -1 506 q 15 557 4 535 q 58 594 25 579 q 150 607 90 608 q 313 575 210 606 q 395 715 357 647 q 461 840 433 783 q 392 881 426 861 q 315 906 357 901 q 223 894 274 911 q 104 825 172 878 q 90 813 96 813 q 80 821 85 813 q 72 844 75 829 q 67 875 68 858 q 60 971 61 914 q 231 1039 147 1018 q 303 1051 265 1047 q 379 1050 342 1056 q 451 1027 417 1044 q 514 978 486 1010 q 547 980 526 979 q 587 974 567 981 q 624 953 607 968 q 644 908 640 938 q 644 849 654 886 q 608 764 633 813 q 545 658 582 715 q 468 539 508 601 q 528 524 503 528 q 577 524 554 521 q 622 538 600 528 q 672 565 644 549 q 689 532 685 550 q 686 492 692 515 q 656 439 681 469 q 595 409 633 413 q 518 412 557 406 q 449 428 479 418 q 413 439 418 438 q 410 442 411 439 q 360 357 382 393 q 319 291 338 321 q 287 233 301 261 q 261 174 272 204 z "},"X":{"ha":906,"x_min":0,"x_max":907,"o":"m 901 885 q 866 813 896 856 q 790 719 836 771 q 684 610 743 668 q 561 493 625 553 q 640 338 600 413 q 717 208 679 264 q 789 122 754 153 q 854 94 824 90 q 842 32 854 57 q 807 -6 831 10 q 738 -12 783 -22 q 664 31 701 -4 q 588 117 626 65 q 511 235 550 169 q 435 372 472 301 q 296 241 361 304 q 185 126 231 178 q 119 37 139 74 q 118 -14 100 0 q 63 -19 88 -25 q 22 4 40 -15 q 0 75 3 24 q 29 171 0 117 q 107 285 58 225 q 219 410 156 346 q 349 540 282 475 q 270 697 307 622 q 201 824 233 771 q 144 904 169 878 q 103 917 119 931 q 113 1001 99 968 q 128 1027 118 1015 q 153 1044 138 1039 q 191 1047 169 1049 q 243 1031 213 1044 q 295 986 268 1019 q 352 903 322 953 q 413 792 382 854 q 478 664 444 731 q 600 780 543 725 q 697 878 657 835 q 752 952 736 922 q 751 994 768 982 q 839 1008 803 1013 q 868 1000 854 1007 q 892 979 882 993 q 904 942 901 965 q 901 885 907 919 z "},"Ž":{"ha":711,"x_min":-1,"x_max":711,"o":"m 461 901 q 402 942 425 913 q 363 1001 379 971 q 331 1056 346 1032 q 297 1079 317 1079 q 313 1089 301 1086 q 336 1090 321 1092 q 375 1079 351 1089 q 402 1060 389 1074 q 426 1030 415 1047 q 448 993 438 1013 q 468 957 458 974 q 493 999 476 978 q 524 1040 510 1021 q 543 1072 538 1058 q 535 1088 549 1085 q 561 1093 547 1093 q 585 1089 572 1093 q 608 1074 597 1085 q 609 1050 615 1065 q 591 1016 603 1035 q 565 977 579 997 q 540 940 550 957 q 527 912 529 924 q 538 897 525 900 q 531 896 535 896 q 515 894 526 894 q 494 894 507 893 q 461 901 481 894 m 261 146 q 483 157 396 164 q 621 135 569 150 q 711 86 681 117 q 700 31 708 56 q 679 -6 693 10 q 643 -17 665 -22 q 502 16 575 13 q 361 15 429 19 q 235 4 293 10 q 137 8 176 -1 q 81 48 97 17 q 83 149 65 79 q 151 265 104 194 q 256 414 199 335 q 193 422 221 419 q 144 421 165 425 q 104 404 122 417 q 69 365 86 392 q 42 365 56 358 q 19 386 29 372 q 3 417 8 400 q 1 447 -1 435 q 15 479 4 460 q 58 511 25 499 q 150 522 90 524 q 313 494 210 521 q 395 617 357 557 q 461 725 433 676 q 392 761 426 743 q 315 783 357 779 q 223 773 274 788 q 104 713 172 758 q 80 709 89 692 q 67 756 71 726 q 60 839 61 790 q 231 899 147 881 q 303 910 265 907 q 379 908 342 913 q 451 888 417 903 q 514 844 486 872 q 547 847 526 846 q 587 842 567 847 q 624 824 607 838 q 644 785 640 810 q 644 733 654 765 q 608 658 633 700 q 545 567 582 617 q 468 464 508 518 q 528 451 503 454 q 577 451 554 449 q 622 463 600 454 q 672 486 644 471 q 689 458 685 474 q 686 424 692 444 q 656 376 681 403 q 595 351 633 354 q 518 353 557 347 q 449 367 479 358 q 413 376 418 375 q 410 379 411 376 q 360 306 382 338 q 319 248 338 275 q 287 197 301 221 q 261 146 272 172 z "},"ž":{"ha":789,"x_min":-17,"x_max":789,"o":"m 400 774 q 341 815 364 785 q 301 875 318 844 q 271 929 285 906 q 238 953 257 953 q 253 963 242 960 q 276 964 261 965 q 315 953 292 963 q 365 903 343 940 q 407 831 388 865 q 433 872 417 850 q 464 913 450 894 q 483 945 478 932 q 474 961 488 958 q 500 965 486 965 q 524 962 511 965 q 547 947 536 958 q 542 907 558 935 q 504 851 525 879 q 471 799 483 822 q 478 771 458 775 q 471 769 475 769 q 463 768 468 768 q 454 768 458 768 q 434 766 447 765 q 400 774 421 767 m 728 315 q 759 328 747 333 q 778 310 771 324 q 789 268 785 294 q 724 175 758 218 q 658 103 694 139 q 581 51 621 67 q 533 -94 568 -26 q 448 -213 497 -162 q 340 -295 399 -264 q 224 -332 282 -326 q 114 -315 167 -337 q 24 -233 61 -292 q 13 -111 -17 -174 q 53 -55 25 -85 q 134 6 82 -25 q 265 67 186 36 q 460 125 344 97 q 449 226 461 182 q 434 263 443 244 q 410 294 425 281 q 376 315 396 308 q 329 321 356 322 q 285 305 304 314 q 251 286 265 296 q 222 263 236 275 l 147 268 q 151 297 144 279 q 176 336 158 313 q 235 393 194 360 q 332 493 288 438 q 404 597 376 549 q 320 608 368 621 q 225 524 272 596 q 215 521 225 524 q 192 520 206 518 q 165 531 179 522 q 140 565 150 540 q 157 601 138 572 q 215 659 176 631 q 313 703 254 688 q 447 701 371 719 q 525 661 494 685 q 562 613 550 642 q 544 547 574 583 q 483 469 517 510 q 403 388 449 429 q 456 372 424 383 q 520 335 489 360 q 572 268 551 310 q 589 163 593 226 q 639 208 614 182 q 683 258 664 235 q 728 315 707 286 m 146 -162 q 221 -197 178 -201 q 261 -185 239 -196 q 310 -151 283 -175 q 367 -85 336 -126 q 432 19 397 -43 q 256 -25 328 1 q 198 -51 225 -36 q 153 -83 171 -65 q 133 -120 136 -100 q 146 -162 129 -140 z "},"Š":{"ha":679,"x_min":0,"x_max":682,"o":"m 526 1046 q 467 1086 490 1057 q 428 1147 444 1115 q 397 1201 411 1178 q 364 1225 383 1225 q 379 1235 368 1232 q 403 1236 388 1238 q 442 1225 418 1235 q 492 1175 471 1213 q 535 1103 514 1138 q 560 1144 543 1122 q 590 1184 576 1165 q 609 1216 604 1203 q 600 1232 614 1229 q 626 1238 613 1238 q 651 1233 638 1238 q 675 1218 664 1229 q 676 1194 682 1210 q 658 1161 669 1179 q 631 1123 646 1143 q 606 1086 617 1103 q 594 1058 596 1069 q 604 1043 592 1046 q 597 1042 601 1042 q 590 1040 594 1040 q 581 1040 585 1040 q 560 1038 574 1038 q 526 1046 547 1039 m 536 1011 q 601 996 575 1011 q 643 955 628 981 q 665 897 658 929 q 674 829 672 864 q 653 647 676 749 q 575 639 607 638 q 549 642 561 639 q 531 652 538 646 q 522 669 524 658 q 528 697 521 681 q 567 755 556 722 q 578 817 578 788 q 569 868 578 847 q 546 889 560 889 q 440 845 472 885 q 411 727 408 806 q 449 529 414 649 q 544 247 483 410 q 574 83 585 144 q 519 -6 563 22 q 407 -31 475 -33 q 267 -6 339 -29 q 126 59 194 18 q 13 151 57 100 q 0 176 0 164 q 8 198 0 188 q 28 216 15 208 q 58 231 42 224 q 151 256 96 246 q 351 93 281 128 q 402 83 382 78 q 422 124 422 88 q 398 235 422 160 q 314 436 374 310 q 265 633 269 547 q 282 782 261 718 q 341 890 303 846 q 419 960 379 933 q 492 999 458 988 q 536 1011 525 1011 z "},"Œ":{"ha":1369,"x_min":-1,"x_max":1374,"o":"m 1358 1015 q 1367 969 1374 1004 q 1347 896 1361 935 q 1316 825 1332 857 q 1294 786 1300 793 q 1266 780 1289 779 q 1218 783 1243 781 q 1151 794 1188 788 q 1147 815 1143 800 q 1158 847 1150 829 q 1174 884 1165 865 q 1185 917 1182 903 q 1181 941 1188 932 q 1151 947 1174 950 q 1068 928 1111 947 q 988 880 1025 910 q 921 813 950 850 q 879 740 892 776 q 873 672 867 704 q 914 619 879 639 q 955 605 935 610 q 990 597 975 600 q 1025 594 1008 594 q 1024 565 1026 579 q 1017 544 1021 554 q 1001 531 1013 533 q 821 339 886 425 q 774 267 793 303 q 753 201 756 231 q 772 151 751 171 q 842 126 792 131 q 929 156 878 125 q 1038 242 974 182 q 1189 422 1103 303 q 1219 423 1207 436 q 1240 388 1232 410 q 1257 325 1250 363 q 1225 263 1260 304 q 1132 175 1190 221 q 1000 86 1074 129 q 850 20 926 43 q 703 1 774 -3 q 581 53 632 6 q 551 122 556 82 q 419 33 492 67 q 261 -3 347 0 q 117 38 174 -6 q 31 153 60 81 q 1 317 3 225 q 20 507 -1 410 q 85 699 42 604 q 191 867 128 793 q 335 988 254 942 q 510 1038 415 1035 q 661 989 601 1036 q 750 864 721 942 q 788 903 767 883 q 836 943 810 924 q 1015 1034 928 1010 q 1173 1058 1101 1058 q 1294 1042 1244 1057 q 1358 1015 1343 1026 m 296 150 q 428 173 371 149 q 527 238 486 197 q 597 333 568 279 q 642 444 625 388 q 669 556 660 500 q 682 656 678 611 q 681 660 682 658 q 681 665 681 663 q 540 451 656 547 q 488 417 521 435 q 423 401 456 399 q 365 439 390 404 q 335 563 340 474 q 449 573 400 551 q 528 634 497 594 q 574 722 560 674 q 586 815 588 771 q 567 888 585 858 q 517 917 549 917 q 404 884 456 917 q 313 797 353 851 q 244 675 272 743 q 200 535 215 607 q 182 395 185 464 q 190 272 179 326 q 228 185 201 218 q 296 150 254 151 z "},"š":{"ha":671,"x_min":0,"x_max":671,"o":"m 440 726 q 381 767 404 738 q 342 828 358 797 q 310 882 325 858 q 276 906 296 906 q 292 915 281 913 q 315 917 300 918 q 354 906 331 915 q 381 887 368 900 q 405 856 393 874 q 426 819 417 839 q 447 783 436 800 q 472 826 456 804 q 503 866 489 847 q 522 898 517 885 q 514 914 528 911 q 540 919 526 919 q 564 915 551 919 q 588 900 576 911 q 588 876 594 892 q 570 842 582 861 q 544 803 558 824 q 519 767 529 783 q 506 738 508 750 q 517 724 504 726 q 510 722 514 722 q 502 721 507 721 q 493 721 497 721 q 473 720 486 719 q 440 726 460 721 m 601 349 q 633 365 619 368 q 654 350 646 363 q 671 311 664 335 q 632 232 657 274 q 572 153 610 196 q 476 67 535 110 q 389 24 439 42 q 286 1 339 7 q 182 5 233 -4 q 90 40 131 14 q 25 114 50 67 q 0 232 0 161 q 53 422 1 338 q 226 558 106 507 q 240 567 233 561 q 250 572 247 572 q 319 652 278 626 q 401 688 361 678 q 499 694 447 699 q 524 647 515 669 q 530 608 531 628 q 511 576 529 589 q 428 499 454 536 q 396 430 403 463 q 398 367 389 397 q 421 307 407 336 q 449 250 435 278 q 467 194 463 222 q 518 243 494 217 q 561 293 542 269 q 601 349 583 319 m 186 179 q 247 183 219 182 q 285 208 274 185 q 285 286 296 231 q 233 451 275 342 q 228 447 231 449 q 222 444 225 446 q 147 360 169 406 q 124 274 125 314 q 140 208 122 235 q 186 179 157 181 z "},"™":{"ha":586,"x_min":-1,"x_max":589,"o":"m 583 946 q 578 900 589 933 q 555 827 568 867 q 533 750 542 788 q 536 693 525 713 q 524 690 529 690 q 510 694 517 690 q 496 710 503 699 q 490 748 488 724 q 499 799 492 772 q 516 855 506 826 q 533 907 526 883 q 506 858 526 892 q 464 788 486 824 q 407 697 439 746 q 400 693 404 693 q 392 696 397 693 q 379 710 386 699 q 378 753 372 721 q 393 821 385 785 q 418 911 403 863 q 391 860 411 896 q 349 788 371 825 q 292 693 324 743 q 279 693 285 692 q 254 715 265 696 q 250 763 244 735 q 267 824 256 790 q 290 894 279 857 q 303 971 301 932 q 324 971 314 974 q 338 960 332 968 q 346 935 344 953 q 331 874 347 915 q 299 771 314 832 q 322 809 303 778 q 361 876 340 840 q 414 968 386 918 q 442 970 421 976 q 467 946 464 964 q 463 923 467 939 q 455 885 460 907 q 443 840 450 864 q 431 792 436 815 q 457 835 440 806 q 490 894 474 865 q 531 968 510 929 q 556 970 536 976 q 583 946 575 964 m 272 932 q 236 941 264 939 q 172 944 208 943 q 151 886 168 924 q 118 810 135 849 q 92 741 101 772 q 94 701 83 710 q 65 701 78 699 q 45 713 54 704 q 38 740 36 721 q 46 776 38 756 q 66 822 54 796 q 92 879 78 849 q 118 946 106 910 q 69 946 92 946 q 32 947 47 946 q 5 956 11 947 q 1 973 -1 964 q 9 988 3 982 q 18 992 15 994 q 28 981 18 985 q 54 976 38 978 q 92 975 71 975 q 136 975 113 975 l 157 975 q 236 975 200 976 q 279 964 272 974 q 286 953 286 958 q 283 943 286 949 q 272 932 279 938 z "},"§":{"ha":897,"x_min":-11,"x_max":897,"o":"m 782 1065 q 837 1055 815 1065 q 872 1028 858 1044 q 890 990 885 1011 q 896 946 896 968 q 878 826 897 893 q 814 821 839 819 q 776 830 790 822 q 775 860 763 838 q 807 898 797 876 q 817 939 817 919 q 808 972 817 958 q 789 985 800 985 q 701 956 728 982 q 677 879 675 931 q 708 749 679 828 q 788 565 738 671 q 768 459 797 494 q 688 413 739 424 q 573 415 636 403 q 454 451 510 426 q 494 356 471 407 q 544 247 517 306 q 574 120 585 168 q 519 51 563 72 q 407 31 475 29 q 267 51 339 32 q 126 101 194 69 q 13 172 57 132 q 8 208 -11 193 q 58 233 26 222 q 150 254 94 246 q 350 128 279 154 q 401 119 381 117 q 421 151 421 122 q 397 237 421 179 q 313 393 372 294 q 265 545 268 479 q 282 660 261 611 q 341 744 303 710 q 419 799 379 778 q 492 829 458 819 q 536 839 525 839 q 556 838 550 839 q 587 945 556 901 q 658 1015 618 989 q 734 1053 697 1042 q 782 1065 771 1065 m 410 624 q 459 583 431 606 q 516 542 488 560 q 570 518 544 525 q 610 524 596 511 q 622 576 624 538 q 597 689 621 614 q 576 736 583 715 q 546 744 563 746 q 441 712 474 742 q 410 624 408 682 z "},"¨":{"ha":267,"x_min":-1,"x_max":265,"o":"m 53 924 q 72 933 61 940 q 91 908 82 925 q 106 874 100 892 q 111 851 113 856 q 103 824 111 846 q 86 776 96 801 q 63 711 75 747 q 33 721 47 714 q 13 739 22 728 q 1 772 3 750 q 17 854 -1 817 q 53 924 36 892 m 206 924 q 224 933 214 940 q 244 908 235 925 q 260 874 254 892 q 265 851 265 856 q 257 824 264 846 q 240 776 250 801 q 215 711 229 747 q 186 721 200 714 q 165 739 175 728 q 154 772 156 750 q 171 854 151 817 q 206 924 190 892 z "},"¥":{"ha":653,"x_min":-1,"x_max":653,"o":"m 653 994 q 596 914 624 975 q 542 767 568 853 q 489 580 515 682 q 435 376 463 478 q 548 367 501 368 q 599 382 594 365 q 621 356 615 369 q 618 329 625 344 q 579 297 611 314 q 513 286 557 286 q 410 290 468 286 q 401 258 406 275 q 390 226 396 242 q 460 218 428 222 q 518 213 493 214 q 558 216 543 213 q 575 229 572 219 q 599 203 593 217 q 595 175 603 190 q 556 143 588 160 q 480 133 532 132 q 363 140 428 133 q 357 124 360 132 q 351 107 354 115 q 306 42 333 65 q 251 10 279 19 q 193 3 222 1 q 141 10 164 4 q 104 24 118 17 q 92 36 90 32 q 145 69 119 36 q 194 158 171 101 q 73 165 124 165 q 17 147 22 165 q 1 168 6 156 q 3 192 -1 178 q 29 221 7 206 q 110 245 57 242 q 226 244 164 249 q 236 276 232 260 q 246 308 240 292 q 169 316 206 313 q 106 319 133 319 q 60 315 78 319 q 39 300 42 310 q 24 321 28 308 q 26 345 21 332 q 51 375 31 358 q 142 400 83 397 q 271 396 201 403 q 286 455 278 425 q 303 515 294 485 q 234 451 272 478 q 147 424 196 425 q 70 449 93 424 q 47 517 47 475 q 62 615 46 560 q 101 726 78 669 q 151 840 125 783 q 195 941 176 896 q 220 1015 214 986 q 211 1050 226 1044 q 269 1056 243 1058 q 315 1040 293 1053 q 346 993 336 1028 q 345 940 353 971 q 322 874 338 910 q 288 798 307 838 q 249 718 268 758 q 216 638 231 678 q 197 564 201 599 q 211 558 193 540 q 258 612 229 575 q 317 694 286 649 q 371 772 349 739 q 401 869 386 824 q 433 951 417 915 q 468 1010 450 986 q 506 1042 486 1033 q 565 1060 538 1065 q 611 1040 592 1056 q 653 994 635 1024 z "},"€":{"ha":671,"x_min":-3,"x_max":671,"o":"m 579 425 q 624 443 607 453 q 653 410 642 433 q 671 336 665 382 q 542 171 608 243 q 480 110 513 139 q 412 57 447 81 q 339 19 376 33 q 264 6 301 6 q 119 50 176 6 q 33 167 63 94 q 0 332 3 239 q 18 522 -3 425 q 82 710 39 618 q 187 876 125 803 q 328 992 249 949 q 503 1036 408 1036 q 568 1014 543 1036 q 606 955 593 992 q 622 872 619 918 q 620 777 625 825 q 604 683 615 729 q 579 603 593 638 q 533 607 572 589 q 544 595 539 603 q 551 576 550 588 q 545 551 553 565 q 515 522 538 538 q 469 508 500 511 q 398 505 438 504 q 313 508 358 506 q 225 513 268 510 q 216 479 219 496 q 210 446 213 463 q 315 441 261 446 q 412 434 368 436 q 484 435 456 432 q 515 453 513 438 q 536 428 531 442 q 535 401 540 417 q 503 365 531 385 q 453 351 486 354 q 379 347 421 347 q 290 350 338 347 q 199 356 243 353 q 219 224 196 276 q 300 169 243 172 q 356 178 329 168 q 408 206 383 189 q 456 247 433 224 q 497 294 478 269 q 579 425 542 350 m 522 868 q 442 847 481 868 q 368 790 403 826 q 305 705 333 753 q 256 603 276 657 q 350 597 303 601 q 435 592 397 593 q 499 594 474 590 q 528 610 524 597 q 508 622 518 615 q 488 636 497 628 q 483 664 481 643 q 493 710 486 685 q 509 764 500 736 q 524 815 518 792 q 531 853 531 838 q 522 868 532 868 z "},"Ÿ":{"ha":932,"x_min":-6,"x_max":932,"o":"m 932 965 q 871 894 900 947 q 813 765 842 840 q 757 597 785 689 q 700 411 729 506 q 761 378 746 394 q 769 363 768 371 q 760 346 769 354 q 728 330 750 338 q 669 315 707 322 q 652 259 660 283 q 638 214 644 235 q 622 172 631 193 q 603 125 614 151 q 528 38 576 69 q 420 -7 481 6 q 290 -16 360 -19 q 151 3 221 -12 q 3 90 21 38 q 10 141 -6 113 q 80 204 26 169 q 233 280 133 239 q 492 368 332 321 q 504 403 496 381 q 522 449 513 425 q 540 494 532 472 q 553 529 549 517 q 508 475 535 504 q 451 420 482 446 q 386 377 419 394 q 321 360 353 360 q 232 387 258 360 q 205 458 206 414 q 223 560 204 503 q 269 678 242 618 q 326 798 296 739 q 378 905 357 857 q 408 984 400 953 q 397 1021 415 1015 q 464 1026 433 1029 q 516 1010 490 1024 q 553 958 542 996 q 541 866 564 922 q 485 746 518 810 q 420 616 451 682 q 382 492 389 550 q 392 481 376 469 q 434 523 408 493 q 491 594 460 553 q 550 674 522 636 q 597 739 578 713 q 615 767 615 765 q 685 930 649 863 q 763 1011 721 997 q 831 1031 800 1035 q 885 1011 861 1026 q 932 965 910 994 m 300 103 q 390 147 349 103 q 460 271 432 192 q 298 215 358 239 q 207 174 238 192 q 172 144 176 156 q 178 124 167 132 q 300 103 203 106 m 750 1067 q 721 1076 735 1069 q 700 1094 710 1083 q 689 1128 690 1106 q 706 1210 686 1172 q 740 1279 725 1247 q 759 1288 749 1296 q 779 1264 769 1281 q 794 1229 789 1247 q 800 1207 800 1211 q 792 1179 799 1201 q 775 1132 785 1157 q 750 1067 764 1103 m 597 1067 q 568 1076 582 1069 q 547 1094 557 1083 q 536 1128 538 1106 q 552 1210 533 1172 q 588 1279 571 1247 q 606 1288 596 1296 q 626 1264 617 1281 q 641 1229 635 1247 q 646 1207 647 1211 q 638 1179 646 1201 q 621 1132 631 1157 q 597 1067 610 1103 z "},"£":{"ha":760,"x_min":-1,"x_max":765,"o":"m 410 979 q 419 910 421 951 q 406 816 417 868 q 376 706 394 764 q 338 586 358 647 q 450 574 386 581 q 571 561 514 568 q 704 546 638 554 q 681 501 700 521 q 626 468 663 483 q 521 446 590 453 q 403 442 460 440 q 290 450 346 443 q 251 324 269 385 q 226 215 233 264 q 247 145 222 171 q 323 117 271 119 q 456 140 375 115 q 644 219 536 164 q 665 220 658 225 q 674 205 672 215 q 672 179 675 194 q 664 147 669 164 q 625 56 651 108 q 303 0 440 6 q 190 6 244 -3 q 96 38 135 14 q 39 106 57 63 q 35 217 21 149 q 44 238 35 217 q 66 293 53 258 q 97 374 79 328 q 135 475 115 421 q 84 484 108 479 q 36 493 60 489 q 1 510 -1 499 q 28 533 3 521 q 92 557 53 544 q 169 578 132 569 q 232 746 217 663 q 249 896 247 829 q 235 1043 249 972 q 279 1069 256 1063 q 324 1073 299 1076 q 372 1043 349 1069 q 478 1047 421 1046 q 588 1040 535 1047 q 685 1017 642 1033 q 747 971 728 1001 q 754 892 765 940 q 688 774 743 844 l 568 867 q 588 928 593 901 q 575 949 585 939 q 545 967 565 960 q 492 978 525 975 q 410 981 458 982 l 410 979 l 410 979 z "},"®":{"ha":590,"x_min":-3,"x_max":597,"o":"m 400 701 q 522 647 476 700 q 582 515 567 593 q 581 345 597 436 q 519 176 565 254 q 394 47 472 99 q 207 -6 317 -6 q 217 -6 221 -6 q 203 -7 214 -7 q 181 -7 193 -7 q 163 -7 168 -7 q 66 24 103 -7 q 13 104 29 54 q 1 217 -3 154 q 24 347 4 281 q 80 476 44 413 q 163 590 115 540 q 271 670 211 639 q 400 701 331 701 m 217 97 q 321 136 274 99 q 401 226 368 174 l 382 226 q 326 256 347 228 q 283 329 306 283 q 256 266 265 294 q 261 228 246 238 q 242 225 251 225 q 223 228 233 225 q 203 243 213 232 q 201 282 192 257 q 228 337 211 307 q 260 401 244 367 q 276 468 275 435 q 293 469 285 469 q 324 458 310 469 q 365 469 340 469 q 397 467 389 468 q 427 443 418 464 q 429 399 436 422 q 399 356 422 375 q 332 338 375 338 q 335 326 333 336 q 345 302 338 317 q 369 272 353 288 q 414 246 385 257 q 447 315 433 281 q 467 381 460 350 q 479 488 483 447 q 458 548 475 528 q 415 572 440 568 q 365 568 390 575 q 318 547 339 561 q 289 519 297 533 q 245 458 271 497 q 197 371 219 418 q 156 275 174 324 q 138 187 139 226 q 153 122 136 147 q 217 97 171 96 m 315 375 q 315 365 321 369 q 315 360 308 360 q 376 375 358 358 q 394 409 394 392 q 376 438 393 426 q 332 435 358 449 q 324 410 331 425 q 310 378 318 396 q 313 376 311 376 q 315 375 314 376 z "},"þ":{"ha":621,"x_min":0,"x_max":624,"o":"m 535 682 q 602 645 581 692 q 619 521 624 599 q 585 347 615 443 q 500 164 556 251 q 395 40 443 76 q 310 -3 347 3 q 249 7 272 -8 q 218 38 225 22 q 217 43 218 42 q 172 -84 192 -24 q 144 -192 153 -144 q 139 -272 135 -239 q 165 -315 143 -304 q 165 -336 174 -326 q 137 -349 156 -346 q 94 -345 118 -351 q 50 -319 71 -339 q 15 -260 29 -299 q 0 -162 0 -222 q 38 -28 11 -110 q 99 148 65 54 q 169 340 133 242 q 233 524 206 438 q 274 675 260 610 q 278 771 288 740 q 340 786 311 785 q 389 775 365 788 q 424 726 413 763 q 426 622 442 696 q 480 660 453 644 q 535 682 507 675 m 281 76 q 327 106 301 75 q 379 185 353 138 q 429 292 406 233 q 470 406 453 350 q 497 508 488 463 q 501 575 506 553 q 485 599 497 600 q 457 580 472 597 q 423 535 442 563 q 388 482 404 508 q 329 326 363 408 q 263 160 296 243 q 271 154 265 157 q 275 151 274 153 q 278 126 279 139 q 274 102 276 113 q 272 85 271 92 q 281 76 272 78 z "},"Â":{"ha":1132,"x_min":-3,"x_max":1132,"o":"m 972 1167 q 938 1122 960 1144 q 898 1080 917 1100 q 867 1043 879 1060 q 860 1018 856 1026 q 885 1035 867 1024 q 929 1047 904 1047 q 981 1028 954 1047 q 1032 953 1008 1008 q 1040 878 1043 925 q 1022 774 1036 832 q 988 648 1008 715 q 943 511 967 581 q 981 516 963 514 q 1018 521 999 518 q 1085 486 1061 501 q 1101 472 1094 479 q 1108 458 1108 465 q 1101 446 1108 451 q 1074 436 1093 440 q 997 423 1039 429 q 910 410 956 417 q 864 269 885 336 q 831 147 843 201 q 817 53 818 92 q 835 1 817 15 q 792 -4 815 -8 q 746 15 772 -1 q 692 75 719 32 q 668 127 675 96 q 663 198 661 158 q 674 283 665 238 q 697 378 683 329 q 629 369 663 374 q 563 358 596 364 q 483 231 517 288 q 419 130 449 174 q 358 56 389 86 q 290 8 328 26 q 228 -11 260 -4 q 166 -19 200 -18 q 100 -6 132 -19 q 0 115 6 49 q 15 178 -3 144 q 80 250 32 211 q 213 332 128 289 q 429 421 297 375 q 506 523 464 465 q 593 642 549 581 q 681 765 638 704 q 759 877 724 826 q 819 963 794 928 q 853 1011 844 999 q 819 1015 839 1010 q 788 1046 800 1021 q 792 1077 782 1058 q 822 1117 803 1096 q 861 1160 840 1138 q 898 1201 882 1182 q 919 1235 914 1221 q 911 1257 925 1250 l 918 1257 q 926 1257 921 1257 q 938 1256 931 1257 q 960 1253 946 1257 q 996 1238 975 1250 q 1051 1172 1033 1215 q 1080 1086 1069 1129 q 1100 1009 1090 1043 q 1132 971 1110 975 q 1113 963 1125 964 q 1085 965 1101 961 q 1044 988 1068 969 q 1020 1019 1031 999 q 1001 1063 1010 1039 q 986 1115 993 1088 q 972 1167 979 1142 m 243 182 q 269 210 254 192 q 303 251 283 225 q 350 318 322 278 q 271 276 308 303 q 206 221 233 249 q 163 169 178 193 q 151 135 149 144 q 174 134 153 125 q 243 182 196 143 m 728 478 q 790 656 757 568 q 846 819 822 744 q 811 761 833 799 q 760 676 789 724 q 698 574 732 629 q 628 461 664 519 l 728 478 z "},"Þ":{"ha":621,"x_min":0,"x_max":624,"o":"m 535 682 q 602 645 581 692 q 619 521 624 599 q 585 347 615 443 q 500 164 556 251 q 395 40 443 76 q 310 -3 347 3 q 249 7 272 -8 q 218 38 225 22 q 217 43 218 42 q 172 -84 192 -24 q 144 -192 153 -144 q 139 -272 135 -239 q 165 -315 143 -304 q 165 -336 174 -326 q 137 -349 156 -346 q 94 -345 118 -351 q 50 -319 71 -339 q 15 -260 29 -299 q 0 -162 0 -222 q 38 -28 11 -110 q 99 148 65 54 q 169 340 133 242 q 233 524 206 438 q 274 675 260 610 q 278 771 288 740 q 340 786 311 785 q 389 775 365 788 q 424 726 413 763 q 426 622 442 696 q 480 660 453 644 q 535 682 507 675 m 281 76 q 327 106 301 75 q 379 185 353 138 q 429 292 406 233 q 470 406 453 350 q 497 508 488 463 q 501 575 506 553 q 485 599 497 600 q 457 580 472 597 q 423 535 442 563 q 388 482 404 508 q 329 326 363 408 q 263 160 296 243 q 271 154 265 157 q 275 151 274 153 q 278 126 279 139 q 274 102 276 113 q 272 85 271 92 q 281 76 272 78 z "},"ß":{"ha":731,"x_min":1,"x_max":735,"o":"m 442 564 q 503 549 469 565 q 565 506 536 533 q 614 442 594 479 q 636 365 633 406 q 612 217 642 285 q 526 100 582 149 q 392 25 469 51 q 222 1 314 -1 q 176 10 213 1 q 101 38 140 18 q 32 88 63 57 q 1 165 1 119 q 24 290 1 215 q 81 451 47 365 q 151 626 114 536 q 218 793 189 715 q 260 929 247 871 q 260 1013 274 988 q 325 1033 293 1028 q 381 1034 353 1039 q 428 1004 408 1029 q 513 1019 467 1022 q 610 1004 560 1015 q 688 958 658 994 q 726 873 717 922 q 722 769 735 824 q 675 670 710 715 q 582 594 640 625 q 442 564 524 564 m 574 933 q 504 941 546 947 q 428 907 463 935 q 395 774 418 850 q 332 608 372 699 q 459 637 407 613 q 542 695 511 661 q 588 768 574 729 q 605 841 603 807 q 598 901 607 875 q 574 933 589 926 m 325 118 q 376 163 350 131 q 422 235 401 194 q 454 319 442 275 q 467 402 467 364 q 451 468 467 440 q 401 504 436 496 q 380 503 386 507 q 368 491 374 499 q 354 475 363 483 q 328 460 346 467 l 307 460 q 287 460 297 460 q 267 463 276 460 q 224 359 243 410 q 192 263 204 308 q 191 197 185 231 q 214 140 197 164 q 258 107 231 115 q 325 118 286 99 z "},"Ð":{"ha":1033,"x_min":0,"x_max":1040,"o":"m 274 847 q 431 974 344 925 q 606 1042 518 1024 q 774 1046 693 1060 q 916 983 856 1032 q 1008 850 976 935 q 1031 642 1040 765 q 960 388 1019 503 q 814 189 900 272 q 628 58 728 106 q 439 5 529 10 q 279 41 349 0 q 186 176 210 82 q 193 306 175 235 q 243 453 211 378 q 136 469 188 460 q 36 489 85 479 q 1 504 1 494 q 20 525 0 514 q 75 547 40 536 q 145 567 110 558 q 210 583 181 576 q 251 589 240 589 q 303 585 265 589 q 336 658 321 624 q 359 717 351 692 q 366 760 367 743 q 353 782 365 778 q 356 783 354 782 q 363 788 357 785 q 331 798 347 789 q 303 818 315 807 q 274 847 288 831 m 867 678 q 874 850 893 790 q 808 932 854 910 q 699 947 763 954 q 575 915 636 939 q 464 860 514 892 q 394 804 414 829 l 390 800 q 435 792 411 803 q 476 736 458 782 q 478 667 486 711 q 453 569 471 624 q 542 559 497 564 q 624 550 588 554 q 704 542 665 544 q 681 497 700 517 q 626 464 663 479 q 521 442 590 449 q 463 438 492 439 q 407 438 435 438 q 352 288 378 360 q 324 168 326 215 q 356 101 324 115 q 440 105 389 86 q 555 173 492 124 q 678 297 618 222 q 788 467 738 371 q 867 678 839 564 z "},"À":{"ha":1110,"x_min":-3,"x_max":1108,"o":"m 1018 514 q 1085 479 1061 494 q 1101 465 1094 472 q 1108 451 1108 458 q 1101 439 1108 444 q 1074 429 1093 433 q 997 416 1039 422 q 910 403 956 410 q 864 262 885 329 q 831 140 843 194 q 817 47 818 85 q 835 -6 817 8 q 792 -11 815 -15 q 746 8 772 -8 q 692 68 719 25 q 668 120 675 89 q 663 191 661 151 q 674 276 665 231 q 697 371 683 322 q 629 362 663 367 q 563 351 596 357 q 483 224 517 281 q 419 123 449 167 q 358 49 389 79 q 290 1 328 19 q 228 -18 260 -11 q 166 -26 200 -25 q 100 -12 132 -26 q 0 108 6 42 q 15 171 -3 138 q 80 243 32 204 q 213 325 128 282 q 429 414 297 368 q 512 524 465 461 q 606 652 558 586 q 699 782 653 718 q 780 897 744 846 q 836 978 815 947 q 857 1008 857 1008 q 919 1039 889 1033 q 976 1024 946 1042 q 1032 946 1006 1007 q 1040 872 1043 918 q 1022 767 1036 825 q 988 641 1008 708 q 943 504 967 574 q 981 509 963 507 q 1018 514 999 511 m 243 175 q 269 203 254 185 q 303 244 283 218 q 350 311 322 271 q 271 269 308 296 q 206 214 233 242 q 163 162 178 186 q 151 128 149 138 q 174 127 153 118 q 243 175 196 136 m 728 471 q 790 649 757 561 q 846 813 822 738 q 811 754 833 792 q 760 669 789 717 q 698 567 732 622 q 628 454 664 513 l 728 471 m 1075 974 q 1006 1050 1036 1014 q 956 1106 979 1079 q 929 1140 933 1133 q 917 1169 925 1146 q 903 1212 908 1192 q 901 1242 899 1232 q 924 1232 904 1251 q 1003 1151 960 1194 q 1078 1054 1046 1107 q 1094 1011 1093 1026 q 1092 988 1096 996 q 1075 974 1086 978 z "},"Á":{"ha":1110,"x_min":-3,"x_max":1108,"o":"m 1018 515 q 1085 481 1061 496 q 1101 467 1094 474 q 1108 453 1108 460 q 1101 440 1108 446 q 1074 431 1093 435 q 997 417 1039 424 q 910 404 956 411 q 864 263 885 331 q 831 141 843 196 q 817 48 818 86 q 835 -4 817 10 q 792 -10 815 -14 q 746 10 772 -7 q 692 69 719 26 q 668 122 675 90 q 663 192 661 153 q 674 278 665 232 q 697 372 683 324 q 629 363 663 368 q 563 353 596 358 q 483 225 517 282 q 419 124 449 168 q 358 51 389 81 q 290 3 328 21 q 228 -17 260 -10 q 166 -24 200 -24 q 100 -11 132 -25 q 0 110 6 43 q 15 172 -3 139 q 80 244 32 206 q 213 326 128 283 q 429 415 297 369 q 512 525 465 463 q 606 653 558 588 q 699 783 653 719 q 780 898 744 847 q 836 979 815 949 q 857 1010 857 1010 q 919 1040 889 1035 q 976 1026 946 1043 q 1032 947 1006 1008 q 1040 873 1043 919 q 1022 768 1036 826 q 988 642 1008 710 q 943 506 967 575 q 981 510 963 508 q 1018 515 999 513 m 243 176 q 269 204 254 186 q 303 246 283 219 q 350 313 322 272 q 271 270 308 297 q 206 215 233 243 q 163 163 178 188 q 151 129 149 139 q 174 128 153 119 q 243 176 196 138 m 728 472 q 790 651 757 563 q 846 814 822 739 q 811 756 833 793 q 760 671 789 718 q 698 569 732 624 q 628 456 664 514 l 728 472 m 749 935 q 732 949 738 939 q 729 972 728 957 q 746 1015 731 988 q 821 1112 778 1068 q 900 1193 864 1156 q 922 1203 918 1213 q 920 1173 925 1193 q 907 1130 915 1153 q 894 1101 899 1107 q 867 1067 890 1094 q 817 1011 843 1040 q 749 935 786 975 z "},"Ã":{"ha":1196,"x_min":-3,"x_max":1196,"o":"m 1186 1113 q 1194 1093 1193 1103 q 1191 1074 1196 1085 q 1168 1054 1186 1064 q 1119 1056 1146 1049 q 1062 1074 1093 1063 q 997 1094 1031 1085 q 927 1102 963 1103 q 856 1084 892 1101 q 783 1025 819 1067 q 764 1053 769 1038 q 764 1081 760 1065 q 792 1111 768 1096 q 877 1144 833 1138 q 963 1147 921 1151 q 1044 1132 1006 1143 q 1113 1113 1082 1121 q 1163 1101 1143 1104 q 1186 1113 1182 1099 m 1018 522 q 1085 488 1061 503 q 1101 474 1094 481 q 1108 460 1108 467 q 1101 447 1108 453 q 1074 438 1093 442 q 997 424 1039 431 q 910 411 956 418 q 864 270 885 338 q 831 148 843 203 q 817 55 818 93 q 835 3 817 17 q 792 -3 815 -7 q 746 17 772 0 q 692 76 719 33 q 668 128 675 97 q 663 199 661 160 q 674 285 665 239 q 697 379 683 331 q 629 370 663 375 q 563 360 596 365 q 483 232 517 289 q 419 131 449 175 q 358 58 389 88 q 290 10 328 28 q 228 -10 260 -3 q 166 -17 200 -17 q 100 -4 132 -18 q 0 117 6 50 q 15 179 -3 146 q 80 251 32 213 q 213 333 128 290 q 429 422 297 376 q 512 532 465 469 q 606 660 558 594 q 699 790 653 726 q 780 905 744 854 q 836 986 815 956 q 857 1017 857 1017 q 919 1047 889 1042 q 976 1033 946 1050 q 1032 954 1006 1015 q 1040 880 1043 926 q 1022 775 1036 833 q 988 649 1008 717 q 943 513 967 582 q 981 517 963 515 q 1018 522 999 519 m 243 183 q 269 211 254 193 q 303 253 283 226 q 350 319 322 279 q 271 277 308 304 q 206 222 233 250 q 163 170 178 194 q 151 136 149 146 q 174 135 153 126 q 243 183 196 144 m 728 479 q 790 658 757 569 q 846 821 822 746 q 811 763 833 800 q 760 678 789 725 q 698 576 732 631 q 628 463 664 521 l 728 479 z "},"Å":{"ha":1110,"x_min":-3,"x_max":1108,"o":"m 1018 521 q 1085 486 1061 501 q 1101 472 1094 479 q 1108 458 1108 465 q 1101 446 1108 451 q 1074 436 1093 440 q 997 423 1039 429 q 910 410 956 417 q 864 269 885 336 q 831 147 843 201 q 817 53 818 92 q 835 1 817 15 q 792 -4 815 -8 q 746 15 772 -1 q 692 75 719 32 q 668 127 675 96 q 663 198 661 158 q 674 283 665 238 q 697 378 683 329 q 629 369 663 374 q 563 358 596 364 q 483 231 517 288 q 419 130 449 174 q 358 56 389 86 q 290 8 328 26 q 228 -11 260 -4 q 166 -19 200 -18 q 100 -6 132 -19 q 0 115 6 49 q 15 178 -3 144 q 80 250 32 211 q 213 332 128 289 q 429 421 297 375 q 512 531 465 468 q 606 659 558 593 q 699 789 653 725 q 780 903 744 853 q 836 985 815 954 q 857 1015 857 1015 l 858 1017 q 863 1019 860 1017 q 849 1069 847 1038 q 886 1154 851 1101 q 913 1176 897 1167 q 945 1192 926 1185 q 990 1199 964 1199 q 1044 1187 1026 1199 q 1069 1160 1063 1175 q 1076 1121 1078 1143 q 1047 1042 1063 1068 q 1003 1004 1032 1015 q 1032 953 1018 986 q 1040 878 1043 925 q 1022 774 1036 832 q 988 648 1008 715 q 943 511 967 581 q 981 516 963 514 q 1018 521 999 518 m 243 182 q 269 210 254 192 q 303 251 283 225 q 350 318 322 278 q 271 276 308 303 q 206 221 233 249 q 163 169 178 193 q 151 135 149 144 q 174 134 153 125 q 243 182 196 143 m 728 478 q 790 656 757 568 q 846 819 822 744 q 811 761 833 799 q 760 676 789 724 q 698 574 732 629 q 628 461 664 519 l 728 478 m 950 1143 q 922 1095 936 1125 q 913 1043 908 1065 q 944 1044 928 1047 q 979 1029 961 1042 q 1005 1048 994 1036 q 1022 1072 1015 1060 q 1033 1096 1029 1085 q 1038 1114 1036 1107 q 1026 1151 1038 1140 q 1001 1163 1015 1163 q 971 1156 986 1163 q 950 1143 956 1150 z "},"Ä":{"ha":1110,"x_min":-3,"x_max":1108,"o":"m 897 1053 q 868 1063 882 1056 q 847 1081 857 1069 q 836 1114 838 1092 q 852 1196 833 1158 q 888 1265 871 1233 q 906 1274 896 1282 q 926 1250 917 1267 q 941 1215 935 1233 q 946 1193 947 1197 q 938 1165 946 1188 q 921 1118 931 1143 q 897 1053 910 1089 m 1050 1053 q 1021 1063 1035 1056 q 1000 1081 1010 1069 q 989 1114 990 1092 q 1006 1196 986 1158 q 1040 1265 1025 1233 q 1059 1274 1049 1282 q 1079 1250 1069 1267 q 1094 1215 1089 1233 q 1100 1193 1100 1197 q 1092 1165 1099 1188 q 1075 1118 1085 1143 q 1050 1053 1064 1089 m 1018 519 q 1085 485 1061 500 q 1101 471 1094 478 q 1108 457 1108 464 q 1101 444 1108 450 q 1074 435 1093 439 q 997 422 1039 428 q 910 408 956 415 q 864 267 885 335 q 831 145 843 200 q 817 52 818 90 q 835 0 817 14 q 792 -6 815 -10 q 746 14 772 -3 q 692 74 719 31 q 668 126 675 94 q 663 197 661 157 q 674 282 665 236 q 697 376 683 328 q 629 367 663 372 q 563 357 596 363 q 483 229 517 286 q 419 128 449 172 q 358 55 389 85 q 290 7 328 25 q 228 -12 260 -6 q 166 -20 200 -19 q 100 -7 132 -21 q 0 114 6 47 q 15 176 -3 143 q 80 249 32 210 q 213 331 128 288 q 429 419 297 374 q 512 529 465 467 q 606 658 558 592 q 699 788 653 724 q 780 902 744 851 q 836 983 815 953 q 857 1014 857 1014 q 919 1044 889 1039 q 976 1030 946 1047 q 1032 951 1006 1013 q 1040 877 1043 924 q 1022 772 1036 831 q 988 647 1008 714 q 943 510 967 579 q 981 515 963 513 q 1018 519 999 517 m 243 181 q 269 208 254 190 q 303 250 283 224 q 350 317 322 276 q 271 274 308 301 q 206 219 233 247 q 163 167 178 192 q 151 133 149 143 q 174 133 153 124 q 243 181 196 142 m 728 476 q 790 655 757 567 q 846 818 822 743 q 811 760 833 797 q 760 675 789 722 q 698 573 732 628 q 628 460 664 518 l 728 476 z "},"Æ":{"ha":1533,"x_min":-3,"x_max":1538,"o":"m 1522 1014 q 1531 968 1538 1003 q 1510 894 1525 933 q 1480 824 1496 856 q 1458 785 1464 792 q 1430 778 1453 778 q 1382 782 1407 779 q 1315 793 1351 786 q 1310 813 1307 799 q 1322 846 1314 828 q 1338 883 1329 864 q 1349 916 1346 901 q 1344 940 1351 931 q 1315 946 1338 949 q 1232 927 1275 946 q 1151 878 1189 908 q 1085 812 1114 849 q 1043 739 1056 775 q 1037 670 1031 703 q 1078 618 1043 638 q 1119 603 1099 608 q 1154 596 1139 599 q 1189 593 1172 593 q 1192 564 1192 578 q 1188 542 1192 553 q 1172 529 1183 532 l 1154 511 q 1134 492 1146 503 q 1108 465 1122 481 q 1097 454 1106 457 q 1042 392 1071 426 q 988 323 1013 358 q 947 254 964 288 q 929 194 931 221 q 945 148 928 167 q 1006 125 963 129 q 1093 154 1042 124 q 1202 241 1138 181 q 1353 421 1267 301 q 1383 422 1371 435 q 1404 386 1396 408 q 1421 324 1414 361 q 1395 270 1422 306 q 1321 194 1368 235 q 1212 114 1274 154 q 1083 44 1150 74 q 949 3 1017 15 q 825 8 882 -8 q 803 5 817 6 q 772 11 789 4 q 734 35 754 18 q 692 85 714 53 q 668 137 675 106 q 663 208 661 168 q 674 293 665 247 q 697 388 683 339 q 629 378 663 383 q 563 368 596 374 q 483 240 517 297 q 419 140 449 183 q 358 66 389 96 q 290 18 328 36 q 228 -1 260 6 q 166 -9 200 -8 q 100 4 132 -10 q 0 125 6 58 q 15 188 -3 154 q 80 260 32 221 q 213 342 128 299 q 429 431 297 385 q 512 540 465 478 q 606 669 558 603 q 699 799 653 735 q 780 913 744 863 q 836 994 815 964 q 857 1025 857 1025 q 919 1056 889 1050 q 976 1041 946 1058 q 1032 963 1006 1024 q 1035 953 1033 958 q 1038 943 1036 949 q 1203 1019 1122 997 q 1351 1044 1285 1042 q 1462 1035 1417 1046 q 1522 1014 1507 1025 m 243 192 q 269 219 254 201 q 303 261 283 235 q 350 328 322 288 q 271 285 308 313 q 206 231 233 258 q 163 178 178 203 q 151 144 149 154 q 174 144 153 135 q 243 192 196 153 m 728 488 q 790 666 757 578 q 846 829 822 754 q 811 771 833 808 q 760 686 789 733 q 698 584 732 639 q 628 471 664 529 l 728 488 z "},"Ç":{"ha":681,"x_min":-3,"x_max":681,"o":"m 681 332 q 563 169 629 240 q 499 110 533 139 q 424 59 464 82 q 338 22 383 36 q 240 8 292 8 l 219 8 q 229 -8 219 -3 l 260 4 q 328 -4 294 4 q 383 -27 356 -11 q 426 -71 411 -43 q 413 -123 436 -103 q 356 -153 389 -143 q 289 -166 322 -164 q 246 -164 256 -168 q 222 -149 226 -157 q 222 -133 218 -140 q 239 -115 226 -125 q 308 -124 276 -122 q 360 -119 336 -125 q 390 -94 383 -114 q 376 -70 390 -81 q 342 -52 363 -60 q 296 -40 321 -44 q 249 -33 271 -36 q 240 -38 243 -36 q 233 -43 236 -40 q 226 -47 229 -46 q 192 -46 206 -51 q 174 -28 181 -42 q 182 15 168 -15 q 76 87 117 33 q 16 217 35 140 q 1 384 -3 293 q 27 568 4 475 q 92 748 50 661 q 194 902 135 835 q 328 1010 253 969 q 494 1051 404 1051 q 594 1026 554 1051 q 656 958 635 1000 q 676 864 676 917 q 656 758 676 811 q 640 749 653 753 q 608 744 626 744 q 569 748 589 743 q 533 765 549 753 q 528 801 524 778 q 538 847 532 824 q 547 886 544 869 q 536 903 550 903 q 410 850 469 903 q 306 717 351 797 q 233 542 261 636 q 201 367 206 449 q 220 231 197 286 q 299 174 243 176 q 356 182 328 172 q 409 208 383 192 q 458 245 435 224 q 503 289 482 267 q 592 410 550 342 q 637 431 619 439 q 664 400 654 422 q 681 332 675 375 z "},"È":{"ha":864,"x_min":-1,"x_max":864,"o":"m 846 1119 q 863 1076 861 1092 q 860 1053 864 1061 q 843 1039 854 1043 q 774 1115 804 1079 q 724 1172 747 1144 q 697 1206 701 1199 q 685 1234 693 1211 q 672 1277 676 1257 q 669 1307 667 1297 q 692 1297 672 1317 q 771 1216 728 1260 q 846 1119 814 1172 m 807 1013 q 816 967 822 1001 q 795 893 810 932 q 765 822 781 854 q 743 783 749 790 q 715 777 738 776 q 667 781 692 778 q 600 792 636 785 q 595 813 592 799 q 606 844 599 826 q 622 881 614 863 q 633 915 631 900 q 629 938 636 929 q 600 944 622 947 q 517 926 560 944 q 436 877 474 907 q 369 810 399 847 q 328 738 340 774 q 322 669 315 701 q 363 617 328 636 q 403 602 383 607 q 439 594 424 597 q 474 592 457 592 q 472 563 475 576 q 465 541 469 551 q 450 528 461 531 q 269 336 335 422 q 223 264 242 300 q 202 198 204 228 q 220 148 200 168 q 290 124 240 128 q 378 153 326 122 q 487 240 422 179 q 638 419 551 300 q 668 420 656 433 q 689 385 681 407 q 706 322 699 360 q 674 260 708 301 q 581 172 639 218 q 449 83 522 126 q 299 17 375 40 q 151 -1 222 -6 q 29 50 81 3 q 1 157 -1 101 q 25 266 3 213 q 83 369 47 319 q 156 457 119 418 q 225 521 193 496 q 271 553 257 546 q 189 610 221 572 q 152 698 157 649 q 176 803 147 747 q 279 913 206 858 q 458 1008 371 979 q 618 1041 546 1036 q 741 1035 690 1046 q 807 1013 792 1024 z "},"É":{"ha":818,"x_min":-1,"x_max":822,"o":"m 400 1014 q 383 1028 389 1018 q 381 1051 379 1036 q 397 1094 382 1067 q 472 1191 429 1147 q 551 1272 515 1235 q 573 1282 569 1292 q 572 1252 576 1272 q 558 1209 567 1232 q 546 1181 550 1186 q 518 1147 542 1174 q 468 1090 494 1119 q 400 1014 438 1054 m 807 1010 q 816 964 822 999 q 795 890 810 929 q 765 819 781 851 q 743 781 749 788 q 715 774 738 774 q 667 778 692 775 q 600 789 636 782 q 595 809 592 794 q 606 842 599 824 q 622 878 614 860 q 633 912 631 897 q 629 935 636 926 q 600 942 622 944 q 517 923 560 942 q 436 874 474 904 q 369 808 399 844 q 328 735 340 771 q 322 666 315 699 q 363 614 328 633 q 403 599 383 604 q 439 592 424 594 q 474 589 457 589 q 472 560 475 574 q 465 538 469 549 q 450 525 461 528 q 269 333 335 419 q 223 261 242 297 q 202 195 204 225 q 220 145 200 165 q 290 121 240 125 q 378 150 326 119 q 487 237 422 176 q 638 417 551 297 q 668 417 656 431 q 689 382 681 404 q 706 319 699 357 q 674 257 708 299 q 581 169 639 215 q 449 81 522 124 q 299 15 375 38 q 151 -4 222 -8 q 29 47 81 0 q 1 154 -1 99 q 25 263 3 210 q 83 366 47 317 q 156 454 119 415 q 225 518 193 493 q 271 550 257 543 q 189 608 221 569 q 152 695 157 646 q 176 800 147 744 q 279 910 206 856 q 458 1005 371 976 q 618 1038 546 1033 q 741 1032 690 1043 q 807 1010 792 1021 z "},"Ê":{"ha":818,"x_min":-1,"x_max":822,"o":"m 807 1010 q 816 964 822 999 q 795 890 810 929 q 765 819 781 851 q 743 781 749 788 q 715 774 738 774 q 667 778 692 775 q 600 789 636 782 q 595 809 592 794 q 606 842 599 824 q 622 878 614 860 q 633 912 631 897 q 629 935 636 926 q 600 942 622 944 q 517 923 560 942 q 436 874 474 904 q 369 808 399 844 q 328 735 340 771 q 322 666 315 699 q 363 614 328 633 q 403 599 383 604 q 439 592 424 594 q 474 589 457 589 q 472 560 475 574 q 465 538 469 549 q 450 525 461 528 q 269 333 335 419 q 223 261 242 297 q 202 195 204 225 q 220 145 200 165 q 290 121 240 125 q 378 150 326 119 q 487 237 422 176 q 638 417 551 297 q 668 417 656 431 q 689 382 681 404 q 706 319 699 357 q 674 257 708 299 q 581 169 639 215 q 449 81 522 124 q 299 15 375 38 q 151 -4 222 -8 q 29 47 81 0 q 1 154 -1 99 q 25 263 3 210 q 83 366 47 317 q 156 454 119 415 q 225 518 193 493 q 271 550 257 543 q 189 608 221 569 q 152 695 157 646 q 176 800 147 744 q 279 910 206 856 q 396 980 338 953 q 508 1021 454 1007 q 610 1038 563 1035 q 697 1039 658 1042 q 649 1108 669 1061 q 610 1196 629 1154 q 579 1142 599 1169 q 543 1090 560 1114 q 519 1049 526 1065 q 528 1028 513 1032 q 497 1022 513 1022 q 471 1027 485 1022 q 446 1049 457 1032 q 445 1080 438 1060 q 467 1124 453 1100 q 500 1174 482 1149 q 531 1220 518 1199 q 546 1257 543 1242 q 535 1276 549 1272 q 542 1278 538 1276 q 561 1279 546 1279 q 584 1281 569 1282 q 621 1269 599 1279 q 667 1237 647 1258 q 702 1188 688 1215 q 728 1133 717 1161 q 749 1081 739 1104 q 771 1043 760 1058 q 797 1028 782 1028 l 794 1025 q 788 1019 790 1021 q 807 1010 801 1014 z "},"Ë":{"ha":818,"x_min":-1,"x_max":822,"o":"m 510 1074 q 481 1083 494 1076 q 460 1101 469 1090 q 449 1135 450 1113 q 465 1217 446 1179 q 500 1286 483 1254 q 519 1295 508 1303 q 538 1271 529 1288 q 553 1236 547 1254 q 558 1214 560 1218 q 551 1186 558 1208 q 533 1139 543 1164 q 510 1074 522 1110 m 663 1074 q 633 1083 647 1076 q 613 1101 622 1090 q 601 1135 603 1113 q 618 1217 599 1179 q 653 1286 638 1254 q 672 1295 661 1303 q 692 1271 682 1288 q 707 1236 701 1254 q 713 1214 713 1218 q 704 1186 711 1208 q 688 1139 697 1164 q 663 1074 676 1110 m 807 1014 q 816 968 822 1003 q 795 894 810 933 q 765 824 781 856 q 743 785 749 792 q 715 778 738 778 q 667 782 692 779 q 600 793 636 786 q 595 813 592 799 q 606 846 599 828 q 622 883 614 864 q 633 916 631 901 q 629 940 636 931 q 600 946 622 949 q 517 927 560 946 q 436 878 474 908 q 369 812 399 849 q 328 739 340 775 q 322 670 315 703 q 363 618 328 638 q 403 603 383 608 q 439 596 424 599 q 474 593 457 593 q 472 564 475 578 q 465 542 469 553 q 450 529 461 532 q 269 338 335 424 q 223 265 242 301 q 202 199 204 229 q 220 149 200 169 q 290 125 240 129 q 378 154 326 124 q 487 241 422 181 q 638 421 551 301 q 668 422 656 435 q 689 386 681 408 q 706 324 699 361 q 674 261 708 303 q 581 174 639 219 q 449 85 522 128 q 299 19 375 42 q 151 0 222 -4 q 29 51 81 4 q 1 158 -1 103 q 25 267 3 214 q 83 370 47 321 q 156 458 119 419 q 225 522 193 497 q 271 554 257 547 q 189 612 221 574 q 152 699 157 650 q 176 804 147 749 q 279 914 206 860 q 458 1009 371 981 q 618 1042 546 1038 q 741 1036 690 1047 q 807 1014 792 1025 z "},"Ì":{"ha":786,"x_min":-1,"x_max":788,"o":"m 763 1051 q 783 1004 778 1028 q 780 961 788 985 q 740 918 772 938 q 710 910 729 911 q 665 910 690 908 q 611 915 640 913 q 553 919 582 918 q 537 827 550 883 q 504 702 524 771 q 462 558 485 633 q 417 408 439 482 q 378 265 396 333 q 351 142 360 196 q 423 134 393 138 q 474 131 453 131 q 513 137 496 131 q 546 160 529 143 q 572 119 565 142 q 575 74 579 100 q 543 18 571 49 q 487 -8 525 -1 q 400 -12 449 -14 q 298 -5 351 -10 q 194 1 244 0 q 103 -6 144 1 q 40 -35 63 -12 q 11 7 21 -17 q 0 52 1 26 q 15 106 -1 78 q 44 131 26 122 q 85 142 63 139 q 137 144 108 144 q 197 143 165 143 q 224 306 201 215 q 276 497 246 396 q 338 708 307 599 q 389 925 368 817 q 313 926 346 928 q 256 916 281 924 q 210 897 231 908 q 171 868 189 885 q 149 900 156 882 q 142 938 142 915 q 160 989 143 961 q 201 1024 174 1011 q 265 1042 229 1036 q 342 1047 300 1047 q 428 1043 385 1046 q 448 1043 438 1043 q 469 1040 458 1043 q 572 1031 519 1036 q 667 1024 624 1025 q 737 1028 710 1022 q 763 1051 764 1033 m 597 1046 q 528 1122 558 1086 q 478 1178 501 1151 q 451 1213 456 1206 q 439 1241 447 1218 q 426 1284 431 1264 q 424 1314 421 1304 q 446 1304 426 1324 q 525 1223 482 1267 q 600 1126 568 1179 q 617 1083 615 1099 q 614 1060 618 1068 q 597 1046 608 1050 z "},"Í":{"ha":786,"x_min":-1,"x_max":788,"o":"m 763 1049 q 783 1001 778 1025 q 780 958 788 982 q 740 915 772 935 q 710 907 729 908 q 665 908 690 906 q 612 913 640 910 q 554 917 583 915 q 538 824 551 881 q 506 699 525 768 q 463 555 486 631 q 417 405 439 479 q 378 262 396 331 q 353 139 361 193 q 424 131 394 135 q 474 128 453 128 q 513 134 496 128 q 546 157 529 140 q 572 117 565 139 q 576 72 579 97 q 544 15 572 46 q 487 -11 525 -6 q 401 -15 449 -17 q 299 -8 353 -12 q 195 -2 244 -3 q 104 -8 146 -1 q 40 -37 63 -15 q 11 4 21 -19 q 0 49 1 24 q 15 103 -1 75 q 44 128 26 119 q 86 139 63 136 q 138 141 110 142 q 199 140 167 140 q 225 303 203 213 q 277 494 247 393 q 338 705 307 596 q 389 922 369 814 q 313 923 346 925 q 256 913 281 921 q 210 894 231 906 q 172 865 190 882 q 149 897 156 879 q 142 935 142 913 q 160 986 143 958 q 193 1016 172 1004 q 242 1034 214 1028 q 302 1042 269 1040 q 369 1043 335 1044 q 361 1049 367 1044 q 353 1062 356 1053 q 354 1085 351 1071 q 369 1124 357 1100 q 444 1220 401 1176 q 524 1301 488 1264 q 545 1311 542 1321 q 544 1281 549 1301 q 531 1238 539 1261 q 518 1210 522 1215 q 492 1178 514 1203 q 444 1124 469 1153 q 398 1071 419 1094 q 372 1043 376 1047 q 400 1042 386 1043 q 428 1040 414 1042 q 449 1040 438 1040 q 471 1038 460 1040 q 572 1028 519 1033 q 667 1021 625 1022 q 737 1025 710 1019 q 763 1049 764 1031 z "},"Î":{"ha":786,"x_min":-1,"x_max":788,"o":"m 763 1064 q 783 1017 778 1040 q 780 974 788 997 q 740 931 772 950 q 710 922 729 924 q 665 923 690 921 q 612 928 640 925 q 554 932 583 931 q 538 840 551 896 q 506 715 525 783 q 463 570 486 646 q 417 420 439 494 q 378 277 396 346 q 353 154 361 208 q 424 147 394 150 q 474 143 453 143 q 513 149 496 143 q 546 172 529 156 q 572 132 565 154 q 576 88 579 113 q 544 32 572 63 q 487 6 525 11 q 401 1 449 0 q 299 8 353 3 q 195 13 244 13 q 104 7 146 14 q 40 -22 63 0 q 11 19 21 -4 q 0 65 1 39 q 15 118 -1 90 q 44 143 26 135 q 86 154 63 151 q 138 156 110 157 q 199 156 167 156 q 225 318 203 228 q 277 510 247 408 q 338 720 307 611 q 389 938 369 829 q 313 938 346 940 q 256 928 281 936 q 210 909 231 921 q 172 881 190 897 q 149 913 156 894 q 142 951 142 928 q 160 1001 143 974 q 201 1036 174 1024 q 265 1054 229 1049 q 343 1059 301 1060 q 428 1056 385 1058 q 471 1053 444 1057 q 572 1043 519 1049 q 667 1036 625 1038 q 737 1040 710 1035 q 763 1064 764 1046 m 321 1088 q 320 1119 313 1099 q 342 1163 328 1139 q 375 1213 357 1188 q 406 1259 393 1238 q 421 1296 418 1281 q 410 1315 424 1311 q 417 1317 413 1315 q 436 1318 421 1318 q 459 1319 444 1321 q 497 1310 474 1318 q 562 1253 538 1293 q 603 1172 586 1214 q 635 1099 621 1131 q 672 1067 650 1067 q 654 1054 667 1058 q 626 1053 643 1051 q 583 1069 610 1056 q 555 1096 568 1078 q 530 1138 542 1114 q 507 1186 518 1161 q 485 1235 496 1211 q 454 1181 474 1208 q 418 1128 435 1153 q 394 1088 401 1104 q 403 1067 388 1071 q 374 1061 389 1061 q 347 1066 361 1061 q 321 1088 332 1071 z "},"Ï":{"ha":786,"x_min":-1,"x_max":788,"o":"m 763 1064 q 783 1017 778 1040 q 780 974 788 997 q 740 931 772 950 q 710 922 729 924 q 665 923 690 921 q 612 928 640 925 q 554 932 583 931 q 538 840 551 896 q 506 715 525 783 q 463 570 486 646 q 417 420 439 494 q 378 277 396 346 q 353 154 361 208 q 424 147 394 150 q 474 143 453 143 q 513 149 496 143 q 546 172 529 156 q 572 132 565 154 q 576 88 579 113 q 544 32 572 63 q 487 6 525 11 q 401 1 449 0 q 299 8 353 3 q 195 13 244 13 q 104 7 146 14 q 40 -22 63 0 q 11 19 21 -4 q 0 65 1 39 q 15 118 -1 90 q 44 143 26 135 q 86 154 63 151 q 138 156 110 157 q 199 156 167 156 q 225 318 203 228 q 277 510 247 408 q 338 720 307 611 q 389 938 369 829 q 313 938 346 940 q 256 928 281 936 q 210 909 231 921 q 172 881 190 897 q 149 913 156 894 q 142 951 142 928 q 160 1001 143 974 q 201 1036 174 1024 q 265 1054 229 1049 q 343 1059 301 1060 q 428 1056 385 1058 q 471 1053 444 1057 q 572 1043 519 1049 q 667 1036 625 1038 q 737 1040 710 1035 q 763 1064 764 1046 m 564 1069 q 535 1079 549 1072 q 514 1097 524 1086 q 503 1131 504 1108 q 519 1213 500 1175 q 554 1282 539 1250 q 573 1291 563 1299 q 593 1267 583 1283 q 608 1232 603 1250 q 614 1210 614 1214 q 606 1182 613 1204 q 589 1135 599 1160 q 564 1069 578 1106 m 411 1069 q 382 1079 396 1072 q 361 1097 371 1086 q 350 1131 351 1108 q 366 1213 347 1175 q 401 1282 385 1250 q 420 1291 410 1299 q 440 1267 431 1283 q 455 1232 449 1250 q 460 1210 461 1214 q 452 1182 460 1204 q 435 1135 444 1160 q 411 1069 424 1106 z "},"Ñ":{"ha":865,"x_min":-4,"x_max":868,"o":"m 375 1071 q 356 1099 361 1083 q 356 1126 351 1111 q 383 1157 360 1142 q 469 1190 425 1183 q 555 1193 513 1197 q 635 1178 597 1189 q 704 1159 674 1168 q 754 1148 735 1150 q 778 1158 774 1146 q 786 1139 785 1149 q 783 1120 788 1131 q 760 1100 778 1110 q 711 1101 738 1094 q 653 1119 685 1108 q 588 1140 622 1131 q 519 1148 554 1149 q 447 1130 483 1147 q 375 1071 411 1113 m 856 961 q 865 878 868 931 q 847 759 861 825 q 811 617 832 693 q 767 466 790 542 q 724 318 744 390 q 690 185 703 246 q 675 80 678 125 q 688 15 672 35 q 646 7 668 4 q 601 26 626 10 q 547 85 575 42 q 531 153 533 110 q 535 250 529 197 q 552 363 540 303 q 579 481 564 422 q 667 774 614 618 q 648 740 667 774 q 599 653 629 707 q 527 531 568 600 q 442 391 486 463 q 353 251 397 319 q 269 130 308 183 q 200 44 231 76 q 153 11 169 11 q 110 6 133 1 q 65 26 90 8 q 15 85 40 43 q 3 195 -4 132 q 31 333 10 258 q 84 492 53 407 q 144 667 115 576 q 195 853 174 758 q 218 1043 217 947 q 297 1043 261 1053 q 353 1006 328 1035 q 381 911 378 976 q 367 806 382 874 q 329 654 353 738 q 278 479 306 571 q 225 303 250 388 q 258 353 233 315 q 315 444 282 392 q 386 560 347 497 q 464 688 425 624 q 665 1019 556 838 q 699 1043 675 1035 q 753 1047 724 1051 q 810 1023 782 1043 q 856 961 839 1003 z "},"Ò":{"ha":782,"x_min":-1,"x_max":785,"o":"m 313 981 q 296 994 301 985 q 293 1018 292 1003 q 310 1061 294 1033 q 385 1158 342 1114 q 464 1239 428 1201 q 485 1249 482 1258 q 484 1219 489 1239 q 471 1176 479 1199 q 458 1147 463 1153 q 431 1113 454 1140 q 381 1057 407 1086 q 313 981 350 1021 m 510 1038 q 657 993 599 1038 q 746 876 715 949 q 781 712 776 804 q 765 522 785 619 q 701 333 744 425 q 593 167 657 240 q 446 47 529 93 q 261 -1 363 1 q 117 39 174 -4 q 31 153 60 82 q 1 317 3 225 q 20 508 -1 410 q 85 699 42 606 q 191 867 128 793 q 335 988 254 942 q 510 1038 415 1035 m 296 151 q 438 178 378 150 q 540 254 497 207 q 609 361 582 301 q 652 482 636 421 q 675 600 668 543 q 685 697 682 657 q 641 568 678 629 q 540 453 604 507 q 488 418 521 436 q 423 403 456 400 q 365 440 390 406 q 335 564 340 475 q 449 574 400 553 q 528 635 497 596 q 574 724 560 675 q 586 815 588 772 q 567 888 585 858 q 517 917 549 917 q 371 860 435 917 q 264 719 307 804 q 200 536 221 635 q 182 352 179 438 q 213 210 185 267 q 296 151 240 153 z "},"Ó":{"ha":782,"x_min":-1,"x_max":785,"o":"m 676 1010 q 607 1086 638 1050 q 558 1142 581 1115 q 531 1176 535 1169 q 518 1205 526 1182 q 505 1248 510 1228 q 503 1278 500 1268 q 525 1268 506 1288 q 604 1187 561 1231 q 679 1090 647 1143 q 696 1047 694 1063 q 693 1024 697 1032 q 676 1010 688 1014 m 510 1049 q 657 1004 599 1049 q 746 888 715 960 q 781 723 776 815 q 765 533 785 631 q 701 344 744 436 q 593 178 657 251 q 446 58 529 104 q 261 10 363 13 q 117 50 174 7 q 31 165 60 93 q 1 328 3 236 q 20 519 -1 421 q 85 710 42 617 q 191 878 128 804 q 335 999 254 953 q 510 1049 415 1046 m 296 163 q 438 188 378 160 q 540 264 497 217 q 609 371 582 311 q 652 492 636 431 q 675 610 668 554 q 685 707 682 667 q 641 578 678 639 q 540 464 604 517 q 488 429 521 447 q 423 414 456 411 q 365 451 390 417 q 335 575 340 486 q 449 585 400 564 q 528 647 497 607 q 574 735 560 686 q 586 826 588 783 q 567 899 585 869 q 517 928 549 928 q 371 872 435 928 q 264 731 307 815 q 200 547 221 646 q 182 363 179 449 q 213 221 185 278 q 296 163 240 164 z "},"Ô":{"ha":782,"x_min":-1,"x_max":785,"o":"m 510 1042 q 657 997 599 1042 q 746 881 715 953 q 781 716 776 808 q 765 526 785 624 q 701 337 744 429 q 593 171 657 244 q 446 51 529 97 q 261 3 363 6 q 117 43 174 0 q 31 158 60 86 q 1 322 3 229 q 20 512 -1 414 q 85 703 42 610 q 191 872 128 797 q 335 992 254 946 q 510 1042 415 1039 m 296 156 q 438 181 378 153 q 540 257 497 210 q 609 364 582 304 q 652 485 636 424 q 675 603 668 547 q 685 700 682 660 q 641 571 678 632 q 540 457 604 510 q 488 422 521 440 q 423 407 456 404 q 365 444 390 410 q 335 568 340 479 q 449 578 400 557 q 528 640 497 600 q 574 728 560 679 q 586 819 588 776 q 567 892 585 863 q 517 921 549 921 q 371 865 435 921 q 264 724 307 808 q 200 540 221 639 q 182 356 179 442 q 213 214 185 271 q 296 156 240 157 m 369 1061 q 369 1092 361 1072 q 391 1137 376 1113 q 424 1186 406 1161 q 454 1233 442 1211 q 469 1269 467 1254 q 458 1289 472 1285 q 465 1290 461 1289 q 485 1292 469 1292 q 508 1293 493 1294 q 546 1282 522 1292 q 610 1226 586 1265 q 652 1145 635 1186 q 684 1072 669 1104 q 721 1039 699 1040 q 703 1028 715 1031 q 675 1027 692 1025 q 632 1043 658 1029 q 603 1069 617 1051 q 578 1110 590 1088 q 556 1159 567 1133 q 533 1208 544 1185 q 503 1154 522 1182 q 467 1102 483 1126 q 443 1061 450 1078 q 451 1040 436 1044 q 422 1035 438 1035 q 395 1040 410 1035 q 369 1061 381 1044 z "},"Õ":{"ha":782,"x_min":-1,"x_max":785,"o":"m 332 1026 q 313 1054 318 1039 q 313 1082 308 1067 q 340 1113 317 1097 q 426 1146 382 1139 q 512 1149 469 1153 q 592 1133 554 1144 q 661 1114 631 1122 q 711 1103 692 1106 q 735 1114 731 1100 q 743 1094 742 1104 q 740 1076 744 1086 q 717 1056 735 1065 q 668 1057 694 1050 q 610 1075 642 1064 q 545 1095 579 1086 q 476 1103 511 1104 q 404 1085 440 1103 q 332 1026 368 1068 m 510 1035 q 657 990 599 1035 q 746 874 715 946 q 781 709 776 801 q 765 519 785 617 q 701 330 744 422 q 593 164 657 238 q 446 44 529 90 q 261 -4 363 -1 q 117 36 174 -7 q 31 151 60 79 q 1 315 3 222 q 20 505 -1 407 q 85 697 42 603 q 191 865 128 790 q 335 985 254 939 q 510 1035 415 1032 m 296 149 q 438 176 378 147 q 540 251 497 204 q 609 358 582 299 q 652 479 636 418 q 675 597 668 540 q 685 694 682 654 q 641 565 678 626 q 540 450 604 504 q 488 415 521 433 q 423 400 456 397 q 365 438 390 403 q 335 561 340 472 q 449 572 400 550 q 528 633 497 593 q 574 721 560 672 q 586 813 588 769 q 567 885 585 856 q 517 914 549 914 q 371 858 435 914 q 264 717 307 801 q 200 533 221 632 q 182 349 179 435 q 213 207 185 264 q 296 149 240 150 z "},"Ö":{"ha":782,"x_min":-1,"x_max":785,"o":"m 608 1069 q 579 1079 593 1072 q 558 1097 568 1086 q 547 1131 549 1108 q 564 1213 544 1175 q 599 1282 583 1250 q 617 1291 607 1299 q 638 1267 628 1283 q 653 1232 647 1250 q 658 1210 658 1214 q 650 1182 657 1204 q 633 1135 643 1160 q 608 1069 622 1106 m 456 1069 q 426 1079 440 1072 q 406 1097 415 1086 q 394 1131 396 1108 q 410 1213 392 1175 q 446 1282 429 1250 q 465 1291 454 1299 q 484 1267 475 1283 q 499 1232 493 1250 q 504 1210 506 1214 q 497 1182 504 1204 q 479 1135 489 1160 q 456 1069 468 1106 m 510 1040 q 657 996 599 1040 q 746 879 715 951 q 781 715 776 807 q 765 525 785 622 q 701 335 744 428 q 593 169 657 243 q 446 50 529 96 q 261 1 363 4 q 117 42 174 -1 q 31 156 60 85 q 1 320 3 228 q 20 510 -1 413 q 85 702 42 608 q 191 870 128 796 q 335 991 254 944 q 510 1040 415 1038 m 296 154 q 438 181 378 153 q 540 257 497 210 q 609 364 582 304 q 652 485 636 424 q 675 603 668 546 q 685 700 682 660 q 641 571 678 632 q 540 456 604 510 q 488 421 521 439 q 423 406 456 403 q 365 443 390 408 q 335 567 340 478 q 449 577 400 556 q 528 638 497 599 q 574 726 560 678 q 586 818 588 775 q 567 890 585 861 q 517 919 549 919 q 371 863 435 919 q 264 722 307 807 q 200 539 221 638 q 182 355 179 440 q 213 213 185 269 q 296 154 240 156 z "},"Ü":{"ha":767,"x_min":0,"x_max":768,"o":"m 572 1039 q 543 1049 557 1042 q 522 1067 532 1056 q 511 1100 513 1078 q 528 1182 508 1144 q 563 1251 547 1219 q 581 1260 571 1268 q 601 1236 592 1253 q 617 1201 611 1219 q 622 1179 622 1183 q 614 1151 621 1174 q 597 1104 607 1129 q 572 1039 586 1075 m 419 1039 q 390 1049 404 1042 q 369 1067 379 1056 q 358 1100 360 1078 q 374 1182 356 1144 q 410 1251 393 1219 q 428 1260 418 1268 q 448 1236 439 1253 q 463 1201 457 1219 q 468 1179 469 1183 q 460 1151 468 1174 q 443 1104 453 1129 q 419 1039 432 1075 m 765 926 q 745 787 768 872 q 690 603 722 701 q 622 405 657 506 q 565 220 588 304 q 542 78 543 136 q 575 7 540 19 q 503 -7 539 -7 q 440 6 472 -7 q 385 56 408 18 q 379 74 381 61 q 377 100 378 86 q 376 127 376 114 q 374 147 375 140 q 265 49 314 81 q 178 8 217 17 q 113 7 140 -1 q 67 29 85 15 q 40 56 49 43 q 31 69 31 69 q 2 171 4 110 q 14 304 0 232 q 53 456 28 376 q 106 615 78 536 q 159 765 133 693 q 199 893 185 836 q 213 986 214 950 q 188 1031 213 1022 q 274 1039 235 1044 q 306 1028 290 1036 q 335 1006 322 1021 q 356 968 347 992 q 367 911 365 944 q 350 801 368 869 q 305 652 332 732 q 249 490 278 572 q 199 339 219 407 q 174 226 179 271 q 190 175 168 181 q 297 203 242 163 q 348 250 321 219 q 403 328 375 281 q 463 444 432 376 q 522 607 493 513 q 550 689 535 644 q 579 778 565 733 q 604 864 593 822 q 619 940 615 906 q 616 999 622 975 q 590 1031 610 1022 q 675 1047 638 1050 q 707 1040 692 1046 q 735 1019 722 1033 q 756 983 747 1006 q 765 926 764 960 z "},"Û":{"ha":767,"x_min":0,"x_max":768,"o":"m 304 1040 q 303 1072 297 1051 q 320 1116 308 1092 q 345 1167 332 1140 q 368 1215 358 1193 q 380 1253 378 1238 q 369 1272 382 1269 q 375 1274 371 1272 q 392 1276 383 1276 q 412 1278 399 1279 q 444 1271 425 1278 q 503 1219 479 1257 q 544 1140 526 1181 q 576 1069 561 1100 q 610 1039 590 1039 q 594 1025 604 1029 q 571 1024 586 1022 q 532 1038 556 1025 q 506 1062 518 1044 q 482 1101 493 1079 q 460 1149 471 1124 q 439 1196 449 1174 q 415 1140 431 1169 q 386 1086 399 1111 q 369 1044 374 1061 q 376 1024 364 1026 q 351 1017 364 1018 q 328 1020 340 1015 q 304 1040 315 1025 m 765 918 q 745 778 768 864 q 690 595 722 693 q 622 397 657 497 q 565 212 588 296 q 542 69 543 128 q 575 -1 540 11 q 503 -15 539 -15 q 440 -3 472 -15 q 385 47 408 10 q 379 65 381 53 q 377 92 378 78 q 376 119 376 106 q 374 139 375 132 q 265 40 314 72 q 178 -1 217 8 q 113 -1 140 -10 q 67 21 85 7 q 40 48 49 35 q 31 61 31 61 q 2 163 4 101 q 14 296 0 224 q 53 448 28 368 q 106 606 78 528 q 159 756 133 685 q 199 885 185 828 q 213 978 214 942 q 188 1022 213 1014 q 274 1031 235 1036 q 306 1020 290 1028 q 335 998 322 1013 q 356 960 347 983 q 367 903 365 936 q 350 792 368 861 q 305 644 332 724 q 249 481 278 564 q 199 331 219 399 q 174 217 179 263 q 190 167 168 172 q 297 194 242 154 q 348 242 321 211 q 403 320 375 272 q 463 436 432 368 q 522 599 493 504 q 550 681 535 636 q 579 769 565 725 q 604 856 593 814 q 619 932 615 897 q 616 990 622 967 q 590 1022 610 1014 q 675 1039 638 1042 q 707 1031 692 1038 q 735 1011 722 1025 q 756 974 747 997 q 765 918 764 951 z "},"Ú":{"ha":767,"x_min":0,"x_max":768,"o":"m 404 1006 q 388 1019 393 1010 q 385 1043 383 1028 q 401 1086 386 1058 q 476 1183 433 1139 q 556 1264 519 1226 q 577 1274 574 1283 q 576 1244 581 1264 q 563 1201 571 1224 q 550 1172 554 1178 q 522 1138 546 1165 q 472 1082 499 1111 q 404 1006 442 1046 m 765 914 q 745 774 768 860 q 690 591 722 689 q 622 392 657 493 q 565 208 588 292 q 542 65 543 124 q 575 -6 540 7 q 503 -19 539 -19 q 440 -7 472 -19 q 385 43 408 6 q 379 61 381 49 q 377 88 378 74 q 376 115 376 101 q 374 135 375 128 q 265 36 314 68 q 178 -5 217 4 q 113 -6 140 -14 q 67 17 85 3 q 40 44 49 31 q 31 57 31 57 q 2 158 4 97 q 14 292 0 219 q 53 444 28 364 q 106 602 78 524 q 159 752 133 681 q 199 881 185 824 q 213 974 214 938 q 188 1018 213 1010 q 274 1026 235 1032 q 306 1016 290 1024 q 335 994 322 1008 q 356 956 347 979 q 367 899 365 932 q 350 788 368 857 q 305 640 332 719 q 249 477 278 560 q 199 326 219 394 q 174 213 179 258 q 190 163 168 168 q 297 190 242 150 q 348 238 321 207 q 403 316 375 268 q 463 432 432 364 q 522 594 493 500 q 550 676 535 632 q 579 765 565 721 q 604 851 593 810 q 619 928 615 893 q 616 986 622 963 q 590 1018 610 1010 q 675 1035 638 1038 q 707 1027 692 1033 q 735 1007 722 1021 q 756 970 747 993 q 765 914 764 947 z "},"Ù":{"ha":767,"x_min":0,"x_max":768,"o":"m 529 1004 q 460 1081 490 1044 q 410 1137 433 1110 q 383 1171 388 1164 q 371 1199 379 1176 q 358 1242 363 1222 q 356 1272 353 1263 q 378 1263 358 1282 q 457 1181 414 1225 q 532 1085 500 1138 q 549 1042 547 1057 q 546 1018 550 1026 q 529 1004 540 1008 m 765 925 q 745 785 768 871 q 690 602 722 700 q 622 403 657 504 q 565 219 588 303 q 542 76 543 135 q 575 6 540 18 q 503 -8 539 -8 q 440 4 472 -8 q 385 54 408 17 q 379 72 381 60 q 377 99 378 85 q 376 126 376 113 q 374 146 375 139 q 265 47 314 79 q 178 6 217 15 q 113 6 140 -3 q 67 28 85 14 q 40 55 49 42 q 31 68 31 68 q 2 169 4 108 q 14 303 0 231 q 53 455 28 375 q 106 613 78 535 q 159 763 133 692 q 199 892 185 835 q 213 985 214 949 q 188 1029 213 1021 q 274 1038 235 1043 q 306 1027 290 1035 q 335 1005 322 1019 q 356 967 347 990 q 367 910 365 943 q 350 799 368 868 q 305 651 332 731 q 249 488 278 571 q 199 338 219 406 q 174 224 179 269 q 190 174 168 179 q 297 201 242 161 q 348 249 321 218 q 403 327 375 279 q 463 443 432 375 q 522 606 493 511 q 550 688 535 643 q 579 776 565 732 q 604 863 593 821 q 619 939 615 904 q 616 997 622 974 q 590 1029 610 1021 q 675 1046 638 1049 q 707 1038 692 1044 q 735 1018 722 1032 q 756 981 747 1004 q 765 925 764 958 z "},"Ý":{"ha":932,"x_min":-6,"x_max":932,"o":"m 932 983 q 871 912 900 965 q 813 783 842 858 q 757 615 785 707 q 700 429 729 524 q 761 396 746 413 q 769 381 768 389 q 760 364 769 372 q 728 348 750 356 q 669 333 707 340 q 651 277 658 301 q 638 232 644 253 q 622 190 631 211 q 603 143 614 169 q 528 56 576 88 q 420 11 481 24 q 290 3 360 -1 q 151 22 221 7 q 3 110 21 57 q 10 160 -6 132 q 80 223 26 189 q 233 298 133 257 q 492 386 332 339 q 504 421 496 399 q 522 467 513 443 q 540 513 532 490 q 553 547 549 535 q 508 494 535 524 q 451 438 482 464 q 385 395 419 413 q 321 378 351 378 q 232 405 258 378 q 204 476 206 432 q 222 578 203 521 q 269 697 242 636 q 326 816 296 757 q 378 923 356 875 q 408 1002 400 971 q 397 1039 415 1033 q 464 1044 433 1047 q 516 1028 490 1042 q 553 976 542 1014 q 541 884 564 940 q 485 764 518 828 q 419 634 451 700 q 381 510 388 568 q 392 499 376 488 q 433 541 407 511 q 490 613 458 571 q 549 692 521 654 q 595 757 576 731 q 614 785 614 783 q 685 948 649 881 q 763 1031 721 1015 q 831 1049 800 1054 q 885 1029 861 1044 q 932 983 910 1013 m 299 121 q 390 165 349 121 q 460 289 432 210 q 298 233 358 257 q 207 192 238 210 q 171 162 176 174 q 176 142 165 150 q 299 121 200 124 m 583 997 q 567 1011 572 1001 q 564 1035 563 1019 q 581 1078 565 1050 q 656 1174 613 1131 q 735 1256 699 1218 q 756 1265 753 1275 q 755 1235 760 1256 q 742 1192 750 1215 q 729 1164 733 1169 q 701 1130 725 1157 q 651 1074 678 1103 q 583 997 621 1038 z "},"à":{"ha":715,"x_min":0,"x_max":715,"o":"m 490 697 q 421 774 451 738 q 372 830 394 803 q 344 864 349 857 q 332 892 340 869 q 319 935 324 915 q 317 965 314 956 q 339 956 319 975 q 418 874 375 918 q 493 778 461 831 q 510 735 508 750 q 507 711 511 719 q 490 697 501 701 m 650 346 q 682 360 669 365 q 701 343 694 356 q 715 303 710 328 q 624 151 671 218 q 580 95 603 122 q 532 47 557 68 q 481 13 507 26 q 429 0 454 0 q 381 15 399 0 q 353 52 363 31 q 340 97 344 74 q 333 135 336 119 q 292 88 313 111 q 245 46 271 65 q 187 14 219 26 q 111 0 154 1 q 49 22 74 -1 q 12 86 24 46 q 1 180 0 126 q 17 294 1 233 q 60 417 32 354 q 132 538 89 479 q 253 659 196 625 q 355 696 310 693 q 429 681 400 699 q 467 647 458 664 l 476 622 q 464 674 486 665 q 514 693 489 690 q 557 683 535 696 q 596 629 579 671 q 600 570 604 606 q 583 493 596 535 q 553 405 571 451 q 519 313 536 358 q 490 225 503 267 q 474 151 476 183 q 479 140 472 139 q 499 153 486 142 q 527 184 511 165 q 560 224 543 203 q 650 346 599 274 m 378 354 q 395 405 388 386 q 410 439 403 424 q 426 471 418 454 q 446 517 435 488 q 432 521 439 518 q 418 526 425 524 q 403 533 411 531 q 400 560 397 547 q 406 585 403 574 q 408 603 410 596 q 393 613 407 610 q 334 582 365 611 q 274 507 303 553 q 219 405 244 461 q 175 295 193 349 q 149 197 157 242 q 147 129 142 153 q 164 112 151 111 q 194 125 176 113 q 231 160 211 138 q 272 207 251 182 q 378 354 319 267 z "},"á":{"ha":715,"x_min":0,"x_max":715,"o":"m 336 707 q 319 721 325 711 q 317 744 315 729 q 333 788 318 760 q 408 884 365 840 q 488 965 451 928 q 509 975 506 985 q 508 945 513 965 q 494 902 503 925 q 482 874 486 879 q 454 840 478 867 q 404 783 431 813 q 336 707 374 747 m 650 342 q 682 356 669 361 q 701 339 694 351 q 715 299 710 324 q 624 147 671 214 q 580 91 603 118 q 532 43 557 64 q 481 9 507 22 q 429 -4 454 -4 q 381 11 399 -4 q 353 48 363 26 q 340 92 344 69 q 333 131 336 115 q 292 84 313 107 q 245 42 271 61 q 187 10 219 22 q 111 -4 154 -3 q 49 18 74 -6 q 12 82 24 42 q 1 176 0 122 q 17 290 1 229 q 60 413 32 350 q 132 533 89 475 q 253 655 196 621 q 355 692 310 689 q 429 677 400 694 q 467 643 458 660 l 476 618 q 464 669 486 661 q 514 689 489 686 q 557 679 535 692 q 596 625 579 667 q 600 566 604 601 q 583 489 596 531 q 553 401 571 447 q 519 308 536 354 q 490 221 503 263 q 474 147 476 179 q 479 136 472 135 q 499 149 486 138 q 527 180 511 161 q 560 219 543 199 q 650 342 599 269 m 378 350 q 395 401 388 382 q 410 435 403 419 q 426 467 418 450 q 446 513 435 483 q 432 517 439 514 q 418 522 425 519 q 403 529 411 526 q 400 556 397 543 q 406 581 403 569 q 408 599 410 592 q 393 608 407 606 q 334 578 365 607 q 274 503 303 549 q 219 401 244 457 q 175 291 193 344 q 149 193 157 238 q 147 125 142 149 q 164 108 151 107 q 194 121 176 108 q 231 156 211 133 q 272 203 251 178 q 378 350 319 263 z "},"â":{"ha":715,"x_min":0,"x_max":715,"o":"m 650 340 q 682 355 669 360 q 701 338 694 350 q 715 297 710 322 q 624 146 671 213 q 580 90 603 117 q 532 42 557 63 q 481 8 507 21 q 429 -6 454 -6 q 381 10 399 -6 q 353 47 363 25 q 340 91 344 68 q 333 129 336 114 q 292 83 313 106 q 245 40 271 60 q 187 8 219 21 q 111 -6 154 -4 q 49 17 74 -7 q 12 81 24 40 q 1 174 0 121 q 17 288 1 228 q 60 411 32 349 q 132 532 89 474 q 253 653 196 619 q 355 690 310 688 q 429 676 400 693 q 467 642 458 658 l 476 617 q 464 668 486 660 q 514 688 489 685 q 557 678 535 690 q 596 624 579 665 q 600 565 604 600 q 583 488 596 529 q 553 399 571 446 q 519 307 536 353 q 490 219 503 261 q 474 146 476 178 q 479 135 472 133 q 499 148 486 136 q 527 178 511 160 q 560 218 543 197 q 650 340 599 268 m 378 349 q 395 399 388 381 q 410 433 403 418 q 426 465 418 449 q 446 511 435 482 q 432 515 439 513 q 418 521 425 518 q 403 528 411 525 q 400 555 397 542 q 406 579 403 568 q 408 597 410 590 q 393 607 407 604 q 334 576 365 606 q 274 501 303 547 q 219 399 244 456 q 175 290 193 343 q 149 192 157 236 q 147 124 142 147 q 164 106 151 106 q 194 119 176 107 q 231 154 211 132 q 272 201 251 176 q 378 349 319 261 m 276 721 q 274 751 269 731 q 291 797 279 772 q 317 847 303 821 q 340 896 331 874 q 351 934 349 918 q 340 953 353 950 q 347 954 343 953 q 363 957 356 957 q 383 959 369 960 q 415 951 396 958 q 474 899 451 938 q 515 821 497 861 q 547 750 532 781 q 581 719 561 719 q 565 706 575 710 q 542 703 557 703 q 504 717 528 704 q 478 742 490 725 q 453 782 465 760 q 431 829 442 804 q 410 876 421 854 q 386 821 401 850 q 358 767 371 792 q 341 724 346 742 q 349 704 336 707 q 322 697 335 699 q 299 701 311 696 q 276 721 288 706 z "},"ã":{"ha":715,"x_min":0,"x_max":715,"o":"m 222 682 q 203 710 208 694 q 203 737 199 722 q 231 767 207 751 q 316 800 272 793 q 402 803 360 807 q 483 788 444 799 q 551 769 521 778 q 601 758 582 760 q 625 768 621 756 q 633 749 632 758 q 629 730 635 740 q 606 710 624 719 q 558 711 585 704 q 500 729 531 718 q 435 750 469 740 q 366 758 401 760 q 294 740 331 757 q 222 682 258 724 m 650 344 q 682 359 669 364 q 701 342 694 354 q 715 301 710 326 q 624 150 671 217 q 580 94 603 121 q 532 46 557 67 q 481 12 507 25 q 429 -1 454 -1 q 381 14 399 -1 q 353 51 363 29 q 340 95 344 72 q 333 133 336 118 q 292 87 313 110 q 245 44 271 64 q 187 13 219 25 q 111 -1 154 0 q 49 21 74 -3 q 12 85 24 44 q 1 178 0 125 q 17 292 1 232 q 60 415 32 353 q 132 536 89 478 q 253 658 196 624 q 355 694 310 692 q 429 680 400 697 q 467 646 458 663 l 476 621 q 464 672 486 664 q 514 692 489 689 q 557 682 535 694 q 596 628 579 669 q 600 569 604 604 q 583 492 596 533 q 553 403 571 450 q 519 311 536 357 q 490 224 503 265 q 474 150 476 182 q 479 139 472 138 q 499 152 486 140 q 527 183 511 164 q 560 222 543 201 q 650 344 599 272 m 378 353 q 395 403 388 385 q 410 438 403 422 q 426 469 418 453 q 446 515 435 486 q 432 519 439 517 q 418 525 425 522 q 403 532 411 529 q 400 559 397 546 q 406 583 403 572 q 408 601 410 594 q 393 611 407 608 q 334 581 365 610 q 274 506 303 551 q 219 403 244 460 q 175 294 193 347 q 149 196 157 240 q 147 128 142 151 q 164 110 151 110 q 194 124 176 111 q 231 158 211 136 q 272 206 251 181 q 378 353 319 265 z "},"ä":{"ha":715,"x_min":0,"x_max":715,"o":"m 365 714 q 336 724 350 717 q 315 742 325 731 q 304 775 306 753 q 320 857 301 819 q 356 926 339 894 q 374 935 364 943 q 394 911 385 928 q 409 876 403 894 q 414 854 415 858 q 406 826 414 849 q 389 779 399 804 q 365 714 378 750 m 518 714 q 489 724 503 717 q 468 742 478 731 q 457 775 458 753 q 474 857 454 819 q 508 926 493 894 q 527 935 517 943 q 547 911 538 928 q 563 876 557 894 q 568 854 568 858 q 560 826 567 849 q 543 779 553 804 q 518 714 532 750 m 650 346 q 682 360 669 365 q 701 343 694 356 q 715 303 710 328 q 624 151 671 218 q 580 95 603 122 q 532 47 557 68 q 481 13 507 26 q 429 0 454 0 q 381 15 399 0 q 353 52 363 31 q 340 97 344 74 q 333 135 336 119 q 292 88 313 111 q 245 46 271 65 q 187 14 219 26 q 111 0 154 1 q 49 22 74 -1 q 12 86 24 46 q 1 180 0 126 q 17 294 1 233 q 60 417 32 354 q 132 538 89 479 q 253 659 196 625 q 355 696 310 693 q 429 681 400 699 q 467 647 458 664 l 476 622 q 464 674 486 665 q 514 693 489 690 q 557 683 535 696 q 596 629 579 671 q 600 570 604 606 q 583 493 596 535 q 553 405 571 451 q 519 313 536 358 q 490 225 503 267 q 474 151 476 183 q 479 140 472 139 q 499 153 486 142 q 527 184 511 165 q 560 224 543 203 q 650 346 599 274 m 378 354 q 395 405 388 386 q 410 439 403 424 q 426 471 418 454 q 446 517 435 488 q 432 521 439 518 q 418 526 425 524 q 403 533 411 531 q 400 560 397 547 q 406 585 403 574 q 408 603 410 596 q 393 613 407 610 q 334 582 365 611 q 274 507 303 553 q 219 405 244 461 q 175 295 193 349 q 149 197 157 242 q 147 129 142 153 q 164 112 151 111 q 194 125 176 113 q 231 160 211 138 q 272 207 251 182 q 378 354 319 267 z "},"å":{"ha":642,"x_min":-74,"x_max":642,"o":"m 576 347 q 608 362 596 367 q 628 344 621 357 q 642 304 636 329 q 550 153 597 219 q 506 97 529 124 q 458 49 483 69 q 407 15 433 28 q 356 1 381 1 q 307 17 325 1 q 280 53 289 32 q 267 98 271 75 q 260 136 263 121 q 218 90 239 113 q 172 47 197 67 q 113 15 146 28 q 38 1 81 3 q -25 24 0 0 q -62 88 -50 47 q -73 181 -74 128 q -57 295 -72 235 q -13 418 -42 356 q 58 539 15 481 q 153 642 107 607 q 238 689 199 676 q 226 739 224 707 q 264 822 229 771 q 290 843 275 833 q 323 858 304 851 q 368 865 342 865 q 422 853 404 865 q 447 826 440 842 q 454 789 456 810 q 423 706 439 732 q 375 671 407 681 q 386 660 382 665 q 393 649 390 654 l 403 624 q 390 675 413 667 q 440 694 415 692 q 483 685 461 697 q 522 631 506 672 q 526 572 531 607 q 510 494 522 536 q 480 406 497 453 q 446 314 463 360 q 416 226 429 268 q 400 153 403 185 q 406 142 399 140 q 425 155 413 143 q 453 185 438 167 q 486 225 469 204 q 576 347 525 275 m 328 810 q 310 783 319 799 q 295 752 301 768 q 288 722 289 736 q 296 699 288 707 q 338 690 318 696 q 372 707 358 694 q 395 733 386 719 q 409 761 404 747 q 415 782 414 775 q 404 819 415 808 q 378 830 393 829 q 349 824 364 831 q 328 810 333 817 m 304 356 q 322 406 314 388 q 337 440 329 425 q 353 472 344 456 q 372 518 361 489 q 358 522 365 519 q 344 528 351 525 q 329 535 338 532 q 326 562 324 549 q 333 586 329 575 q 335 604 336 597 q 319 614 333 611 q 260 583 292 613 q 200 508 229 554 q 145 406 171 463 q 101 297 119 350 q 76 199 83 243 q 74 131 68 154 q 90 113 78 113 q 120 126 103 114 q 158 161 138 139 q 199 208 178 183 q 304 356 246 268 z "},"æ":{"ha":1079,"x_min":0,"x_max":1079,"o":"m 1007 386 q 1038 394 1025 406 q 1061 363 1051 383 q 1079 301 1072 338 q 974 151 1031 218 q 919 97 949 124 q 857 49 890 69 q 787 15 824 28 q 711 1 750 1 q 603 18 650 1 q 522 64 557 35 q 481 17 504 35 q 429 -1 458 -1 q 381 14 399 -1 q 353 51 363 29 q 340 95 344 72 q 333 133 336 118 q 292 87 313 110 q 245 44 271 64 q 187 13 219 25 q 111 -1 154 0 q 49 21 74 -3 q 12 85 24 44 q 1 178 0 125 q 17 292 1 232 q 60 415 32 353 q 132 536 89 478 q 253 658 196 624 q 355 694 310 692 q 429 680 400 697 q 467 646 458 663 l 476 621 q 464 672 486 664 q 513 692 488 689 q 555 683 532 694 q 594 632 578 671 q 688 681 636 663 q 799 699 739 699 q 897 669 858 700 q 950 592 936 639 q 951 492 964 546 q 897 392 939 439 q 779 314 854 346 q 594 282 704 282 q 603 213 588 243 q 649 165 615 186 q 757 144 683 144 q 814 157 788 146 q 863 186 840 168 q 906 226 886 204 q 942 269 925 247 q 1007 386 978 322 m 796 613 q 692 581 731 613 q 632 511 653 549 q 599 411 607 467 q 741 443 685 411 q 822 513 797 475 q 840 581 847 550 q 796 613 833 613 m 147 128 q 164 110 151 110 q 194 124 176 111 q 231 158 211 136 q 272 206 251 181 q 378 353 319 265 q 395 403 388 385 q 410 438 403 422 q 426 469 418 453 q 446 515 435 486 q 432 519 439 517 q 418 525 425 522 q 403 532 411 529 q 400 559 397 546 q 406 583 403 572 q 408 601 410 594 q 393 611 407 608 q 334 581 365 610 q 274 506 303 551 q 219 403 244 460 q 175 294 193 347 q 149 196 157 240 q 147 128 142 151 z "},"ç":{"ha":631,"x_min":-7,"x_max":631,"o":"m 631 301 q 528 147 583 214 q 476 90 504 118 q 415 41 447 63 q 349 6 383 19 q 276 -7 314 -7 q 255 -6 265 -7 q 233 -4 244 -6 q 244 -22 236 -19 l 275 -10 q 343 -18 310 -10 q 399 -41 371 -25 q 442 -85 426 -57 q 428 -137 451 -117 q 371 -167 404 -157 q 304 -180 338 -178 q 261 -178 271 -182 q 238 -162 242 -171 q 238 -147 233 -154 q 254 -129 242 -139 q 324 -137 292 -136 q 375 -133 351 -139 q 406 -108 399 -128 q 392 -84 406 -94 q 357 -66 378 -74 q 311 -54 336 -58 q 264 -47 286 -50 q 255 -52 258 -50 q 249 -57 251 -54 q 242 -61 244 -60 q 206 -60 219 -65 q 189 -42 194 -56 q 199 3 183 -29 q 70 82 118 24 q 8 216 22 140 q 12 375 -7 292 q 82 527 31 458 q 218 641 133 596 q 421 686 303 686 q 469 676 440 686 q 519 645 497 665 q 550 594 542 625 q 540 524 558 564 q 526 512 538 518 q 498 502 514 506 q 463 501 482 499 q 429 515 444 503 q 419 541 419 528 q 422 566 419 554 q 424 585 424 578 q 417 590 425 592 q 313 547 358 583 q 238 462 268 511 q 193 358 207 413 q 184 255 179 303 q 214 175 189 207 q 288 142 239 143 q 344 149 317 140 q 396 171 371 157 q 442 203 421 185 q 483 240 464 221 q 565 344 528 286 q 597 359 585 364 q 617 342 610 354 q 631 301 625 326 z "},"è":{"ha":654,"x_min":-4,"x_max":654,"o":"m 532 664 q 463 740 493 704 q 413 797 436 769 q 386 831 390 824 q 374 859 382 836 q 360 902 365 882 q 358 932 356 922 q 381 922 361 942 q 460 841 417 885 q 535 744 503 797 q 551 701 550 717 q 549 678 553 686 q 532 664 543 668 m 582 385 q 613 393 600 404 q 636 361 626 382 q 654 300 647 336 q 549 150 606 217 q 494 95 524 122 q 432 47 465 68 q 362 13 399 26 q 286 0 325 0 q 145 30 203 0 q 53 108 88 60 q 8 219 19 157 q 5 347 -4 282 q 43 475 14 413 q 119 587 72 538 q 230 666 165 636 q 374 697 294 696 q 472 667 433 697 q 525 591 511 638 q 526 491 539 544 q 472 391 514 438 q 354 313 429 344 q 169 281 279 281 q 178 211 163 242 q 224 164 190 185 q 332 143 258 143 q 389 156 363 144 q 438 185 415 167 q 481 224 461 203 q 517 268 500 246 q 582 385 553 321 m 371 611 q 267 579 306 611 q 207 510 228 547 q 174 410 182 465 q 316 442 260 410 q 397 511 372 474 q 415 580 422 549 q 371 611 408 611 z "},"é":{"ha":654,"x_min":-4,"x_max":654,"o":"m 222 694 q 206 708 211 699 q 203 732 201 717 q 219 775 204 747 q 294 872 251 828 q 374 953 338 915 q 395 963 392 972 q 394 933 399 953 q 381 890 389 913 q 368 861 372 867 q 340 827 364 854 q 290 771 317 800 q 222 694 260 735 m 582 382 q 613 390 600 401 q 636 358 626 379 q 654 297 647 333 q 549 147 606 214 q 494 92 524 119 q 432 44 465 65 q 362 10 399 24 q 286 -3 325 -3 q 145 27 203 -3 q 53 106 88 57 q 8 217 19 154 q 5 344 -4 279 q 43 472 14 410 q 119 584 72 535 q 230 663 165 633 q 374 694 294 693 q 472 665 433 694 q 525 588 511 635 q 526 488 539 542 q 472 388 514 435 q 354 310 429 342 q 169 278 279 278 q 178 208 163 239 q 224 161 190 182 q 332 140 258 140 q 389 153 363 142 q 438 182 415 164 q 481 222 461 200 q 517 265 500 243 q 582 382 553 318 m 371 608 q 267 576 306 608 q 207 507 228 544 q 174 407 182 463 q 316 439 260 407 q 397 508 372 471 q 415 577 422 546 q 371 608 408 608 z "}}}
